<?xml version="1.0" standalone="no"?>
<!DOCTYPE svg PUBLIC "-//W3C//DTD SVG 1.1//EN" "http://www.w3.org/Graphics/SVG/1.1/DTD/svg11.dtd" >
<svg>
<metadata>
Created by FontForge 20090914 at Fri Dec  3 03:19:11 2021
 By www-data
Copyright &#194;&#169; 2013 Schick Toikka. All rights reserved. Noe Display is a trademark of Schick Toikka. Unauthorised copying or modification of any of its data is illegal.
</metadata>
<defs>
<font id="NoeDisplay-Bold" horiz-adv-x="513" >
  <font-face 
    font-family="Noe Display Bold"
    font-weight="700"
    font-stretch="normal"
    units-per-em="1000"
    panose-1="2 10 8 0 9 4 0 0 0 2"
    ascent="750"
    descent="-250"
    x-height="495"
    cap-height="703"
    bbox="-226 -260.001 1199 993.001"
    underline-thickness="19"
    underline-position="-82"
    unicode-range="U+0020-U+FB02"
  />
<missing-glyph horiz-adv-x="600" 
d="M544 -250h-488v1000h488v-1000zM290 250l-215 464v-928zM310 250l215 -462v926zM300 228l-213 -460h427zM87 732l213 -460l213 460h-426z" />
    <glyph glyph-name="fi" unicode="fi" horiz-adv-x="632" 
d="M563 72c0 -9.33301 3.33301 -17.332 10 -23.999l49 -46v-2h-280v2l49 46c6 6 9 14 9 24v387c0 10.667 -5.33301 16 -16 16h-144v-402c0 -8.66699 3.66699 -16.334 11 -23.001l57 -48v-2h-289v2l49 46c6 6 9 14 9 24v403h-53v20h53c3.33301 72 26.833 126.333 70.5 163
s103.5 55 179.5 55c59.333 0 122 -9 188 -27l-63 -148h-2l-75 143c-5.33301 8.66699 -13.333 13 -24 13h-15c-64 0 -96 -50.667 -96 -152v-47h323v-423z" />
    <glyph glyph-name="fl" unicode="fl" horiz-adv-x="643" 
d="M576 72c0 -9.33301 3 -17.334 9 -24.001l49 -46v-2h-279v2l48 46c6 5.33301 9 13.333 9 24v581c0 8.66699 -3 15 -9 19c-22 13.333 -45.333 20 -70 20c-62 0 -93 -48.333 -93 -145v-52h122v-20h-122v-397c0 -9.33301 5 -17.666 15 -24.999l74 -51v-2h-310v2l49 46
c6 6 9 14 9 24v403h-53v20h53c2.66699 72 24.5 126.333 65.5 163s95.167 55 162.5 55c40 0 76.667 -8.66699 110 -26l161 42v-657z" />
    <glyph glyph-name="f_b" unicode="fb" horiz-adv-x="927" 
d="M397 -8l-0.00195312 660.999c0 8.66699 -3.33301 15 -10 19c-23.333 13.333 -45.666 20 -66.999 20c-28 0 -48.333 -11 -61 -33s-19 -59.333 -19 -112v-52h122v-20h-122v-397c0 -9.33301 5 -17.666 15 -24.999l74 -51v-2h-310v2l49 46c6 6 9 14 9 24v403h-53v20h53
c2.66699 72 23.834 126.333 63.501 163s91.167 55 154.5 55c38 0 72.667 -8.66699 104 -26l161 42v-336c33.333 73.333 85.333 110 156 110c57.333 0 103 -22.833 137 -68.5s51 -106.5 51 -182.5c0 -76.667 -20.667 -139.167 -62 -187.5s-95.333 -72.5 -162 -72.5
c-56 0 -97.333 17.667 -124 53l-157 -53h-2zM634.998 422.999c-29.333 0 -54.333 -14.333 -75 -43v-323c14.667 -14.667 34 -22 58 -22c75.333 0 113 70.667 113 212c0 117.333 -32 176 -96 176z" />
    <glyph glyph-name="f_h" unicode="fh" horiz-adv-x="947" 
d="M889 292c0 -24 -0.5 -63.8359 -1.5 -119.503s-1.5 -89.167 -1.5 -100.5c0 -10 3.33301 -18 10 -24l49 -46v-2h-280v2l47 46c6.66699 6.66699 10 14.334 10 23.001c0 2 0.5 30.833 1.5 86.5s1.5 92.834 1.5 111.501c0 50 -5.5 87.667 -16.5 113s-31.167 38 -60.5 38
c-28.667 0 -53.334 -15 -74.001 -45v-303c0 -10 3 -18 9 -24l50 -46v-2h-280v2l48 46c6.66699 6 10 14 10 24v581c0 8.66699 -3.33301 15 -10 19c-21.333 13.333 -44 20 -68 20c-62 0 -93 -48.333 -93 -145v-52h122v-20h-122v-397c0 -9.33301 5 -17.666 15 -24.999l74 -51
v-2h-310v2l49 46c6 6 9 14 9 24v403h-53v20h53c2.66699 72 24.334 126.333 65.001 163s94.667 55 162 55c41.333 0 77.666 -8.66699 108.999 -26l161 42v-343c26 78 79 117 159 117c50.667 0 89.334 -18 116.001 -54s40 -88.333 40 -157z" />
    <glyph glyph-name="f_j" unicode="fj" horiz-adv-x="613" 
d="M560 37c0 -82.667 -20.833 -146.998 -62.5 -192.998s-101.167 -69.667 -178.5 -71c-2 0 -6 0.166992 -12 0.5s-10 0.5 -12 0.5v2c68 13.333 102 81.666 102 204.999v478c0 6.66699 -0.833008 11 -2.5 13s-5.16699 3 -10.5 3h-144v-402
c0 -8.66699 3.66699 -16.334 11 -23.001l57 -48v-2h-289v2l49 46c6 6 9 14 9 24v403h-53v20h53c3.33301 72 26.5 126.333 69.5 163s102.5 55 178.5 55c58.667 0 121.667 -9 189 -27l-63 -148h-2l-76 143c-4 8 -11 12 -21 12c-2.66699 0.666992 -8.66699 1 -18 1
c-62.667 0 -94 -50.667 -94 -152v-47h320v-458z" />
    <glyph glyph-name="f_k" unicode="fk" horiz-adv-x="915" 
d="M861 72c6 -11.333 13.6641 -21.668 22.9971 -31.001l41 -39v-2h-211l-111 236c-3.33301 8 -9.33301 12 -18 12c-4 0 -7.66699 -1.33301 -11 -4v-172c0 -10 3 -18 9 -24l50 -46v-2h-280v2l48 46c6.66699 6 10 14 10 24v581c0 8 -3.33301 14.333 -10 19
c-20 13.333 -42.667 20 -68 20c-62 0 -93 -48.333 -93 -145v-52h122v-20h-122v-397c0 -9.33301 5 -17.666 15 -24.999l74 -51v-2h-310v2l49 46c6 6 9 14 9 24v403h-53v20h53c2.66699 72 24.334 126.333 65.001 163s95.334 55 164.001 55
c38.667 0 74.334 -8.66699 107.001 -26l161 42v-474l161 121c7.33301 5.33301 8.33301 12 3 20l-68 97v2h245v-2l-183 -139c-6.66699 -5.33301 -8.66699 -11.333 -6 -18z" />
    <glyph glyph-name=".notdef" horiz-adv-x="600" 
d="M544 -250h-488v1000h488v-1000zM290 250l-215 464v-928zM310 250l215 -462v926zM300 228l-213 -460h427zM87 732l213 -460l213 460h-426z" />
    <glyph glyph-name="space" unicode=" " horiz-adv-x="197" 
 />
    <glyph glyph-name="exclam" unicode="!" horiz-adv-x="310" 
d="M273 703l-118 -484h-2l-116 484h236zM74 68c0 22.667 7.83301 41.5 23.5 56.5s34.5 22.5 56.5 22.5c22.667 0 41.834 -7.33301 57.501 -22s23.5 -33.667 23.5 -57c0 -22 -7.83301 -40.167 -23.5 -54.5s-34.834 -21.5 -57.501 -21.5c-22 0 -40.833 7.16699 -56.5 21.5
s-23.5 32.5 -23.5 54.5z" />
    <glyph glyph-name="quotedbl" unicode="&#x22;" horiz-adv-x="362" 
d="M149 612l-54 -156.001h-2l-54 156c-4.66699 12.667 -7 25.334 -7 38.001c0 18.667 5.33301 33.834 16 45.501s26 17.5 46 17.5s35.333 -5.83301 46 -17.5s16 -26.834 16 -45.501c0 -11.333 -2.33301 -24 -7 -38zM324 611.999l-55 -156.001h-2l-54 156
c-4.66699 12.667 -7 25.334 -7 38.001c0 18.667 5.33301 33.834 16 45.501s26 17.5 46 17.5c20.667 0 36.167 -5.83301 46.5 -17.5s15.5 -26.834 15.5 -45.501c0 -12 -2 -24.667 -6 -38z" />
    <glyph glyph-name="numbersign" unicode="#" horiz-adv-x="588" 
d="M491 215h-134l-54 -189l-18 6l52 183h-156l-54 -189l-18 6l52 183h-126v19h131l58 203h-126v19h132l56 197l20 -6l-55 -191h155l56 197l20 -6l-55 -191h126v-19h-132l-58 -203h128v-19zM245 437l-58 -203h155l58 203h-155z" />
    <glyph glyph-name="dollar" unicode="$" horiz-adv-x="569" 
d="M264 -10c-72.667 0 -140.997 9.33203 -204.997 27.999v239h2l132 -228c6 -10 13.333 -15.667 22 -17c11.333 -2 25.333 -3 42 -3c10 0 17.667 0.333008 23 1v242l-56 27c-26.667 12.667 -49.167 24.834 -67.5 36.501s-37.5 26.5 -57.5 44.5s-35.167 39 -45.5 63
s-15.5 51 -15.5 81c0 60.667 21.833 109.667 65.5 147s102.5 57.666 176.5 60.999v81h19v-80c64 0 127.667 -7.66699 191 -23v-228h-2l-135 216c-6.66699 9.33301 -13.334 14.333 -20.001 15s-16.334 1 -29.001 1h-5v-235l50 -24c26 -12.667 46.667 -23.167 62 -31.5
s32.5 -19.333 51.5 -33s33.667 -27.167 44 -40.5s19.166 -29.666 26.499 -48.999s11 -40.333 11 -63c0 -63.333 -22.167 -115.5 -66.5 -156.5s-103.833 -64.167 -178.5 -69.5v-96h-19v94h-16zM393.003 123.999c0 26 -7.5 47.833 -22.5 65.5s-38.833 35.167 -71.5 52.5v-229
c29.333 6 52.333 18.5 69 37.5s25 43.5 25 73.5zM185.003 583.999c0 -26 7.66699 -47.333 23 -64s39.333 -33.667 72 -51v223c-29.333 -4 -52.5 -15.5 -69.5 -34.5s-25.5 -43.5 -25.5 -73.5z" />
    <glyph glyph-name="percent" unicode="%" horiz-adv-x="682" 
d="M196 698c-17.333 0 -28.5 -9.83301 -33.5 -29.5s-7.5 -54.5 -7.5 -104.5s2.5 -85 7.5 -105s16.167 -30 33.5 -30s28.833 10 34.5 30s8.5 54.667 8.5 104c0 50 -2.83301 85 -8.5 105s-17.167 30 -34.5 30zM196 713c48.667 0 84.834 -13.1689 108.501 -39.502
s35.5 -63.166 35.5 -110.499c0 -46.667 -11.833 -83.167 -35.5 -109.5s-59.834 -39.5 -108.501 -39.5c-47.333 0 -82.833 13.333 -106.5 40s-35.5 63.334 -35.5 110.001c0 46 11.833 82.333 35.5 109s59.167 40 106.5 40zM481 274.998c-17.333 0 -28.5 -9.83301 -33.5 -29.5
s-7.5 -54.5 -7.5 -104.5s2.5 -85 7.5 -105s16.167 -30 33.5 -30s28.833 10 34.5 30s8.5 54.667 8.5 104c0 50 -2.83301 85 -8.5 105s-17.167 30 -34.5 30zM481 289.998c48.667 0 84.834 -13.1689 108.501 -39.502s35.5 -63.166 35.5 -110.499
c0 -46.667 -11.833 -83.167 -35.5 -109.5s-59.834 -39.5 -108.501 -39.5c-47.333 0 -82.833 13.333 -106.5 40s-35.5 63.334 -35.5 110.001c0 46 11.833 82.333 35.5 109s59.167 40 106.5 40zM600 700.996l-503 -711l-16 13l503 710z" />
    <glyph glyph-name="ampersand" unicode="&#x26;" horiz-adv-x="771" 
d="M225 -10c-58.667 0 -106.335 14.998 -143.002 44.998s-55 69.333 -55 118c0 44 15.333 80 46 108s72 52 124 72c-30.667 34 -53.167 65.667 -67.5 95s-21.5 60.666 -21.5 93.999c0 55.333 18.833 101 56.5 137s89.834 54 156.501 54c56.667 0 102.5 -12.333 137.5 -37
s52.5 -59 52.5 -103c0 -73.333 -57.333 -126.666 -172 -159.999l154 -167c20.667 -22 35.334 -37 44.001 -45c32 42 50 71.667 54 89c2 8 -3.33301 20.333 -16 37l-77 98v2h248v-2l-101 -103c-12.667 -13.333 -23.334 -27.333 -32.001 -42c-26 -40 -47.333 -70.333 -64 -91
c29.333 -27.333 53.333 -46 72 -56s36.667 -15 54 -15c18 0 34.833 6.16699 50.5 18.5s27.167 30.5 34.5 54.5h2c1.33301 -9.33301 2 -20.333 2 -33c0 -51.333 -14.167 -92.166 -42.5 -122.499s-66.166 -45.5 -113.499 -45.5c-30 0 -58.333 6.83301 -85 20.5
s-56.667 35.834 -90 66.501c-66.667 -58 -136 -87 -208 -87zM357.999 153.998l-153.999 169.999c-31.333 -31.333 -47 -67.666 -47 -108.999c0 -47.333 16.167 -86.333 48.5 -117s69.166 -46 110.499 -46s76.666 12 105.999 36c-17.333 16.667 -38.666 38.667 -63.999 66z
M237 597.997c0 -27.333 6.83105 -54 20.498 -80s38.167 -58 73.5 -96c43.333 40 65 89 65 147c0 42 -7.66699 73.667 -23 95s-34.666 32 -57.999 32s-42.166 -8.83301 -56.499 -26.5s-21.5 -41.5 -21.5 -71.5z" />
    <glyph glyph-name="quotesingle" unicode="'" horiz-adv-x="188" 
d="M149 612l-54 -156h-2l-54 156c-4.66699 15.333 -7 28 -7 38c0 18.667 5.33301 33.834 16 45.501s26 17.5 46 17.5s35.333 -5.83301 46 -17.5s16 -26.834 16 -45.501c0 -10 -2.33301 -22.667 -7 -38z" />
    <glyph glyph-name="parenleft" unicode="(" horiz-adv-x="340" 
d="M54 292c0 159.333 48 283.998 144 373.998c36 34 79.667 58 131 72l1 -2c-33.333 -27.333 -60.666 -63 -81.999 -107c-46.667 -95.333 -70 -207.666 -70 -336.999s23.333 -241.666 70 -336.999c21.333 -44 48.666 -79.667 81.999 -107l-1 -2c-51.333 14 -95 38 -131 72
c-96 90 -144 214.667 -144 374z" />
    <glyph glyph-name="parenright" unicode=")" horiz-adv-x="340" 
d="M286 292c0 -162.667 -47.667 -287.33 -143 -373.997c-36.667 -34 -80.667 -58 -132 -72l-1 2c33.333 27.333 60.666 63 81.999 107c46.667 95.333 70 207.666 70 336.999s-23.333 241.666 -70 336.999c-21.333 44 -48.666 79.667 -81.999 107l1 2
c51.333 -14 95.333 -38 132 -72c95.333 -86.667 143 -211.334 143 -374.001z" />
    <glyph glyph-name="asterisk" unicode="*" horiz-adv-x="423" 
d="M397 520l-184 8l151 -102l-105 -76l-50 174l-50 -173l-105 76l151 101l-179 -7l40 124l140 -112l-59 170h130l-65 -170l144 111z" />
    <glyph glyph-name="plus" unicode="+" horiz-adv-x="540" 
d="M51 314v19h209v211h20v-211h210v-19h-210v-210h-20v210h-209z" />
    <glyph glyph-name="comma" unicode="," horiz-adv-x="243" 
d="M41 -132l-1 2c24 12.667 43 30.667 57 54s21 46.333 21 69c0 8 -5 13 -15 15c-18.667 2.66699 -33.5 10.5 -44.5 23.5s-16.5 28.833 -16.5 47.5c0 20.667 6.83301 38 20.5 52s31.5 21 53.5 21c24 0 43.5 -8.33301 58.5 -25s22.5 -39.667 22.5 -69
c0 -43.333 -15 -83.5 -45 -120.5s-67 -60.167 -111 -69.5z" />
    <glyph glyph-name="hyphen" unicode="-" horiz-adv-x="351" 
d="M46 237v20h260v-20h-260z" />
    <glyph glyph-name="period" unicode="." horiz-adv-x="243" 
d="M41 68c0 22.667 7.83301 41.5 23.5 56.5s34.5 22.5 56.5 22.5c22.667 0 41.834 -7.33301 57.501 -22s23.5 -33.667 23.5 -57c0 -22 -7.83301 -40.167 -23.5 -54.5s-34.834 -21.5 -57.501 -21.5c-22 0 -40.833 7.16699 -56.5 21.5s-23.5 32.5 -23.5 54.5z" />
    <glyph glyph-name="slash" unicode="/" horiz-adv-x="380" 
d="M348 732l-297 -886l-19 6l297 886z" />
    <glyph glyph-name="zero" unicode="0" horiz-adv-x="681" 
d="M340 9c38.667 0 68 26.167 88 78.5s30 140.5 30 264.5c0 124.667 -10 212.834 -30 264.501s-49.333 77.5 -88 77.5s-67.834 -25.833 -87.501 -77.5s-29.5 -139.834 -29.5 -264.501s9.83301 -213 29.5 -265s48.834 -78 87.501 -78zM340 713
c95.333 0 169.166 -30 221.499 -90s78.5 -150.667 78.5 -272s-26.167 -211.833 -78.5 -271.5s-126.166 -89.5 -221.499 -89.5s-169.166 30 -221.499 90s-78.5 150.667 -78.5 272s26.167 211.833 78.5 271.5s126.166 89.5 221.499 89.5z" />
    <glyph glyph-name="one" unicode="1" horiz-adv-x="406" 
d="M297 721v-630c0 -10.667 3.66699 -18.667 11 -24l79 -65v-2h-345v2l80 65c6.66699 5.33301 10 13.333 10 24v464c0 11.333 -3.33301 18 -10 20l-93 34v2z" />
    <glyph glyph-name="two" unicode="2" horiz-adv-x="564" 
d="M517 523c0 -28 -5.66699 -55.1709 -17 -81.5039s-25.333 -50.166 -42 -71.499s-40.167 -44.666 -70.5 -69.999s-58.666 -47.166 -84.999 -65.499s-60.833 -41.166 -103.5 -68.499l-44 -29h259c13.333 0 22.166 1 26.499 3s10.5 7 18.5 15l66 72h2l-35 -227h-471v2
l125 150c34.667 42 65.334 82.333 92.001 121c35.333 52 60.333 96.833 75 134.5s22 78.167 22 121.5c0 54 -8.66699 94.833 -26 122.5s-41.333 41.5 -72 41.5c-10 0 -18.667 -1 -26 -3c-6.66699 -1.33301 -11.667 -6 -15 -14l-85 -201h-2l-78 181
c78.667 38 160.667 57 246 57c77.333 0 136.666 -17.333 177.999 -52s62 -80.667 62 -138z" />
    <glyph glyph-name="three" unicode="3" horiz-adv-x="576" 
d="M544 196c0 -62.667 -26.1699 -112.665 -78.5029 -149.998s-128.166 -56 -227.499 -56c-76 0 -146 11.333 -210 34l80 200h2l74 -198c4.66699 -11.333 13 -17 25 -17h22c38 0 69.333 16.333 94 49s37 75 37 127c0 51.333 -12.5 91.666 -37.5 120.999
s-65.833 47.666 -122.5 54.999v2c92.667 20 139 81.333 139 184c0 44 -9.16699 79.333 -27.5 106s-42.166 40 -71.499 40c-9.33301 0 -16.666 -0.333008 -21.999 -1c-8 -1.33301 -14.333 -7 -19 -17l-85 -200h-2l-78 181c76 38 157.333 57 244 57
c72 0 129.667 -15.5 173 -46.5s65 -73.167 65 -126.5c0 -47.333 -14.5 -84.5 -43.5 -111.5s-71.167 -46.167 -126.5 -57.5v-2c60 -6 107.667 -24.333 143 -55s53 -70 53 -118z" />
    <glyph glyph-name="four" unicode="4" horiz-adv-x="603" 
d="M292 703h144v-504h21c7.33301 0 12.5 0.833008 15.5 2.5s6.5 5.5 10.5 11.5l103 177h2l-19 -211h-133v-89c0 -8 3.66699 -15.667 11 -23l71 -65v-2h-330v2l72 64c8 6.66699 12 14.667 12 24v89h-268v1zM37 199h235v421z" />
    <glyph glyph-name="five" unicode="5" horiz-adv-x="574" 
d="M543 222c0 -76.667 -27.001 -134.5 -81.001 -173.5s-127.333 -58.5 -220 -58.5c-78 0 -148 11 -210 33l76 199h2l77 -196c4.66699 -11.333 12.667 -17 24 -17h23c37.333 0 68.166 17 92.499 51s36.5 79.667 36.5 137c0 53.333 -13.667 95.333 -41 126
s-67.666 46 -120.999 46c-39.333 0 -78 -11 -116 -33l-2 1l17 368l200 -8c30.667 -1.33301 52.334 -2 65.001 -2c54 0 92.667 10.667 116 32l29 27h2l-11 -97c-4.66699 -40 -18.334 -66.833 -41.001 -80.5s-58.667 -20.5 -108 -20.5c-29.333 0 -51 0.333008 -65 1l-174 7
l-9 -201c70 45.333 141.333 68 214 68c68.667 0 123.334 -19.333 164.001 -58s61 -89 61 -151z" />
    <glyph glyph-name="six" unicode="6" horiz-adv-x="632" 
d="M398 442c60.667 0 109.33 -17.9971 145.997 -53.9971s55 -87.333 55 -154c0 -74 -24.167 -133.167 -72.5 -177.5s-113.166 -66.5 -194.499 -66.5c-94.667 0 -167 31.167 -217 93.5s-75 150.166 -75 263.499c0 119.333 27.667 210.166 83 272.499s137.333 93.5 246 93.5
c68.667 0 136.667 -11.667 204 -35l-79 -173h-2l-95 175c-3.33301 6 -6.5 9.83301 -9.5 11.5s-8.5 2.5 -16.5 2.5h-13c-47.333 0 -81.666 -25.333 -102.999 -76s-32.333 -133.334 -33 -248.001c44.667 48 103.334 72 176.001 72zM313.996 396.003
c-32 0 -62.667 -12.667 -92 -38v-11c0 -225.333 36 -338 108 -338c30 0 54.667 17.5 74 52.5s29 82.833 29 143.5c0 58 -9.66699 104.333 -29 139s-49.333 52 -90 52z" />
    <glyph glyph-name="seven" unicode="7" horiz-adv-x="525" 
d="M432 535c-40 -124 -80 -302.333 -120 -535h-210c46.667 102.667 100.5 207 161.5 313s114.167 190 159.5 252h-319c-8 0 -13.5 -0.833008 -16.5 -2.5s-7.16699 -5.5 -12.5 -11.5l-55 -65h-2l23 217h489v-2l-76 -118c-8 -12.667 -15.333 -28.667 -22 -48z" />
    <glyph glyph-name="eight" unicode="8" horiz-adv-x="597" 
d="M301 -10c-77.333 0 -140.501 15.8301 -189.501 47.4971s-73.5 72.167 -73.5 121.5c0 39.333 14.833 71.5 44.5 96.5s70.834 42.167 123.501 51.5l-6 4c-48 32.667 -84 63.834 -108 93.501s-36 66.167 -36 109.5c0 60 22.667 108.167 68 144.5s103 54.5 173 54.5
c63.333 0 118 -14.667 164 -44s69 -68.666 69 -117.999c0 -37.333 -13.5 -67.5 -40.5 -90.5s-63.5 -38.5 -109.5 -46.5l39 -21c51.333 -28 89.333 -57 114 -87s37 -67.333 37 -112c0 -57.333 -24 -105.666 -72 -144.999s-113.667 -59 -197 -59zM326.999 239.997l-112.999 63
c-36 -28 -54 -74.667 -54 -140c0 -42 14.5 -78 43.5 -108s64.833 -45 107.5 -45c35.333 0 64.166 9.5 86.499 28.5s33.5 45.5 33.5 79.5c0 25.333 -8.16699 47 -24.5 65s-42.833 37 -79.5 57zM187 594.997c0 -28 9.00098 -52.501 27.001 -73.501s47 -42.5 87 -64.5l70 -39
c28 28.667 42 69.334 42 122.001c0 45.333 -10.833 82.333 -32.5 111s-50.834 43 -87.501 43c-31.333 0 -56.833 -9 -76.5 -27s-29.5 -42 -29.5 -72z" />
    <glyph glyph-name="nine" unicode="9" horiz-adv-x="632" 
d="M241 261c-56.667 0 -105.667 18.5 -147 55.5s-62 88.833 -62 155.5c0 72.667 24.333 131 73 175s113.667 66 195 66c95.333 0 167.666 -30.667 216.999 -92s74 -150 74 -266c0 -112.667 -28 -201.667 -84 -267s-136 -98 -240 -98c-70.667 0 -140.334 12.333 -209.001 37
l75 177h2l98 -181c3.33301 -6 6.33301 -9.66699 9 -11s8.33398 -2.33301 17.001 -3h16c46.667 0 80.5 25.333 101.5 76s32.167 133 33.5 247c-43.333 -47.333 -99.666 -71 -168.999 -71zM321 305c28.667 0 58.332 13.667 88.999 41v9c0 122 -9.16699 209 -27.5 261
s-45.166 78 -80.499 78c-30 0 -54.833 -17.667 -74.5 -53s-29.5 -84.333 -29.5 -147c0 -56 10 -101.5 30 -136.5s51 -52.5 93 -52.5z" />
    <glyph glyph-name="colon" unicode=":" horiz-adv-x="243" 
d="M41 68c0 22.667 7.83301 41.5 23.5 56.5s34.5 22.5 56.5 22.5c22.667 0 41.834 -7.33301 57.501 -22s23.5 -33.667 23.5 -57c0 -22 -7.83301 -40.167 -23.5 -54.5s-34.834 -21.5 -57.501 -21.5c-22 0 -40.833 7.16699 -56.5 21.5s-23.5 32.5 -23.5 54.5zM41 398
c0 22.667 7.83301 41.5 23.5 56.5s34.5 22.5 56.5 22.5c22.667 0 41.834 -7.33301 57.501 -22s23.5 -33.667 23.5 -57c0 -22 -7.83301 -40.167 -23.5 -54.5s-34.834 -21.5 -57.501 -21.5c-22 0 -40.833 7.16699 -56.5 21.5s-23.5 32.5 -23.5 54.5z" />
    <glyph glyph-name="semicolon" unicode=";" horiz-adv-x="243" 
d="M41 -132l-1 2c24 12.667 43 30.667 57 54s21 46.333 21 69c0 8 -5 13 -15 15c-18.667 2.66699 -33.5 10.5 -44.5 23.5s-16.5 28.833 -16.5 47.5c0 20.667 6.83301 38 20.5 52s31.5 21 53.5 21c24 0 43.5 -8.33301 58.5 -25s22.5 -39.667 22.5 -69
c0 -43.333 -15 -83.5 -45 -120.5s-67 -60.167 -111 -69.5zM41 398c0 22.667 7.83301 41.5 23.5 56.5s34.5 22.5 56.5 22.5c22.667 0 41.834 -7.33301 57.501 -22s23.5 -33.667 23.5 -57c0 -22 -7.83301 -40.167 -23.5 -54.5s-34.834 -21.5 -57.501 -21.5
c-22 0 -40.833 7.16699 -56.5 21.5s-23.5 32.5 -23.5 54.5z" />
    <glyph glyph-name="less" unicode="&#x3c;" horiz-adv-x="540" 
d="M58 324l390 179l7 -19l-353 -161l353 -161l-7 -19l-390 179v2z" />
    <glyph glyph-name="equal" unicode="=" horiz-adv-x="540" 
d="M50 404v19h440v-19h-440zM50 225v19h440v-19h-440z" />
    <glyph glyph-name="greater" unicode="&#x3e;" horiz-adv-x="540" 
d="M92 503l390 -179v-2l-390 -179l-7 19l352 161l-352 161z" />
    <glyph glyph-name="question" unicode="?" horiz-adv-x="458" 
d="M461 552c0 -50 -26.332 -96.332 -78.999 -138.999c-9.33301 -7.33301 -28.833 -21.833 -58.5 -43.5s-47.834 -35.167 -54.501 -40.5c-18 -14.667 -29.833 -28.5 -35.5 -41.5s-8.16699 -31.5 -7.5 -55.5l-2 -1c-58.667 19.333 -88 52.666 -88 99.999
c0 28.667 17.333 61 52 97l17 16.5l25.5 25c7.66699 7.66699 13.167 13.5 16.5 17.5c29.333 32.667 44 66.667 44 102c0 30.667 -8.5 55.667 -25.5 75s-37.5 29 -61.5 29h-13c-14 0 -23.333 -5.33301 -28 -16l-86 -202h-2l-78 181c82 38 162 57 240 57
c71.333 0 126.5 -14.5 165.5 -43.5s58.5 -68.167 58.5 -117.5zM131.001 68.001c0 23.333 7.66699 42.333 23 57s34 22 56 22c22.667 0 41.834 -7.33301 57.501 -22s23.5 -33.667 23.5 -57c0 -22 -7.83301 -40.167 -23.5 -54.5s-34.834 -21.5 -57.501 -21.5
c-22 0 -40.667 7.16699 -56 21.5s-23 32.5 -23 54.5z" />
    <glyph glyph-name="at" unicode="@" horiz-adv-x="1004" 
d="M954 323c0 -90 -25.3301 -167.669 -75.9971 -233.002s-114.334 -98 -191.001 -98c-44 0 -80.333 11.667 -109 35s-43 56.666 -43 99.999c0 11.333 1 23 3 35l-3 1c-18.667 -53.333 -41.834 -95.166 -69.501 -125.499s-59.167 -45.5 -94.5 -45.5
c-32.667 0 -60.5 13.333 -83.5 40s-34.5 64.667 -34.5 114c0 92.667 26.167 175.334 78.5 248.001s112.833 109 181.5 109c46 0 79.333 -15 100 -45l156 46l2 -2l-81 -322c-8.66699 -36.667 -13 -65 -13 -85c0 -48.667 19 -73 57 -73c46 0 91 29.5 135 88.5
s66 130.5 66 214.5c0 104 -36.167 189.667 -108.5 257s-166.166 101 -281.499 101c-132.667 0 -245 -46.833 -337 -140.5s-138 -210.5 -138 -350.5c0 -84 20.167 -156.833 60.5 -218.5s92 -107.167 155 -136.5s131.833 -44 206.5 -44c84.667 0 168.667 25.333 252 76l9 -16
c-82 -52.667 -169.667 -79 -263 -79c-56.667 0 -110.834 8.66699 -162.501 26s-98.334 42.5 -140.001 75.5s-75 76.833 -100 131.5s-37.5 116.334 -37.5 185.001c0 146 48.167 267.5 144.5 364.5s213.833 145.5 352.5 145.5c122 0 220.333 -36 295 -108
s112 -162.333 112 -271zM534.003 190.998c3.33301 8 15.5 49.167 36.5 123.5s33.167 118.833 36.5 133.5c-6.66699 9.33301 -18 14 -34 14c-39.333 0 -73 -27.333 -101 -82c-17.333 -34.667 -31.833 -75 -43.5 -121s-17.5 -89 -17.5 -129c0 -38 11.667 -57 35 -57
c26 0 55.333 39.333 88 118z" />
    <glyph glyph-name="A" unicode="A" horiz-adv-x="656" 
d="M147 245l-26.001 -80.001c-2.66699 -8 -3.5 -13.667 -2.5 -17s4.5 -9.33301 10.5 -18l89 -128v-2h-237v2l96 128c10.667 14 18.334 28 23.001 42l139 426c3.33301 9.33301 4.66602 15.833 3.99902 19.5s-4 8.83398 -10 15.501l-59 68v2h235l187 -593
c3.33301 -11.333 10 -25 20 -41l42 -67v-2h-296v2l48 67c4.66699 6.66699 5.33398 15.667 2.00098 27l-47 149h-218zM257.999 588.999l-105 -324h206z" />
    <glyph glyph-name="B" unicode="B" horiz-adv-x="674" 
d="M15 703l358 -0.000976562c80 0 142 -13.333 186 -40s66 -67 66 -121c0 -50 -18.5 -89.667 -55.5 -119s-87.5 -46.666 -151.5 -51.999v-2c68.667 -1.33301 124 -17 166 -47s63 -71.667 63 -125c0 -62 -23 -110.333 -69 -145s-108.667 -52 -188 -52h-375v2l67 63
c6 6 9 14 9 24v525c0 10 -3 18 -9 24l-67 63v2zM321 355.999l-49.001 -0.000976562v-316c0 -9.33301 1.33301 -15 4 -17s9.33398 -3 20.001 -3h28c86 0 129 57 129 171c0 54.667 -10.5 95.834 -31.5 123.501s-54.5 41.5 -100.5 41.5zM271.999 662.998l-0.000976562 -287h48
c37.333 0 66 13.833 86 41.5s30 66.5 30 116.5c0 45.333 -9.66699 81.5 -29 108.5s-47 40.5 -83 40.5h-34c-7.33301 0 -12.166 -1.16699 -14.499 -3.5s-3.5 -7.83301 -3.5 -16.5z" />
    <glyph glyph-name="C" unicode="C" horiz-adv-x="633" 
d="M586 694l0.000976562 -246.001h-2l-152 230c-6.66699 10.667 -17.667 16 -33 16h-14c-101.333 0 -152 -114.667 -152 -344c0 -227.333 51.333 -341 154 -341h11c15.333 0 26.333 4.66699 33 14l153 236h2v-251c-65.333 -12 -136.333 -18 -213 -18
c-116 0 -202.667 31.833 -260 95.5s-86 151.834 -86 264.501c0 112 29.667 200.5 89 265.5s143.666 97.5 252.999 97.5c74.667 0 147 -6.33301 217 -19z" />
    <glyph glyph-name="D" unicode="D" horiz-adv-x="720" 
d="M15 0v2.00098l67 63c6 6 9 14 9 24v525c0 10 -3 18 -9 24l-67 63v2h334c113.333 0 199.333 -29.833 258 -89.5s88 -141.834 88 -246.501c0 -116 -31.833 -206.167 -95.5 -270.5s-153.5 -96.5 -269.5 -96.5h-315zM293 20.001l21.001 -0.000976562
c63.333 0 108.5 27.5 135.5 82.5s40.5 138.5 40.5 250.5c0 110.667 -13.167 193.334 -39.5 248.001s-69.5 82 -129.5 82h-32c-7.33301 0 -12 -1.16699 -14 -3.5s-3 -7.5 -3 -15.5v-624c0 -9.33301 1.16699 -15 3.5 -17s8.16602 -3 17.499 -3z" />
    <glyph glyph-name="E" unicode="E" horiz-adv-x="607" 
d="M551 703v-242.001h-2l-129 206c-6.66699 10.667 -16 16 -28 16h-103c-7.33301 0 -12 -1.16699 -14 -3.5s-3 -7.83301 -3 -16.5v-301h68c10 0.666992 18.667 5.33398 26 14.001l90 104h2v-255h-2l-90 104c-8 8.66699 -17 13 -27 13h-67v-302c0 -8.66699 1 -14.167 3 -16.5
s6.66699 -3.5 14 -3.5h115c14.667 0 24.667 4.66699 30 14l124 212h2v-246h-545v2l67 63c6 6 9 14 9 24v525c0 10 -3 18 -9 24l-67 63v2h536z" />
    <glyph glyph-name="F" unicode="F" horiz-adv-x="575" 
d="M551 703v-242.001h-2l-129 206c-6.66699 10.667 -16 16 -28 16h-103c-7.33301 0 -12 -1.16699 -14 -3.5s-3 -7.5 -3 -15.5v-302h68c10 0.666992 18.667 5.33398 26 14.001l90 104h2v-255h-2l-90 104c-8 8.66699 -17 13 -27 13h-67v-247c0 -9.33301 3.66699 -17 11 -23
l92 -70v-2h-360v2l67 63c6 6 9 14 9 24v525c0 10 -3 18 -9 24l-67 63v2h536z" />
    <glyph glyph-name="G" unicode="G" horiz-adv-x="692" 
d="M604 690l0.000976562 -245h-2l-156 233c-6.66699 10.667 -17 16 -31 16h-17c-110 0 -165 -110.667 -165 -332c0 -125.333 11.667 -214.666 35 -267.999s60 -80 110 -80c18.667 0 35.334 3 50.001 9c6 3.33301 9 8.66602 9 15.999v178c0 11.333 -3 20.666 -9 27.999
l-56 64v2h311v-2l-56 -64c-6 -7.33301 -9 -16.666 -9 -27.999v-227l-152 27c-42.667 -18 -86.334 -27 -131.001 -27c-94.667 0 -169.834 32.167 -225.501 96.5s-83.5 152.5 -83.5 264.5c0 110.667 30.5 198.667 91.5 264s146.833 98 257.5 98c82.667 0 159 -7.66699 229 -23
z" />
    <glyph glyph-name="H" unicode="H" horiz-adv-x="776" 
d="M685 614v-525c0 -10 3 -18 9 -24l66 -63v-2h-332v2l66 63c6.66699 6.66699 10 14.667 10 24v261h-232v-261c0 -10 3.33301 -18 10 -24l66 -63v-2h-333v2l67 63c6 6 9 14 9 24v525c0 10 -3 18 -9 24l-67 63v2h333v-2l-66 -63c-6.66699 -6 -10 -14 -10 -24v-244h232v244
c0 10 -3.33301 18 -10 24l-66 63v2h332v-2l-66 -63c-6 -6 -9 -14 -9 -24z" />
    <glyph glyph-name="I" unicode="I" horiz-adv-x="364" 
d="M272 89c0 -10 3.33301 -18 10 -24l66 -63v-2h-333v2l67 63c6 6 9 14 9 24v525c0 10 -3 18 -9 24l-67 63v2h333v-2l-66 -63c-6.66699 -6 -10 -14 -10 -24v-525z" />
    <glyph glyph-name="J" unicode="J" horiz-adv-x="335" 
d="M77 59v555.001c0 10 -3.33301 18 -10 24l-66 63v2h333v-2l-66 -63c-6.66699 -6 -10 -14 -10 -24v-496c0 -100.667 -27 -179.834 -81 -237.501s-132 -88.167 -234 -91.5l-1 2c90 46 135 135.333 135 268z" />
    <glyph glyph-name="K" unicode="K" horiz-adv-x="710" 
d="M272 614v-525c0 -10 3.33301 -18 10 -24l66 -63v-2h-333v2l67 63c6 6 9 14 9 24v525c0 10 -3 18 -9 24l-67 63v2h333v-2l-66 -63c-6.66699 -6 -10 -14 -10 -24zM639 95c8.66699 -14.667 18.667 -27 30 -37l58 -56v-2h-239l-208 343l209 227c5.33301 6 8 10.5 8 13.5
s-2.66699 8.16699 -8 15.5l-76 102v2h310v-2l-166 -104c-20.667 -12.667 -37.667 -26 -51 -40l-92 -97z" />
    <glyph glyph-name="L" unicode="L" horiz-adv-x="581" 
d="M91 89v525c0 10 -3 18 -9 24l-67 63v2h333v-2l-66 -63c-6.66699 -6 -10 -14 -10 -24v-574c0 -8.66699 1 -14.167 3 -16.5s6.66699 -3.5 14 -3.5h94c13.333 0 23 4.66699 29 14l139 226h2v-260h-538v2l67 63c6 6 9 14 9 24z" />
    <glyph glyph-name="M" unicode="M" horiz-adv-x="889" 
d="M797 89c0 -10 3.33301 -18.001 10 -24.001l66 -63v-2h-333v2l67 63c6 6 9 14 9 24v402c0 20 1 40 3 60l-226 -559h-2l-234 514c-10 20.667 -16.333 35.334 -19 44.001v-382c0 -10 4.33301 -21 13 -33l101 -133v-2h-249v2l101 133c8.66699 12 13 23 13 33v396
c0 12 -3 21.667 -9 29l-82 108v2h239l209 -456l184 456h215v-2l-66 -73c-6.66699 -6.66699 -10 -15 -10 -25v-514z" />
    <glyph glyph-name="N" unicode="N" horiz-adv-x="707" 
d="M607 0h-122l-345 534v-366c0 -10 4 -20.333 12 -31l103 -135v-2h-249v2l100 134c8.66699 11.333 13 22 13 32v378c0 13.333 -3 24 -9 32l-100 123v2h236l340 -528v360c0 11.333 -4 22 -12 32l-102 134v2h249v-2l-101 -134c-8.66699 -12 -13 -22.667 -13 -32v-535z" />
    <glyph glyph-name="O" unicode="O" horiz-adv-x="732" 
d="M366 9c44 0 77.167 27 99.5 81s33.5 141.333 33.5 262s-11.167 207.834 -33.5 261.501s-55.5 80.5 -99.5 80.5s-77.167 -26.833 -99.5 -80.5s-33.5 -140.834 -33.5 -261.501s11.167 -208 33.5 -262s55.5 -81 99.5 -81zM366 713c107.333 0 190.666 -30.833 249.999 -92.5
s89 -151.5 89 -269.5c0 -117.333 -29.667 -206.833 -89 -268.5s-142.666 -92.5 -249.999 -92.5s-190.666 30.833 -249.999 92.5s-89 151.167 -89 268.5c0 118 29.667 207.833 89 269.5s142.666 92.5 249.999 92.5z" />
    <glyph glyph-name="P" unicode="P" horiz-adv-x="651" 
d="M337 261h-65v-165c0 -10.667 3.66699 -19 11 -25l94 -69v-2h-362v2l67 63c6 6 9 14 9 24v525c0 10 -3 18 -9 24l-67 63v2h347c37.333 0 71.5 -3.66699 102.5 -11s59.833 -18.833 86.5 -34.5s47.5 -37.667 62.5 -66s22.5 -61.833 22.5 -100.5
c0 -76 -26.833 -133.333 -80.5 -172s-126.5 -58 -218.5 -58zM272 664v-383h46c40 0 71.5 18.333 94.5 55s34.5 86.667 34.5 150c0 60 -10.5 107.833 -31.5 143.5s-50.167 53.5 -87.5 53.5h-38c-8 0 -13 -1.16699 -15 -3.5s-3 -7.5 -3 -15.5z" />
    <glyph glyph-name="Q" unicode="Q" horiz-adv-x="732" 
d="M534 -236c-40 0 -87.667 8.33301 -143 25l-201 60c-30 9.33301 -54.667 14 -74 14c-17.333 0 -28.666 -0.333008 -33.999 -1l-1 2l159 143c-68.667 20.667 -121.334 60.167 -158.001 118.5s-55 133.5 -55 225.5c0 118 29.667 207.833 89 269.5s142.666 92.5 249.999 92.5
s190.666 -30.833 249.999 -92.5s89 -151.5 89 -269.5c0 -117.333 -29.667 -206.833 -89 -268.5s-142.666 -92.5 -249.999 -92.5c-38 0 -73 4 -105 12l-35 -31l224 -60c48.667 -13.333 93.334 -20 134.001 -20c35.333 0 69.666 8.33301 102.999 25l44 22l2 -1l-45 -80
c-35.333 -62 -86.666 -93 -153.999 -93zM366 9c44 0 77.167 27 99.5 81s33.5 141.333 33.5 262s-11.167 207.834 -33.5 261.501s-55.5 80.5 -99.5 80.5s-77.167 -26.833 -99.5 -80.5s-33.5 -140.834 -33.5 -261.501s11.167 -208 33.5 -262s55.5 -81 99.5 -81z" />
    <glyph glyph-name="R" unicode="R" horiz-adv-x="696" 
d="M324 328l-52.001 -0.000976562v-240c0 -10 3.33301 -18 10 -24l67 -62v-2h-334v2l67 63c6 6 9 14 9 24v525c0 10 -3 18 -9 24l-67 63v2h386c67.333 0 122.833 -14.667 166.5 -44s65.5 -74.666 65.5 -135.999c0 -53.333 -19.167 -95.833 -57.5 -127.5
s-92.166 -50.167 -161.499 -55.5v-2l129 -38l91 -216c4.66699 -12 13.667 -24.667 27 -38l43 -44v-2h-234l-124 316c-4 8 -11.333 12 -22 12zM271.999 663.999v-316h52c77.333 0 116 54.667 116 164c0 114 -37.333 171 -112 171h-38c-8 0 -13 -1.16699 -15 -3.5
s-3 -7.5 -3 -15.5z" />
    <glyph glyph-name="S" unicode="S" horiz-adv-x="566" 
d="M544 218c0 -68 -25.6631 -123.003 -76.9961 -165.003s-119 -63 -203 -63c-72.667 0 -141 9.33301 -205 28v239h2l132 -228c6 -10.667 13.333 -16.667 22 -18c10 -1.33301 24 -2 42 -2c41.333 0 74.333 10 99 30s37 48.333 37 85c0 31.333 -10.333 56.5 -31 75.5
s-56.334 40.5 -107.001 64.5l-31 15c-26.667 12.667 -49.334 24.834 -68.001 36.501s-37.834 26.334 -57.501 44.001s-34.667 38.667 -45 63s-15.5 51.5 -15.5 81.5c0 63.333 23.667 114 71 152s110.333 57 189 57c64.667 0 128.667 -7.66699 192 -23v-228h-2l-135 216
c-5.33301 8 -12 12.667 -20 14c-7.33301 1.33301 -17 2 -29 2c-36 0 -64.833 -9.66699 -86.5 -29s-32.5 -46.333 -32.5 -81c0 -29.333 9.83301 -53 29.5 -71s52.167 -38 97.5 -60l37 -18c26 -12.667 46.667 -23.167 62 -31.5s32.5 -19.333 51.5 -33s33.667 -27.167 44 -40.5
s19.166 -29.666 26.499 -48.999s11 -40.333 11 -63z" />
    <glyph glyph-name="T" unicode="T" horiz-adv-x="634" 
d="M407 96c0 -10.667 3.66699 -19.333 11 -26l74 -68v-2h-350v2l74 68c7.33301 7.33301 11 16 11 26v587h-57c-8 0 -13.5 -0.833008 -16.5 -2.5s-6.16699 -6.16699 -9.5 -13.5l-123 -234h-2v270h596v-270h-2l-123 234c-3.33301 7.33301 -6.5 11.833 -9.5 13.5
s-8.5 2.5 -16.5 2.5h-57v-587z" />
    <glyph glyph-name="U" unicode="U" horiz-adv-x="673" 
d="M349 -10c-95.333 0 -164.501 19.1689 -207.501 57.502s-64.5 102.166 -64.5 191.499v374c0 10 -3.33301 18 -10 24l-60 64v2h323v-2l-62 -64c-6.66699 -6 -10 -14 -10 -24v-363c0 -78.667 12.833 -135.334 38.5 -170.001s63.834 -52 114.501 -52c48 0 85.333 19 112 57
s40 94.333 40 169v281c0 12 -4.33301 23 -13 33l-98 133v2h243v-2l-98 -133c-8.66699 -10 -13 -21 -13 -33v-279c0 -86.667 -18.333 -152.667 -55 -198s-96.667 -68 -180 -68z" />
    <glyph glyph-name="V" unicode="V" horiz-adv-x="631" 
d="M241 634c-5.33301 -8 -6.33105 -16.668 -2.99805 -26.001l158 -497l132 425c2 8.66699 2.66699 14.667 2 18s-4 9.33301 -10 18l-89 129v2h236v-2l-95 -127c-10.667 -14 -18.334 -28.333 -23.001 -43l-165 -531h-140l-190 593
c-4.66699 14.667 -11.334 28.334 -20.001 41.001l-42 67v2h297v-2z" />
    <glyph glyph-name="W" unicode="W" horiz-adv-x="1016" 
d="M629 0l-122.999 399.999l-127 -400h-140l-185 593c-3.33301 11.333 -10 25 -20 41l-42 67v2h296v-2l-48 -67c-4.66699 -6.66699 -5.33398 -15.334 -2.00098 -26.001l153 -496l104 325l-48 156c-4 12.667 -9.66699 25.334 -17 38.001l-39 70v2h291v-2l-48 -67
c-5.33301 -8 -6.33301 -16.667 -3 -26l150 -495l131 423c4 12.667 1.66699 24.667 -7 36l-90 129v2h237v-2l-95 -127c-12 -15.333 -20 -29.666 -24 -42.999l-164 -531h-140z" />
    <glyph glyph-name="X" unicode="X" horiz-adv-x="710" 
d="M621 110c4.66699 -6.66699 14.666 -18.6689 29.999 -36.002l65 -72v-2h-340v2l47 61c6.66699 8.66699 7 17.334 1 26.001l-123 191l-97 -131c-5.33301 -7.33301 -8.33301 -12.833 -9 -16.5s1 -8.5 5 -14.5l73 -116v-2h-276v2l140 110
c22.667 18.667 40.334 36.334 53.001 53.001l99 133l-189 295c-8 12 -18 24 -30 36l-65 72v2h340v-2l-47 -61c-6.66699 -7.33301 -7 -16 -1 -26l112 -175l86 115c6 7.33301 9.16699 12.833 9.5 16.5s-1.5 8.5 -5.5 14.5l-74 116v2h277v-2l-140 -110
c-22.667 -18 -40.667 -35.667 -54 -53l-87 -117z" />
    <glyph glyph-name="Y" unicode="Y" horiz-adv-x="640" 
d="M415 267v-170.999c0 -10.667 3.66699 -19.334 11 -26.001l73 -68v-2h-349v2l74 68c6.66699 6.66699 10 15.334 10 26.001v154c0 10 -2 18.333 -6 25l-165 316c-8.66699 16.667 -17.667 31 -27 43l-50 67v2h336v-2l-60 -69c-6.66699 -8 -8 -16 -4 -24l146 -294l115 235
c3.33301 8 4.83301 13.5 4.5 16.5s-2.83301 7.83301 -7.5 14.5l-86 121v2h250v-2l-113 -121c-10.667 -10.667 -19.667 -23 -27 -37l-117 -238c-5.33301 -10.667 -8 -23.334 -8 -38.001z" />
    <glyph glyph-name="Z" unicode="Z" horiz-adv-x="627" 
d="M582 0h-571v2l396 681h-183c-8.66699 0 -14.667 -0.666992 -18 -2s-6.33301 -4.66602 -9 -9.99902l-143 -236h-2v268h560v-2l-397 -681h193c8.66699 0 14.667 0.666992 18 2s6.33301 4.66602 9 9.99902l145 235h2v-267z" />
    <glyph glyph-name="bracketleft" unicode="[" horiz-adv-x="364" 
d="M188 641v-697c0 -6 0.666992 -10 2 -12s4.66602 -3.66699 9.99902 -5l154 -53v-2l-274 -12v865l274 -12v-2l-154 -53c-5.33301 -1.33301 -8.66602 -3 -9.99902 -5s-2 -6 -2 -12z" />
    <glyph glyph-name="backslash" unicode="\" horiz-adv-x="380" 
d="M329 -154l-297 886l19 6l297 -886z" />
    <glyph glyph-name="bracketright" unicode="]" horiz-adv-x="364" 
d="M177 -56v697c0 6 -0.666992 10 -2 12s-4.66602 3.66699 -9.99902 5l-155 53v2l274 12v-865l-274 12v2l155 53c5.33301 1.33301 8.66602 3 9.99902 5s2 6 2 12z" />
    <glyph glyph-name="asciicircum" unicode="^" horiz-adv-x="540" 
d="M449 323l-18 -9l-162 354l-162 -354l-18 9l179 390h2z" />
    <glyph glyph-name="underscore" unicode="_" horiz-adv-x="500" 
d="M495 -91h-490v19h490v-19z" />
    <glyph glyph-name="grave" unicode="`" horiz-adv-x="339" 
d="M50 703h160l79 -165l-1 -1l-238 164v2z" />
    <glyph glyph-name="a" unicode="a" 
d="M456 301c0 -4 -0.168945 -10.833 -0.501953 -20.5s-0.5 -14.834 -0.5 -15.501l-6 -142c-2 -38.667 7 -58 27 -58c12.667 0 22 6 28 18h2c0 -13.333 -2.66699 -25.333 -8 -36c-18 -36.667 -50.667 -55 -98 -55c-30 0 -55.333 8.5 -76 25.5s-31.667 40.833 -33 71.5
c-10 -29.333 -27.167 -52.833 -51.5 -70.5s-52.5 -26.5 -84.5 -26.5c-38.667 0 -71 12.5 -97 37.5s-39 59.5 -39 103.5c0 46.667 16.833 83.5 50.5 110.5s72.834 40.5 117.501 40.5c45.333 0 80.666 -9 105.999 -27l2 107v5c0 76.667 -24.333 115 -73 115
c-10 0 -16.167 -0.666992 -18.5 -2s-5.16602 -4.66602 -8.49902 -9.99902l-81 -150h-2l-63 143c70.667 25.333 138 38 202 38c70.667 0 122.334 -15.333 155.001 -46c33.333 -31.333 50 -83.333 50 -156zM255.998 253c-25.333 0 -45.167 -9.66699 -59.5 -29
s-21.5 -44 -21.5 -74c0 -26.667 5.5 -47.5 16.5 -62.5s25.167 -22.5 42.5 -22.5c22.667 0 41.667 11.667 57 35v1l2 146c-12 4 -24.333 6 -37 6z" />
    <glyph glyph-name="b" unicode="b" horiz-adv-x="580" 
d="M213 729l-0.000976562 -336c33.333 73.333 85.333 110 156 110c57.333 0 103 -22.833 137 -68.5s51 -106.5 51 -182.5c0 -76.667 -20.667 -139.167 -62 -187.5s-95.333 -72.5 -162 -72.5c-55.333 0 -96.666 18 -123.999 54l-158 -54h-2v638c0 10.667 -3 19 -9 25l-48 46
v2zM287.999 423c-29.333 0 -54.333 -14.333 -75 -43v-323c14.667 -14.667 34 -22 58 -22c75.333 0 113 70.667 113 212c0 117.333 -32 176 -96 176z" />
    <glyph glyph-name="c" unicode="c" horiz-adv-x="471" 
d="M253 -8c-64.667 0 -119.666 21.6689 -164.999 65.002s-68 105 -68 185c0 46 7.66699 86.5 23 121.5s36 62.333 62 82s54.167 34.167 84.5 43.5s62.5 14 96.5 14c53.333 0 110 -10 170 -30l-64 -172h-2l-77 171c-2 5.33301 -4 8.66602 -6 9.99902s-6 2 -12 2h-5
c-63.333 0 -95 -64.667 -95 -194c0 -70.667 12.833 -122.334 38.5 -155.001s57.834 -49 96.501 -49c53.333 0 94.333 27.333 123 82h2c-8.66699 -55.333 -30.334 -98.5 -65.001 -129.5s-80.334 -46.5 -137.001 -46.5z" />
    <glyph glyph-name="d" unicode="d" horiz-adv-x="597" 
d="M530 729v-654c0 -10.667 3 -18.667 9 -24l50 -49v-2h-222v94c-29.333 -68 -78.333 -102 -147 -102c-58.667 0 -106.167 22.333 -142.5 67s-54.5 107 -54.5 187c0 76.667 20.167 138.667 60.5 186s91.833 71 154.5 71c62 0 105 -26.667 129 -80v207
c0 10.667 -3.33301 19 -10 25l-48 46v2zM297 67c27.333 0 50.667 12.667 70 38v309c-16 20.667 -37.667 31 -65 31c-30.667 0 -56 -15.5 -76 -46.5s-30 -80.167 -30 -147.5c0 -64 9.16699 -110.667 27.5 -140s42.833 -44 73.5 -44z" />
    <glyph glyph-name="e" unicode="e" 
d="M490 270l-300.003 -0.00390625v-2c0 -61.333 13.333 -107.166 40 -137.499s61 -45.5 103 -45.5c70.667 0 121.334 30.667 152.001 92h2c-25.333 -123.333 -99 -185 -221 -185c-68.667 0 -126.667 21.333 -174 64s-71 105.334 -71 188.001c0 87.333 23.667 152.333 71 195
s107.333 64 180 64c28 0 54.333 -3.66699 79 -11s47.834 -18.666 69.501 -33.999s38.834 -37.166 51.501 -65.499s19 -61.833 19 -100.5c0 -6.66699 -0.333008 -14 -1 -22zM269.997 483.996c-26 0 -45.667 -15.167 -59 -45.5s-20.333 -80.5 -21 -150.5h147
c0.666992 8.66699 1 18.667 1 30c0 62 -5.83301 105.167 -17.5 129.5s-28.5 36.5 -50.5 36.5z" />
    <glyph glyph-name="f" unicode="f" horiz-adv-x="343" 
d="M362 475l-122.001 0.00195312v-397c0 -6.66699 0.833008 -11.334 2.5 -14.001s5.83398 -6.33398 12.501 -11.001l74 -51v-2h-310v2l49 46c6 6 9 14 9 24v403h-53v20h53c0 76.667 16.333 132.167 49 166.5s80.667 51.5 144 51.5c52 0 104.667 -7.33301 158 -22l-63 -150
h-2l-70 141c-2.66699 6 -5 9.66699 -7 11s-5.33301 2 -10 2c-24 0 -36 -31 -36 -93v-107h122v-20z" />
    <glyph glyph-name="g" unicode="g" horiz-adv-x="525" 
d="M34 337c0 54.667 19.6641 96.0059 58.9971 124.006s91.333 42 156 42c56.667 0 102.334 -9.33301 137.001 -28c7.33301 -4 14.333 -2.33301 21 5l104 110l2 -1v-150h-94c34 -27.333 51 -63.333 51 -108c0 -52.667 -19.833 -91.834 -59.5 -117.501
s-92.5 -38.5 -158.5 -38.5c-32 0 -59 2.66699 -81 8c-20.667 -8 -31 -20.333 -31 -37c0 -29.333 34 -44 102 -44h93c119.333 0 179 -44.333 179 -133c0 -60.667 -26.667 -110 -80 -148s-120.666 -57 -201.999 -57c-54.667 0 -102.5 8.83301 -143.5 26.5
s-61.5 42.5 -61.5 74.5c0 21.333 9.5 40.166 28.5 56.499s48.167 27.5 87.5 33.5c-34.667 7.33301 -61.5 20.666 -80.5 39.999s-28.5 42.333 -28.5 69c0 29.333 11.333 54.666 34 75.999s53.334 36.666 92.001 45.999c-84 21.333 -126 71.666 -126 150.999z
M186.997 -49.9941c-15.333 1.33301 -27.001 2.66504 -35.001 3.99805c-26.667 -16 -40 -37.333 -40 -64c0 -32 15.333 -57.5 46 -76.5s66.667 -28.5 108 -28.5c40 0 74.5 8.33301 103.5 25s43.5 40.334 43.5 71.001c0 20.667 -7.16699 36.334 -21.5 47.001
s-39.166 16.667 -74.499 18zM187.996 340.005c0 -53.333 5.33301 -91.333 16 -114s26.667 -34 48 -34s37.333 11.167 48 33.5s16 60.166 16 113.499c0 52.667 -5.16699 90.334 -15.5 113.001s-26.5 34 -48.5 34s-38.167 -11.167 -48.5 -33.5s-15.5 -59.833 -15.5 -112.5z
" />
    <glyph glyph-name="h" unicode="h" horiz-adv-x="603" 
d="M545 292c0 -24 -0.500977 -63.834 -1.50098 -119.501s-1.5 -89.167 -1.5 -100.5c0 -10 3.33301 -18 10 -24l49 -46v-2h-280v2l47 46c6.66699 6 10 13.667 10 23c0 2 0.5 30.833 1.5 86.5s1.5 92.834 1.5 111.501c0 50 -5.5 87.667 -16.5 113s-30.833 38 -59.5 38
c-29.333 0 -54.333 -15 -75 -45v-303c0 -10 3.33301 -18 10 -24l49 -46v-2h-280v2l49 46c6 6 9 14 9 24v558c0 10.667 -3 19 -9 25l-49 46v2l221 26v-343c27.333 78 80.333 117 159 117c50.667 0 89.334 -18 116.001 -54s40 -88.333 40 -157z" />
    <glyph glyph-name="i" unicode="i" horiz-adv-x="310" 
d="M157 550c-22 0 -40.833 6.83301 -56.5 20.5s-23.5 31.5 -23.5 53.5c0 23.333 7.83301 42.166 23.5 56.499s34.5 21.5 56.5 21.5c23.333 0 42.666 -7.16699 57.999 -21.5s23 -33.166 23 -56.499c0 -22 -7.66699 -39.833 -23 -53.5s-34.666 -20.5 -57.999 -20.5zM20 495
h222v-423c0 -10.667 3 -18.667 9 -24l49 -46v-2h-280v2l49 46c6 5.33301 9 13.333 9 24v346c0 10 -3 18.333 -9 25l-49 50v2z" />
    <glyph glyph-name="j" unicode="j" horiz-adv-x="289" 
d="M237 37c0 -84 -21.667 -148.831 -65 -194.498s-105 -68.834 -185 -69.501c-6.66699 0 -11.667 0.333008 -15 1v2c67.333 13.333 101 81.666 101 204.999v437c0 10 -3 18.333 -9 25l-49 50v2h222v-458zM71 624.002c0 23.333 8 42.166 24 56.499s35 21.5 57 21.5
c23.333 0 42.666 -7.16699 57.999 -21.5s23 -33.166 23 -56.499c0 -22 -7.66699 -39.833 -23 -53.5s-34.666 -20.5 -57.999 -20.5c-22 0 -41 6.83301 -57 20.5s-24 31.5 -24 53.5z" />
    <glyph glyph-name="k" unicode="k" horiz-adv-x="571" 
d="M383 336l134.001 -264.001c6 -11.333 13.667 -21.666 23 -30.999l42 -39v-2h-212l-111 236c-3.33301 8 -9.33301 12 -18 12c-4 0 -7.66699 -1.33301 -11 -4v-172c0 -10 3.33301 -18 10 -24l49 -46v-2h-280v2l49 46c6 6 9 14 9 24v558c0 10.667 -3 19 -9 25l-49 46v2
l221 26v-474l162 121c7.33301 5.33301 8 12 2 20l-68 97v2h245v-2l-183 -139c-6.66699 -4.66699 -8.33398 -10.667 -5.00098 -18z" />
    <glyph glyph-name="l" unicode="l" horiz-adv-x="298" 
d="M230 729v-657c0 -10 3.33301 -18 10 -24l49 -46v-2h-280v2l49 46c6 6 9 14 9 24v558c0 10.667 -3 19 -9 25l-49 46v2z" />
    <glyph glyph-name="m" unicode="m" horiz-adv-x="926" 
d="M868 292c0 -26 -0.499023 -66.3359 -1.49902 -121.003s-1.5 -87.667 -1.5 -99c0 -10 3.33301 -18 10 -24l49 -46v-2h-280v2l47 46c6.66699 6.66699 10 14.334 10 23.001c0 2.66699 0.5 31.667 1.5 87s1.5 92.333 1.5 111c0 50 -5.5 87.667 -16.5 113s-31.167 38 -60.5 38
c-30.667 0 -57 -14.333 -79 -43c6 -25.333 9 -53.666 9 -84.999c0 -24 -0.5 -63.833 -1.5 -119.5s-1.5 -89.167 -1.5 -100.5c0 -10 3 -18 9 -24l50 -46v-2h-281v2l48 46c6 6 9 13.667 9 23c0 2 0.5 30.833 1.5 86.5s1.5 92.834 1.5 111.501c0 50 -5.33301 87.667 -16 113
s-30.667 38 -60 38s-54 -14.667 -74 -44v-304c0 -10.667 3 -18.667 9 -24l49 -46v-2h-280v2l49 46c6 5.33301 9 13.333 9 24v346c0 10 -3 18.333 -9 25l-49 50v2h222v-106c27.333 76 80.333 114 159 114c75.333 0 123.666 -39.333 144.999 -118c12 34.667 32.667 63 62 85
s64.333 33 105 33c50 0 88.333 -18 115 -54s40 -88.333 40 -157z" />
    <glyph glyph-name="n" unicode="n" horiz-adv-x="615" 
d="M557 292c0 -24 -0.5 -63.834 -1.5 -119.501s-1.5 -89.167 -1.5 -100.5c0 -10 3 -18 9 -24l50 -46v-2h-281v2l48 46c6 6 9 13.667 9 23c0 2 0.5 30.833 1.5 86.5s1.5 92.834 1.5 111.501c0 50 -5.33301 87.667 -16 113s-30.667 38 -60 38s-54 -14.667 -74 -44v-304
c0 -10.667 3 -18.667 9 -24l49 -46v-2h-280v2l49 46c6 5.33301 9 13.333 9 24v346c0 10 -3 18.333 -9 25l-49 50v2h222v-106c27.333 76 80.333 114 159 114c50 0 88.5 -18 115.5 -54s40.5 -88.333 40.5 -157z" />
    <glyph glyph-name="o" unicode="o" horiz-adv-x="571" 
d="M285 484c-27.333 0 -47.666 -16.5 -60.999 -49.5s-20 -95.167 -20 -186.5c0 -90.667 6.66699 -153 20 -187s33.666 -51 60.999 -51s47.666 16.667 60.999 50s20 95.666 20 186.999c0 90.667 -6.66699 152.834 -20 186.501s-33.666 50.5 -60.999 50.5zM285 -8
c-81.333 0 -145.498 21.833 -192.498 65.5s-70.5 107.167 -70.5 190.5c0 82 23.667 145 71 189s111.333 66 192 66c81.333 0 145.666 -21.833 192.999 -65.5s71 -107.167 71 -190.5c0 -82 -23.833 -145 -71.5 -189s-111.834 -66 -192.501 -66z" />
    <glyph glyph-name="p" unicode="p" horiz-adv-x="596" 
d="M66 -156l-0.00195312 574.002c0 10 -3 18.333 -9 25l-49 50v2h221v-106c32.667 76 84.334 114 155.001 114c56 0 101.5 -22.167 136.5 -66.5s52.5 -103.833 52.5 -178.5c0 -79.333 -20 -143.5 -60 -192.5s-90.667 -73.5 -152 -73.5c-68.667 0 -112.667 25.333 -132 76
v-218c0 -6.66699 0.833008 -11.334 2.5 -14.001s5.83398 -6.33398 12.501 -11.001l74 -51v-2h-310v2l49 46c6 6 9 14 9 24zM303.998 423.002c-29.333 0 -54.333 -15.667 -75 -47v-301c15.333 -16.667 37 -25 65 -25c28.667 0 53.5 16.5 74.5 49.5s31.5 83.167 31.5 150.5
c0 115.333 -32 173 -96 173z" />
    <glyph glyph-name="q" unicode="q" horiz-adv-x="580" 
d="M367 -150v249.998c-30.667 -72 -81.667 -108 -153 -108c-52.667 0 -97.667 23 -135 69s-56 107 -56 183c0 80 20.667 143.167 62 189.5s92.666 69.5 153.999 69.5c56 0 99 -20.333 129 -61l162 61v-659c0 -10 3 -18 9 -24l46 -46v-2h-307v2l74 51
c6.66699 4.66699 10.834 8.33398 12.501 11.001s2.5 7.33398 2.5 14.001zM297 70.998c25.333 0 48.667 13.667 70 41v320c-20 14 -40.333 21 -61 21c-30.667 0 -56.667 -15.667 -78 -47s-32 -82.333 -32 -153c0 -59.333 8.83301 -104.5 26.5 -135.5s42.5 -46.5 74.5 -46.5z
" />
    <glyph glyph-name="r" unicode="r" horiz-adv-x="428" 
d="M439 470l-55.001 -157.001h-2l-79 94c-6 7.33301 -12 9 -18 5c-12.667 -9.33301 -27 -28.666 -43 -57.999v-270c0 -10 5 -18.333 15 -25l98 -57v-2h-335v2l49 46c6 5.33301 9 13.333 9 24v346c0 10 -3 18.333 -9 25l-49 50v2h222v-128c9.33301 39.333 25 71.833 47 97.5
s49.333 38.5 82 38.5c28.667 0 51.334 -11 68.001 -33z" />
    <glyph glyph-name="s" unicode="s" horiz-adv-x="456" 
d="M298 83c0 19.333 -6.83398 34.6689 -20.501 46.002s-38.834 25.333 -75.501 42l-68 32c-64.667 30.667 -97 78 -97 142c0 48 18.333 86.333 55 115s86.667 43 150 43c58.667 0 117.334 -9 176.001 -27l-56 -145h-2l-78 139c-6 10 -13.667 15 -23 15h-14
c-23.333 0 -42.666 -6 -57.999 -18s-23 -29.333 -23 -52c0 -20.667 7.16699 -37.334 21.5 -50.001s37.833 -26.334 70.5 -41.001l64 -28c36 -15.333 63.5 -33.333 82.5 -54s28.5 -48.667 28.5 -84c0 -52.667 -20.333 -93.5 -61 -122.5s-95 -43.5 -163 -43.5
c-64 0 -125.333 10.333 -184 31l55 155h2l80 -155c4 -8.66699 11 -13 21 -13h23c28.667 0 51.5 6.66699 68.5 20s25.5 31 25.5 53z" />
    <glyph glyph-name="t" unicode="t" horiz-adv-x="338" 
d="M346 495l0.000976562 -20h-123v-334c0 -22.667 4.66699 -40.167 14 -52.5s22.333 -18.5 39 -18.5c25.333 0 44.666 12.333 57.999 37l2 -1c-6 -32 -20.833 -59 -44.5 -81s-57.5 -33 -101.5 -33c-86.667 0 -130 45.667 -130 137v346h-55v20h45c14 0 24.333 3.66699 31 11
l140 157h2v-168h123z" />
    <glyph glyph-name="u" unicode="u" horiz-adv-x="595" 
d="M527 495l0.000976562 -419.001c0 -11.333 3 -19.666 9 -24.999l50 -49v-2h-223v107c-12.667 -35.333 -32.334 -63.333 -59.001 -84s-58 -31 -94 -31c-49.333 0 -87 17.667 -113 53s-39 87 -39 155c0 38 0.666992 111 2 219c0 10 -3 18 -9 24l-49 50v2h221l-1 -132v-140
c0 -48.667 5 -85.667 15 -111s28 -38 54 -38c27.333 0 51.333 15 72 45v299c0 10 -3 18.333 -9 25l-49 50v2h222z" />
    <glyph glyph-name="v" unicode="v" horiz-adv-x="471" 
d="M400 331l-112 -331h-114l-131 380c-8.66699 24 -15.667 41.667 -21 53l-31 60v2h250v-2l-34 -57c-4.66699 -8 -5.66699 -16.333 -3 -25l100 -302l77 225c4.66699 12 3.66699 24.667 -3 38l-59 121v2h172v-2l-68 -117c-12 -20 -19.667 -35 -23 -45z" />
    <glyph glyph-name="w" unicode="w" horiz-adv-x="773" 
d="M793 493l-68 -117c-10.667 -17.333 -18 -32.333 -22 -45l-114 -331h-112l-96 278l-96 -278h-113l-129 380c-9.33301 26 -16.333 43.667 -21 53l-31 60v2h249v-2l-34 -57c-4.66699 -8 -5.66699 -16.333 -3 -25l99 -303l69 200l-24 72c-7.33301 22 -14.333 39.667 -21 53
l-31 60v2h249v-2l-34 -57c-4.66699 -8 -5.66699 -16.333 -3 -25l100 -302l76 225c3.33301 10 4.83301 16.667 4.5 20s-2.83301 9.33301 -7.5 18l-58 121v2h171v-2z" />
    <glyph glyph-name="x" unicode="x" horiz-adv-x="505" 
d="M308 297l144 -215.001c4.66699 -6.66699 14 -18.334 28 -35.001l39 -45v-2h-273v2l38 46c5.33301 6.66699 5 15 -1 25l-77 114l-62 -77c-5.33301 -7.33301 -8.33301 -12.333 -9 -15s1.33301 -7.66699 6 -15l51 -78v-2h-201v2l106 89c15.333 12.667 29.333 27 42 43l56 69
l-139 208c-8.66699 12.667 -18.667 25.334 -30 38.001l-37 44v2h272v-2l-38 -47c-6 -6.66699 -5.66699 -14.667 1 -24l73 -109l57 72c5.33301 7.33301 8.33301 12.333 9 15s-1.33301 7.33398 -6 14.001l-51 79v2h202v-2l-107 -89c-12.667 -10.667 -26.667 -25 -42 -43z" />
    <glyph glyph-name="y" unicode="y" horiz-adv-x="476" 
d="M408 329l-127.998 -310.001c-26 -62 -54.667 -117.333 -86 -166c-20.667 -32 -41.5 -54.833 -62.5 -68.5s-46.5 -20.5 -76.5 -20.5c-16 0 -31.667 3.33301 -47 10l37 175h2l99 -98c5.33301 -5.33301 9.33301 -8 12 -8c4.66699 0 9.66699 4 15 12
c13.333 18.667 26 41.667 38 69l6 16l-186 472c-3.33301 8.66699 -8.33301 19.667 -15 33l-27 48v2h259v-2l-40 -55c-4.66699 -6.66699 -5.33398 -14.334 -2.00098 -23.001l101 -280l81 197c3.33301 8.66699 5.16602 14.834 5.49902 18.501s-1.5 9.83398 -5.5 18.501
l-61 124v2h171v-2l-65 -112c-8.66699 -14 -17 -31.333 -25 -52z" />
    <glyph glyph-name="z" unicode="z" horiz-adv-x="475" 
d="M446 217h3l-12 -217h-424v2l267 474h-90c-8.66699 0 -14.334 -0.666992 -17.001 -2s-6.33398 -5.66602 -11.001 -12.999l-120 -175h-4v209h421v-2l-259 -474h95c8.66699 0 14.334 0.666992 17.001 2s6.33398 5.66602 11.001 12.999z" />
    <glyph glyph-name="braceleft" unicode="{" horiz-adv-x="353" 
d="M228 403c2 -28 -6 -51.668 -24 -71.001s-43.333 -32.333 -76 -39v-1c32.667 -6.66699 58 -19.5 76 -38.5s26 -42.5 24 -70.5l-13 -175c-2.66699 -36 6.5 -68.667 27.5 -98s54.5 -43.666 100.5 -42.999v-2c-23.333 -4.66699 -44.666 -7 -63.999 -7
c-50.667 0 -94.167 15.167 -130.5 45.5s-52.5 73.833 -48.5 130.5l14 182c1.33301 19.333 -5.5 36 -20.5 50s-34.5 22.667 -58.5 26v1c24 3.33301 43.5 12 58.5 26s21.833 30.667 20.5 50l-14 182c-4 56.667 12.167 100.167 48.5 130.5s79.833 45.5 130.5 45.5
c19.333 0 40.666 -2.33301 63.999 -7v-2c-46 1.33301 -79.5 -12.667 -100.5 -42s-30.167 -62 -27.5 -98z" />
    <glyph glyph-name="bar" unicode="|" horiz-adv-x="220" 
d="M120 -250h-20v1000h20v-1000z" />
    <glyph glyph-name="braceright" unicode="}" horiz-adv-x="353" 
d="M252 551l-13 -182c-0.666992 -19.333 6.33301 -36 21 -50s34 -22.667 58 -26v-1c-24 -3.33301 -43.5 -12 -58.5 -26s-21.833 -30.667 -20.5 -50l13 -182c4 -56.667 -12 -100.167 -48 -130.5s-79.333 -45.5 -130 -45.5c-19.333 0 -40.666 2.33301 -63.999 7v2
c46 -0.666992 79.5 13.666 100.5 42.999s30.167 62 27.5 98l-14 175c-2.66699 28 5.16602 51.5 23.499 70.5s44.166 31.833 77.499 38.5v1c-33.333 6.66699 -59.166 19.667 -77.499 39s-26.166 43 -23.499 71l14 175c2.66699 35.333 -6.5 67.833 -27.5 97.5
s-54.5 43.834 -100.5 42.501v2c23.333 4.66699 44.666 7 63.999 7c50.667 0 94 -15.167 130 -45.5s52 -73.833 48 -130.5z" />
    <glyph glyph-name="asciitilde" unicode="~" horiz-adv-x="503" 
d="M365 276c-30.667 0 -69.5 11 -116.5 33s-83.833 33 -110.5 33c-40.667 0 -73 -19.333 -97 -58l-16 10c26.667 44.667 64.334 67 113.001 67c30.667 0 69.5 -11 116.5 -33s83.833 -33 110.5 -33c40 0 72 19.667 96 59l17 -11c-26.667 -44.667 -64.334 -67 -113.001 -67z
" />
    <glyph glyph-name="uni00A0" unicode="&#xa0;" horiz-adv-x="197" 
 />
    <glyph glyph-name="exclamdown" unicode="&#xa1;" horiz-adv-x="310" 
d="M37 -209l116 484h2l118 -484h-236zM74 426c0 22 7.83301 40.167 23.5 54.5s34.5 21.5 56.5 21.5c22.667 0 41.834 -7.16699 57.501 -21.5s23.5 -32.5 23.5 -54.5c0 -23.333 -7.83301 -42.333 -23.5 -57s-34.834 -22 -57.501 -22c-22 0 -40.833 7.5 -56.5 22.5
s-23.5 33.833 -23.5 56.5z" />
    <glyph glyph-name="cent" unicode="&#xa2;" horiz-adv-x="485" 
d="M291 -105l-19 -0.00292969v98c-6 -0.666992 -12.333 -1 -19 -1c-66 0 -121.167 21.5 -165.5 64.5s-66.5 104.833 -66.5 185.5c0 86.667 24.167 151.334 72.5 194.001s107.833 65 178.5 67v102h19v-102c56 -1.33301 112.333 -10.666 169 -27.999v-2l-67 -173h-2l-79 173
c-2.66699 6.66699 -9.66699 10.334 -21 11.001v-392c12.667 -4 26 -6 40 -6c56.667 0 98.334 27.333 125.001 82h2c-7.33301 -48 -25.333 -87.167 -54 -117.5s-66.334 -48.833 -113.001 -55.5v-100zM176 288.997c0 -98 31.999 -161.332 95.999 -189.999v384
c-27.333 -5.33301 -50.166 -24.833 -68.499 -58.5s-27.5 -78.834 -27.5 -135.501z" />
    <glyph glyph-name="sterling" unicode="&#xa3;" horiz-adv-x="597" 
d="M444 315l-0.00195312 -19.001h-163c0.666992 -3.33301 1 -8 1 -14c0 -43.333 -9.66699 -75.5 -29 -96.5s-45.666 -36.5 -78.999 -46.5v-2h257c20 0 33.333 1.16699 40 3.5s14.667 8.83301 24 19.5l62 67h2l-29 -227h-500v2l96 116c30.667 36 46 72.667 46 110
c0 16 -6.66699 38.667 -20 68h-101v19h91l-19.5 35l-22.5 41.5c-4.66699 9 -10.334 21.5 -17.001 37.5s-11.5 31 -14.5 45s-4.5 28.333 -4.5 43c0 62 20.667 110.167 62 144.5s101.333 51.5 180 51.5s151.334 -7.33301 218.001 -22l-18 -218h-2l-128 204
c-5.33301 8.66699 -12.666 13.334 -21.999 14.001c-1.33301 0 -4.33301 0.166992 -9 0.5s-8.33398 0.5 -11.001 0.5c-68 0 -102 -48.333 -102 -145c0 -31.333 7.33301 -73.333 22 -126s23.334 -88 26.001 -106h164z" />
    <glyph glyph-name="currency" unicode="&#xa4;" horiz-adv-x="664" 
d="M331 120c-64 0 -117.668 18.667 -161.001 56l-112 -112l-14 14l112 111c-41.333 42.667 -62 97 -62 163c0 64.667 20.667 118.667 62 162l-112 113l13 14l113 -113c44.667 38 98.334 57 161.001 57c63.333 0 117.333 -19.333 162 -58l113 113l13 -13l-113 -113
c42 -43.333 63 -97.333 63 -162c0 -64 -20.667 -117.667 -62 -161l112 -113l-13 -14l-113 113c-44 -38 -98 -57 -162 -57zM330.999 139c62 0 113.833 19.5 155.5 58.5s62.5 90.5 62.5 154.5c0 63.333 -21 114.833 -63 154.5s-93.667 59.5 -155 59.5
s-112.666 -19.667 -153.999 -59s-62 -91 -62 -155s20.667 -115.5 62 -154.5s92.666 -58.5 153.999 -58.5z" />
    <glyph glyph-name="yen" unicode="&#xa5;" horiz-adv-x="652" 
d="M418 160v-64c0 -10.667 3.66699 -19.334 11 -26.001l73 -68v-2h-349v2l74 68c6.66699 6.66699 10 15.334 10 26.001v64h-140v19h140v80h-140v19h132l-163 313c-8.66699 16.667 -17.667 31 -27 43l-50 67v2h336v-2l-60 -69c-6.66699 -8 -8 -16 -4 -24l146 -294l115 235
c3.33301 8 4.83301 13.5 4.5 16.5s-2.83301 7.83301 -7.5 14.5l-86 121v2h250v-2l-113 -121c-12.667 -14 -21.667 -26.333 -27 -37l-117 -238c-5.33301 -10 -8 -19 -8 -27h144v-19h-144v-80h144v-19h-144z" />
    <glyph glyph-name="brokenbar" unicode="&#xa6;" horiz-adv-x="220" 
d="M120 -250h-20v438h20v-438zM120 322h-20v428h20v-428z" />
    <glyph glyph-name="section" unicode="&#xa7;" horiz-adv-x="541" 
d="M500 282c0 -38 -15 -69.8301 -45 -95.4971s-63.333 -41.834 -100 -48.501c71.333 -48.667 107 -104.334 107 -167.001c0 -48 -18.667 -86.167 -56 -114.5s-83.333 -42.5 -138 -42.5c-66.667 0 -123.667 6.33301 -171 19l52 189h2l84 -173c6 -12 16 -18 30 -18h10
c24.667 0 45.167 7.16699 61.5 21.5s24.5 32.166 24.5 53.499s-9.66699 41.5 -29 60.5s-50 41.167 -92 66.5l-42 25c-58 34 -97.667 64.333 -119 91s-32 59 -32 97s15.167 69.667 45.5 95s63.833 41.333 100.5 48c-72 48.667 -108 104.334 -108 167.001
c0 48.667 18.667 87 56 115s83.333 42 138 42c67.333 0 124 -6.33301 170 -19l-52 -188h-2l-83 172c-6 12 -16 18 -30 18h-10c-24.667 0 -45.167 -7 -61.5 -21s-24.5 -31.667 -24.5 -53s9.5 -41.333 28.5 -60s49.833 -41 92.5 -67l41 -25
c58.667 -35.333 98.667 -66.333 120 -93s32 -58.334 32 -95.001zM300 320.003c-52 32 -85.001 53.334 -99.001 64.001c-12 -5.33301 -22.667 -14.333 -32 -27s-14 -27 -14 -43s7.16699 -32.167 21.5 -48.5s37.833 -35.5 70.5 -57.5
c6.66699 -4.66699 23.834 -15.834 51.501 -33.501s43.5 -28.167 47.5 -31.5c12 6 22.667 15.167 32 27.5s14 26.833 14 43.5c0 32 -30.667 67.333 -92 106z" />
    <glyph glyph-name="dieresis" unicode="&#xa8;" horiz-adv-x="436" 
d="M50 621c0 19.333 6.66699 35.333 20 48s29.666 19 48.999 19c18.667 0 34.667 -6.33301 48 -19s20 -28.667 20 -48c0 -18.667 -6.66699 -34.334 -20 -47.001s-29.333 -19 -48 -19c-19.333 0 -35.666 6.33301 -48.999 19s-20 28.334 -20 47.001zM249 621
c0 19.333 6.66699 35.333 20 48s29.333 19 48 19c19.333 0 35.666 -6.33301 48.999 -19s20 -28.667 20 -48c0 -18.667 -6.66699 -34.334 -20 -47.001s-29.666 -19 -48.999 -19c-18.667 0 -34.667 6.33301 -48 19s-20 28.334 -20 47.001z" />
    <glyph glyph-name="copyright" unicode="&#xa9;" horiz-adv-x="813" 
d="M42 351c0 108 35 195.333 105 262s156.333 100 259 100s189.167 -33.5 259.5 -100.5s105.5 -154.167 105.5 -261.5c0 -108 -35 -195.167 -105 -261.5s-156.667 -99.5 -260 -99.5s-189.833 33.167 -259.5 99.5s-104.5 153.5 -104.5 261.5zM62 351
c0 -102 33 -184.5 99 -247.5s147.667 -94.5 245 -94.5s179.166 31.5 245.499 94.5s99.5 145.5 99.5 247.5s-33.167 184.667 -99.5 248s-148.166 95 -245.499 95s-179 -31.667 -245 -95s-99 -146 -99 -248zM346 351c0 -60.667 7.33008 -107.668 21.9971 -141.001
s35.667 -50 63 -50h5c9.33301 0 16.333 3.33301 21 10l90 128h1v-144c-36.667 -7.33301 -78.667 -11 -126 -11c-67.333 0 -118.166 18.5 -152.499 55.5s-51.5 87.833 -51.5 152.5c0 64 17.833 114.833 53.5 152.5s84.834 56.5 147.501 56.5c50.667 0 93.667 -4 129 -12v-139
h-1l-90 125c-5.33301 6 -11.666 9 -18.999 9h-7c-27.333 0 -48.333 -17.167 -63 -51.5s-22 -81.166 -22 -140.499z" />
    <glyph glyph-name="ordfeminine" unicode="&#xaa;" horiz-adv-x="402" 
d="M150 564c32 0 56.334 -5.66602 73.001 -16.999l2 72c1.33301 50 -17.334 75 -56.001 75c-8 0 -13.667 -2.66699 -17 -8l-51 -97h-2l-42 98c46 17.333 91.667 26 137 26c48.667 0 83.667 -10.333 105 -31c24 -22.667 35 -63 33 -121l-4 -107
c-1.33301 -26 5.33398 -39 20.001 -39c6.66699 0 12.334 4.33301 17.001 13h2c1.33301 -8.66699 -0.333984 -17.334 -5.00098 -26.001c-13.333 -24 -35.333 -36 -66 -36c-20 0 -37 5.5 -51 16.5s-22 26.167 -24 45.5c-7.33301 -18.667 -19.333 -33.667 -36 -45
s-35.334 -17 -56.001 -17c-26 0 -47.833 8.33301 -65.5 25s-26.5 40 -26.5 70c0 32 11.333 57.167 34 75.5s49 27.5 79 27.5zM183.001 418.001c14.667 0 27.333 7 38 21l2 96c-7.33301 2.66699 -16 4 -26 4c-17.333 0 -30.833 -6 -40.5 -18s-14.5 -28 -14.5 -48
c0 -18 3.83301 -31.667 11.5 -41s17.5 -14 29.5 -14z" />
    <glyph glyph-name="guillemotleft" unicode="&#xab;" horiz-adv-x="466" 
d="M27 252l223 230l2 -1l-92 -230l92 -229l-2 -1l-223 229v2zM214 252l223 230l2 -1l-92 -230l92 -229l-2 -1l-223 229v2z" />
    <glyph glyph-name="logicalnot" unicode="&#xac;" horiz-adv-x="540" 
d="M498 109h-20v206h-441v19h461v-225z" />
    <glyph glyph-name="uni00AD" unicode="&#xad;" horiz-adv-x="351" 
d="M46 237v20h260v-20h-260z" />
    <glyph glyph-name="registered" unicode="&#xae;" horiz-adv-x="813" 
d="M42 351c0 108 35 195.333 105 262s156.333 100 259 100s189.167 -33.5 259.5 -100.5s105.5 -154.167 105.5 -261.5c0 -108 -35 -195.167 -105 -261.5s-156.667 -99.5 -260 -99.5s-189.833 33.167 -259.5 99.5s-104.5 153.5 -104.5 261.5zM62 351
c0 -102 33 -184.5 99 -247.5s147.667 -94.5 245 -94.5s179.166 31.5 245.499 94.5s99.5 145.5 99.5 247.5s-33.167 184.667 -99.5 248s-148.166 95 -245.499 95s-179 -31.667 -245 -95s-99 -146 -99 -248zM229 168l36.001 32.999c3.33301 2.66699 5 7.66699 5 15v282
c0 6.66699 -1.66699 11.667 -5 15l-36 33v2h220c36.667 0 67 -7.83301 91 -23.5s36 -40.167 36 -73.5c0 -28.667 -10.667 -51.667 -32 -69s-51 -27.666 -89 -30.999v-2l72 -20l52 -117c3.33301 -7.33301 8.66602 -14 15.999 -20l27 -24v-2h-141l-65 171
c-2.66699 4.66699 -6.66699 7 -12 7h-28v-128c0 -6.66699 1.66699 -11.667 5 -15l36 -33v-2h-188v2zM376.001 518.999v-158.999h30c38 0 57 27.667 57 83c0 58.667 -17.667 88 -53 88h-21c-6 0 -9.66699 -0.833008 -11 -2.5s-2 -4.83398 -2 -9.50098z" />
    <glyph glyph-name="macron" unicode="&#xaf;" horiz-adv-x="381" 
d="M331 592h-281v20h281v-20z" />
    <glyph glyph-name="degree" unicode="&#xb0;" horiz-adv-x="324" 
d="M35 589c0 36 12.333 65.333 37 88s54.667 34 90 34s65.333 -11.333 90 -34s37 -52 37 -88c0 -35.333 -12.333 -64 -37 -86s-54.667 -33 -90 -33s-65.333 11 -90 33s-37 50.667 -37 86zM56 589c0 -28.667 10.5 -52.5 31.5 -71.5s45.833 -28.5 74.5 -28.5
s53.5 9.5 74.5 28.5s31.5 42.833 31.5 71.5c0 30 -10.5 54.667 -31.5 74s-45.833 29 -74.5 29s-53.5 -9.83301 -74.5 -29.5s-31.5 -44.167 -31.5 -73.5z" />
    <glyph glyph-name="plusminus" unicode="&#xb1;" horiz-adv-x="540" 
d="M50 365v19h210v160h20v-160h211v-19h-211v-161h-20v161h-210zM50 105v19h441v-19h-441z" />
    <glyph glyph-name="twosuperior" unicode="&#xb2;" horiz-adv-x="312" 
d="M158 713c40 0 70.833 -7.33301 92.5 -22s32.5 -35 32.5 -61c0 -30.667 -14 -56 -42 -76s-73.667 -41 -137 -63v-2h112c15.333 0 26.666 3 33.999 9l33 28h2l-18 -107h-250v2c39.333 36.667 67.333 64.667 84 84c2.66699 2.66699 8 8.66699 16 18l17 19.5
c3.33301 3.66699 8.33301 9.5 15 17.5s11.5 14.667 14.5 20l10.5 18.5c4 7 6.66699 13.667 8 20s2 12.5 2 18.5c0 40.667 -14 61 -42 61c-11.333 0 -18.333 -2.66699 -21 -8l-47 -98h-2l-48 96c38.667 16.667 83.334 25 134.001 25z" />
    <glyph glyph-name="threesuperior" unicode="&#xb3;" horiz-adv-x="312" 
d="M291 501c0 -24.667 -13.168 -45.332 -39.501 -61.999s-61.833 -25 -106.5 -25c-49.333 0 -91.666 6.33301 -126.999 19l56 100h2l36 -95c2 -5.33301 6.33301 -8 13 -8h14c15.333 0 28.166 6 38.499 18s15.5 29 15.5 51c0 40.667 -25 63 -75 67v2
c20 3.33301 35.833 11.666 47.5 24.999s17.5 30.333 17.5 51c0 36 -13 54 -39 54h-8c-7.33301 0 -12.333 -2.66699 -15 -8l-46 -93h-2l-48 91c40.667 16.667 84.334 25 131.001 25c83.333 0 125 -24 125 -72c0 -35.333 -29 -58 -87 -68v-2
c29.333 -1.33301 52.833 -8.33301 70.5 -21s26.5 -29 26.5 -49z" />
    <glyph glyph-name="acute" unicode="&#xb4;" horiz-adv-x="339" 
d="M129 703h160v-2l-237 -165l-2 2z" />
    <glyph glyph-name="mu" unicode="&#xb5;" horiz-adv-x="602" 
d="M534 495l-0.000976562 -421.002c0 -10 3 -18 9 -24l50 -48v-2h-223v107c-8.66699 -25.333 -21.5 -46.833 -38.5 -64.5s-36.5 -29.5 -58.5 -35.5c-11.333 -3.33301 -26.333 -5.66602 -45 -6.99902v-148c0 -6.66699 0.833008 -11.5 2.5 -14.5
s5.83398 -6.83301 12.501 -11.5l74 -52v-2h-310v2l51 46c6 6 9 14 9 24v577c0 10 -3 18 -9 24l-49 48v2h219v-295c0 -45.333 5.16699 -78.666 15.5 -99.999s28.5 -32 54.5 -32c28.667 0 52.667 17.333 72 52v300c0 10 -3 18 -9 24l-49 49v2h222z" />
    <glyph glyph-name="paragraph" unicode="&#xb6;" horiz-adv-x="608" 
d="M64 348c0 61.333 8.5 115.334 25.5 162.001s40 83.667 69 111s61.5 47.833 97.5 61.5s74.667 20.5 116 20.5h160v-19h-79v-666h79v-18h-79v-250h-20v250h-61c-41.333 0 -80 6.5 -116 19.5s-68.667 32.667 -98 59s-52.333 62.666 -69 108.999s-25 99.833 -25 160.5z
M369 18.001h64v666h-64v-666z" />
    <glyph glyph-name="periodcentered" unicode="&#xb7;" horiz-adv-x="242" 
d="M41 422c0 23.333 7.66699 42.333 23 57s34.333 22 57 22s41.667 -7.33301 57 -22s23 -33.667 23 -57c0 -22 -7.83301 -40.167 -23.5 -54.5s-34.5 -21.5 -56.5 -21.5s-40.833 7.16699 -56.5 21.5s-23.5 32.5 -23.5 54.5z" />
    <glyph glyph-name="cedilla" unicode="&#xb8;" horiz-adv-x="361" 
d="M298 -142c0 -27.333 -10.501 -49.833 -31.501 -67.5s-49.5 -26.5 -85.5 -26.5c-33.333 0 -62.333 8.66699 -87 26s-38 40.333 -40 69l2 1c6 -19.333 17.333 -33.833 34 -43.5s33.334 -14.5 50.001 -14.5c18 0 33.167 4.83301 45.5 14.5s18.5 23.5 18.5 41.5
s-6.16699 31.833 -18.5 41.5s-27.833 14.5 -46.5 14.5c-13.333 0 -26 -2.33301 -38 -7l-1 2l74 88h2l-8 -57c36 6.66699 66.667 1.66699 92 -15s38 -39 38 -67z" />
    <glyph glyph-name="onesuperior" unicode="&#xb9;" horiz-adv-x="266" 
d="M260 421v-2.00098h-236v2l63 30c4 2 6 5.33301 6 10v183c0 4.66699 -2 7.33398 -6 8.00098l-68 20v2l172 44v-257c0 -4.66699 2 -8 6 -10z" />
    <glyph glyph-name="ordmasculine" unicode="&#xba;" horiz-adv-x="423" 
d="M211 695c-18 0 -31.667 -10.834 -41 -32.501s-14 -62.5 -14 -122.5c0 -59.333 4.66699 -100.166 14 -122.499s23 -33.5 41 -33.5c19.333 0 33.5 10.833 42.5 32.5s13.5 62.5 13.5 122.5s-4.66699 101 -14 123s-23.333 33 -42 33zM211 365.999
c-54.667 0 -98 14.833 -130 44.5s-48 72.834 -48 129.501c0 56 16 98.833 48 128.5s75.333 44.5 130 44.5c55.333 0 99.166 -14.833 131.499 -44.5s48.5 -72.834 48.5 -129.501c0 -56 -16.167 -98.833 -48.5 -128.5s-76.166 -44.5 -131.499 -44.5z" />
    <glyph glyph-name="guillemotright" unicode="&#xbb;" horiz-adv-x="466" 
d="M252 250l-223 -229l-2 1l92 229l-92 230l2 1l223 -230v-2zM439 250l-223 -229l-2 1l92 229l-92 230l2 1l223 -230v-2z" />
    <glyph glyph-name="onequarter" unicode="&#xbc;" horiz-adv-x="520" 
d="M460 342h-400v19h400v-19zM406 71h-74v-32c0 -4 2 -7.66699 6 -11l39 -26v-2h-181v2l41 26c3.33301 2 5 5.66699 5 11v32h-141v2l161 216h70v-203h16c6.66699 0 11.667 2.66699 15 8l48 81h2zM132 86h110v148zM315 718v-257c0 -4.66699 2 -8 6 -10l63 -30v-2h-236v2
l63 30c4 2 6 5.33301 6 10v183c0 4 -2 6.66699 -6 8l-68 20v2z" />
    <glyph glyph-name="onehalf" unicode="&#xbd;" horiz-adv-x="520" 
d="M460 361v-19h-400v19h400zM315 718v-257c0 -4.66699 2 -8 6 -10l63 -30v-2h-236v2l63 30c4 2 6 5.33301 6 10v183c0 4 -2 6.66699 -6 8l-68 20v2zM263 294c40 0 70.833 -7.33301 92.5 -22s32.5 -35 32.5 -61c0 -30.667 -14 -56 -42 -76s-73.667 -41 -137 -63v-2h112
c15.333 0 26.666 3 33.999 9l33 28h2l-18 -107h-250v2c39.333 36.667 67.333 64.667 84 84c2.66699 2.66699 8 8.66699 16 18l17 19.5c3.33301 3.66699 8.33301 9.5 15 17.5s11.5 14.667 14.5 20l10.5 18.5c4 7 6.66699 13.667 8 20s2 12.5 2 18.5c0 40.667 -14 61 -42 61
c-11.333 0 -18.333 -2.66699 -21 -8l-47 -98h-2l-48 96c38.667 16.667 83.334 25 134.001 25z" />
    <glyph glyph-name="threequarters" unicode="&#xbe;" horiz-adv-x="520" 
d="M406 71h-74v-32c0 -4 2 -7.66699 6 -11l39 -26v-2h-181v2l41 26c3.33301 2 5 5.66699 5 11v32h-141v2l161 216h70v-203h16c6.66699 0 11.667 2.66699 15 8l48 81h2zM396 501c0 -24.667 -13.1699 -45.332 -39.5029 -61.999s-61.833 -25 -106.5 -25
c-49.333 0 -91.666 6.33301 -126.999 19l56 100h2l36 -95c2 -5.33301 6.33301 -8 13 -8h14c14.667 0 27.334 6 38.001 18s16 29 16 51c0 40.667 -25 63 -75 67v2c20 3.33301 35.833 11.666 47.5 24.999s17.5 30.333 17.5 51c0 36 -13 54 -39 54h-8
c-7.33301 0 -12.333 -2.66699 -15 -8l-46 -93h-2l-48 91c40.667 16.667 84.334 25 131.001 25c83.333 0 125 -24 125 -72c0 -35.333 -29 -58 -87 -68v-2c29.333 -1.33301 52.833 -8.33301 70.5 -21s26.5 -29 26.5 -49zM131.997 86.002h110v148zM459.997 342.002h-400v19h400
v-19z" />
    <glyph glyph-name="questiondown" unicode="&#xbf;" horiz-adv-x="429" 
d="M232 262l1.99902 0.999023c58.667 -19.333 88 -52.666 88 -99.999c0 -28.667 -17.333 -61 -52 -97l-59 -59c-29.333 -32.667 -44 -66.667 -44 -102c0 -30.667 8.5 -55.667 25.5 -75s37.5 -29 61.5 -29h13c14 0 23.333 5.33301 28 16l86 202h2l78 -181
c-82 -38 -162 -57 -240 -57c-71.333 0 -126.5 14.5 -165.5 43.5s-58.5 68.167 -58.5 117.5c0 50 26.333 96.333 79 139c9.33301 7.33301 28.833 21.833 58.5 43.5s47.834 35.167 54.501 40.5c18 14.667 29.833 28.5 35.5 41.5s8.16699 31.5 7.5 55.5zM326.999 425.999
c0 -23.333 -7.66699 -42.333 -23 -57s-34 -22 -56 -22c-22.667 0 -41.834 7.33301 -57.501 22s-23.5 33.667 -23.5 57c0 22 7.83301 40.167 23.5 54.5s34.834 21.5 57.501 21.5c22 0 40.667 -7.16699 56 -21.5s23 -32.5 23 -54.5z" />
    <glyph glyph-name="Agrave" unicode="&#xc0;" horiz-adv-x="656" 
d="M147 245l-26.001 -80.001c-2.66699 -8 -3.5 -13.667 -2.5 -17s4.5 -9.33301 10.5 -18l89 -128v-2h-237v2l96 128c10.667 14 18.334 28 23.001 42l139 426c3.33301 9.33301 4.66602 15.833 3.99902 19.5s-4 8.83398 -10 15.501l-59 68v2h235l187 -593
c3.33301 -11.333 10 -25 20 -41l42 -67v-2h-296v2l48 67c4.66699 6.66699 5.33398 15.667 2.00098 27l-47 149h-218zM257.999 588.999l-105 -324h206zM142.999 910.999h160l79 -165l-1 -1l-238 164v2z" />
    <glyph glyph-name="Aacute" unicode="&#xc1;" horiz-adv-x="656" 
d="M147 245l-26.001 -80.001c-2.66699 -8 -3.5 -13.667 -2.5 -17s4.5 -9.33301 10.5 -18l89 -128v-2h-237v2l96 128c10.667 14 18.334 28 23.001 42l139 426c3.33301 9.33301 4.66602 15.833 3.99902 19.5s-4 8.83398 -10 15.501l-59 68v2h235l187 -593
c3.33301 -11.333 10 -25 20 -41l42 -67v-2h-296v2l48 67c4.66699 6.66699 5.33398 15.667 2.00098 27l-47 149h-218zM257.999 588.999l-105 -324h206zM325.999 910.999h160v-2l-237 -165l-2 2z" />
    <glyph glyph-name="Acircumflex" unicode="&#xc2;" horiz-adv-x="656" 
d="M147 245l-26.001 -80.001c-2.66699 -8 -3.5 -13.667 -2.5 -17s4.5 -9.33301 10.5 -18l89 -128v-2h-237v2l96 128c10.667 14 18.334 28 23.001 42l139 426c3.33301 9.33301 4.66602 15.833 3.99902 19.5s-4 8.83398 -10 15.501l-59 68v2h235l187 -593
c3.33301 -11.333 10 -25 20 -41l42 -67v-2h-296v2l48 67c4.66699 6.66699 5.33398 15.667 2.00098 27l-47 149h-218zM257.999 588.999l-105 -324h206zM476.999 743.999l-1 -1l-163 67l-163 -67l-1 1l163 175h2z" />
    <glyph glyph-name="Atilde" unicode="&#xc3;" horiz-adv-x="656" 
d="M147 245l-26.001 -80.001c-2.66699 -8 -3.5 -13.667 -2.5 -17s4.5 -9.33301 10.5 -18l89 -128v-2h-237v2l96 128c10.667 14 18.334 28 23.001 42l139 426c3.33301 9.33301 4.66602 15.833 3.99902 19.5s-4 8.83398 -10 15.501l-59 68v2h235l187 -593
c3.33301 -11.333 10 -25 20 -41l42 -67v-2h-296v2l48 67c4.66699 6.66699 5.33398 15.667 2.00098 27l-47 149h-218zM257.999 588.999l-105 -324h206zM376.999 769.999c-18 0 -42.335 8.16504 -73.002 24.498s-53.334 24.5 -68.001 24.5c-32 0 -53.333 -16.333 -64 -49h-2
v24c0 30.667 7.83301 55.334 23.5 74.001s35.834 28 60.501 28c18 0 42.333 -8.16699 73 -24.5s53.334 -24.5 68.001 -24.5c32 0 53.667 16.333 65 49h2c0 -11.333 -0.333008 -19.666 -1 -24.999c-1.33301 -30.667 -9.66602 -55.167 -24.999 -73.5s-35 -27.5 -59 -27.5z" />
    <glyph glyph-name="Adieresis" unicode="&#xc4;" horiz-adv-x="656" 
d="M147 245l-26.001 -80.001c-2.66699 -8 -3.5 -13.667 -2.5 -17s4.5 -9.33301 10.5 -18l89 -128v-2h-237v2l96 128c10.667 14 18.334 28 23.001 42l139 426c3.33301 9.33301 4.66602 15.833 3.99902 19.5s-4 8.83398 -10 15.501l-59 68v2h235l187 -593
c3.33301 -11.333 10 -25 20 -41l42 -67v-2h-296v2l48 67c4.66699 6.66699 5.33398 15.667 2.00098 27l-47 149h-218zM257.999 588.999l-105 -324h206zM144.999 828.999c0 19.333 6.66699 35.333 20 48s29.666 19 48.999 19c18.667 0 34.667 -6.33301 48 -19
s20 -28.667 20 -48c0 -18.667 -6.66699 -34.334 -20 -47.001s-29.333 -19 -48 -19c-19.333 0 -35.666 6.33301 -48.999 19s-20 28.334 -20 47.001zM343.999 828.999c0 19.333 6.66699 35.333 20 48s29.333 19 48 19c19.333 0 35.666 -6.33301 48.999 -19s20 -28.667 20 -48
c0 -18.667 -6.66699 -34.334 -20 -47.001s-29.666 -19 -48.999 -19c-18.667 0 -34.667 6.33301 -48 19s-20 28.334 -20 47.001z" />
    <glyph glyph-name="Aring" unicode="&#xc5;" horiz-adv-x="656" 
d="M147 245l-26.001 -80.001c-2.66699 -8 -3.5 -13.667 -2.5 -17s4.5 -9.33301 10.5 -18l89 -128v-2h-237v2l96 128c10.667 14 18.334 28 23.001 42l139 426c3.33301 9.33301 4.66602 15.833 3.99902 19.5s-4 8.83398 -10 15.501l-59 68v2h235l187 -593
c3.33301 -11.333 10 -25 20 -41l42 -67v-2h-296v2l48 67c4.66699 6.66699 5.33398 15.667 2.00098 27l-47 149h-218zM257.999 588.999l-105 -324h206zM408.999 838.999c0 -26.667 -9 -48.667 -27 -66s-40.667 -26 -68 -26c-24.667 0 -46.667 9 -66 27s-29 39.667 -29 65
c0 26.667 9 49 27 67s40.333 27 67 27c28 0 51 -8.66699 69 -26s27 -40 27 -68zM387.999 839.999c0 21.333 -7 38.833 -21 52.5s-32 20.5 -54 20.5c-20.667 0 -38 -6.83301 -52 -20.5s-21 -31.167 -21 -52.5c0 -20 7.33301 -37.167 22 -51.5s32 -21.5 52 -21.5
c21.333 0 39 6.83301 53 20.5s21 31.167 21 52.5z" />
    <glyph glyph-name="AE" unicode="&#xc6;" horiz-adv-x="947" 
d="M900 246l-0.000976562 -246h-546v2l66 63c6.66699 6 10 14 10 24v156h-231l-47 -77c-6.66699 -10.667 -10 -18.334 -10 -23.001s2.66699 -12 8 -22l68 -121v-2h-246v2l115 119c21.333 22 34.666 37.333 39.999 46l266 433c4.66699 8 6.83398 13.333 6.50098 16
s-2.83301 6.66699 -7.5 12l-69 73v2h567v-242h-2l-130 206c-6.66699 10.667 -16 16 -28 16h-103c-7.33301 0 -11.833 -1.16699 -13.5 -3.5s-2.5 -7.83301 -2.5 -16.5v-301h67c10 0.666992 18.667 5.33398 26 14.001l91 104h2v-255h-2l-91 104c-8 8.66699 -16.667 13 -26 13
h-67v-302c0 -8.66699 0.833008 -14.167 2.5 -16.5s6.16699 -3.5 13.5 -3.5h116c12.667 0 22.334 4.66699 29.001 14l124 212h4zM429.999 620l-219 -356h219v356z" />
    <glyph glyph-name="Ccedilla" unicode="&#xc7;" horiz-adv-x="633" 
d="M487 -142c0 -27.333 -10.499 -49.833 -31.499 -67.5s-49.5 -26.5 -85.5 -26.5c-33.333 0 -62.333 8.66699 -87 26s-38 40.333 -40 69l2 1c6 -19.333 17.333 -33.833 34 -43.5s33.334 -14.5 50.001 -14.5c18 0 33.167 4.83301 45.5 14.5s18.5 23.5 18.5 41.5
s-6.16699 31.833 -18.5 41.5s-27.833 14.5 -46.5 14.5c-13.333 0 -26 -2.33301 -38 -7l-1 2l68 82c-110.667 2.66699 -193.334 35.667 -248.001 99s-82 150 -82 260c0 112 29.667 200.5 89 265.5s143.666 97.5 252.999 97.5c74.667 0 147 -6.33301 217 -19v-246h-2l-152 230
c-6.66699 10.667 -17.667 16 -33 16h-14c-101.333 0 -152 -114.667 -152 -344c0 -227.333 51.333 -341 154 -341h11c15.333 0 26.333 4.66699 33 14l153 236h2v-251c-65.333 -12 -136.333 -18 -213 -18c-0.666992 0 -2 0.166992 -4 0.5s-3.66699 0.5 -5 0.5l-7 -51
c36 6.66699 66.667 1.66699 92 -15s38 -39 38 -67z" />
    <glyph glyph-name="Egrave" unicode="&#xc8;" horiz-adv-x="607" 
d="M551 703v-242.001h-2l-129 206c-6.66699 10.667 -16 16 -28 16h-103c-7.33301 0 -12 -1.16699 -14 -3.5s-3 -7.83301 -3 -16.5v-301h68c10 0.666992 18.667 5.33398 26 14.001l90 104h2v-255h-2l-90 104c-8 8.66699 -17 13 -27 13h-67v-302c0 -8.66699 1 -14.167 3 -16.5
s6.66699 -3.5 14 -3.5h115c14.667 0 24.667 4.66699 30 14l124 212h2v-246h-545v2l67 63c6 6 9 14 9 24v525c0 10 -3 18 -9 24l-67 63v2h536zM144 910.999h160l79 -165l-1 -1l-238 164v2z" />
    <glyph glyph-name="Eacute" unicode="&#xc9;" horiz-adv-x="607" 
d="M328 911h160v-2l-237 -165l-2 2zM551 703v-242.001h-2l-129 206c-6.66699 10.667 -16 16 -28 16h-103c-7.33301 0 -12 -1.16699 -14 -3.5s-3 -7.83301 -3 -16.5v-301h68c10 0.666992 18.667 5.33398 26 14.001l90 104h2v-255h-2l-90 104c-8 8.66699 -17 13 -27 13h-67
v-302c0 -8.66699 1 -14.167 3 -16.5s6.66699 -3.5 14 -3.5h115c14.667 0 24.667 4.66699 30 14l124 212h2v-246h-545v2l67 63c6 6 9 14 9 24v525c0 10 -3 18 -9 24l-67 63v2h536z" />
    <glyph glyph-name="Ecircumflex" unicode="&#xca;" horiz-adv-x="607" 
d="M478 744l-1 -1l-163 67l-163 -67l-1 1l163 175h2zM551 703v-242.001h-2l-129 206c-6.66699 10.667 -16 16 -28 16h-103c-7.33301 0 -12 -1.16699 -14 -3.5s-3 -7.83301 -3 -16.5v-301h68c10 0.666992 18.667 5.33398 26 14.001l90 104h2v-255h-2l-90 104
c-8 8.66699 -17 13 -27 13h-67v-302c0 -8.66699 1 -14.167 3 -16.5s6.66699 -3.5 14 -3.5h115c14.667 0 24.667 4.66699 30 14l124 212h2v-246h-545v2l67 63c6 6 9 14 9 24v525c0 10 -3 18 -9 24l-67 63v2h536z" />
    <glyph glyph-name="Edieresis" unicode="&#xcb;" horiz-adv-x="607" 
d="M146 829c0 19.333 6.66699 35.333 20 48s29.666 19 48.999 19c18.667 0 34.667 -6.33301 48 -19s20 -28.667 20 -48c0 -18.667 -6.66699 -34.334 -20 -47.001s-29.333 -19 -48 -19c-19.333 0 -35.666 6.33301 -48.999 19s-20 28.334 -20 47.001zM345 829
c0 19.333 6.66699 35.333 20 48s29.333 19 48 19c19.333 0 35.666 -6.33301 48.999 -19s20 -28.667 20 -48c0 -18.667 -6.66699 -34.334 -20 -47.001s-29.666 -19 -48.999 -19c-18.667 0 -34.667 6.33301 -48 19s-20 28.334 -20 47.001zM551 703v-242.001h-2l-129 206
c-6.66699 10.667 -16 16 -28 16h-103c-7.33301 0 -12 -1.16699 -14 -3.5s-3 -7.83301 -3 -16.5v-301h68c10 0.666992 18.667 5.33398 26 14.001l90 104h2v-255h-2l-90 104c-8 8.66699 -17 13 -27 13h-67v-302c0 -8.66699 1 -14.167 3 -16.5s6.66699 -3.5 14 -3.5h115
c14.667 0 24.667 4.66699 30 14l124 212h2v-246h-545v2l67 63c6 6 9 14 9 24v525c0 10 -3 18 -9 24l-67 63v2h536z" />
    <glyph glyph-name="Igrave" unicode="&#xcc;" horiz-adv-x="364" 
d="M272 89c0 -10 3.33301 -18 10 -24l66 -63v-2h-333v2l67 63c6 6 9 14 9 24v525c0 10 -3 18 -9 24l-67 63v2h333v-2l-66 -63c-6.66699 -6 -10 -14 -10 -24v-525zM12 911h160l79 -165l-1 -1l-238 164v2z" />
    <glyph glyph-name="Iacute" unicode="&#xcd;" horiz-adv-x="364" 
d="M272 89c0 -10 3.33301 -18 10 -24l66 -63v-2h-333v2l67 63c6 6 9 14 9 24v525c0 10 -3 18 -9 24l-67 63v2h333v-2l-66 -63c-6.66699 -6 -10 -14 -10 -24v-525zM194 911h160v-2l-237 -165l-2 2z" />
    <glyph glyph-name="Icircumflex" unicode="&#xce;" horiz-adv-x="364" 
d="M272 89c0 -10 3.33301 -18 10 -24l66 -63v-2h-333v2l67 63c6 6 9 14 9 24v525c0 10 -3 18 -9 24l-67 63v2h333v-2l-66 -63c-6.66699 -6 -10 -14 -10 -24v-525zM346 744l-1 -1l-163 67l-163 -67l-1 1l163 175h2z" />
    <glyph glyph-name="Idieresis" unicode="&#xcf;" horiz-adv-x="364" 
d="M272 89c0 -10 3.33301 -18 10 -24l66 -63v-2h-333v2l67 63c6 6 9 14 9 24v525c0 10 -3 18 -9 24l-67 63v2h333v-2l-66 -63c-6.66699 -6 -10 -14 -10 -24v-525zM14 829c0 19.333 6.66699 35.333 20 48s29.666 19 48.999 19c18.667 0 34.667 -6.33301 48 -19
s20 -28.667 20 -48c0 -18.667 -6.66699 -34.334 -20 -47.001s-29.333 -19 -48 -19c-19.333 0 -35.666 6.33301 -48.999 19s-20 28.334 -20 47.001zM213 829c0 19.333 6.66699 35.333 20 48s29.333 19 48 19c19.333 0 35.666 -6.33301 48.999 -19s20 -28.667 20 -48
c0 -18.667 -6.66699 -34.334 -20 -47.001s-29.666 -19 -48.999 -19c-18.667 0 -34.667 6.33301 -48 19s-20 28.334 -20 47.001z" />
    <glyph glyph-name="Eth" unicode="&#xd0;" horiz-adv-x="735" 
d="M16 350v18h90v245c0 11.333 -3.33301 20 -10 26l-67 62v2h334c114 0 200.333 -29.5 259 -88.5s88 -140.5 88 -244.5c0 -115.333 -32 -205.833 -96 -271.5s-153.667 -98.5 -269 -98.5h-316v2l67 62c6.66699 6 10 15 10 27v259h-90zM336 683l-31.999 -0.000976562
c-7.33301 0 -12 -1.16699 -14 -3.5s-3 -7.5 -3 -15.5v-296h106v-18h-106v-310c0 -9.33301 1.16699 -15 3.5 -17s8.16602 -3 17.499 -3h21c62 0 106.667 27.5 134 82.5s41 138.5 41 250.5c0 110.667 -13 193.334 -39 248.001s-69 82 -129 82z" />
    <glyph glyph-name="Ntilde" unicode="&#xd1;" horiz-adv-x="707" 
d="M607 0h-122l-345 534v-366c0 -10 4 -20.333 12 -31l103 -135v-2h-249v2l100 134c8.66699 11.333 13 22 13 32v378c0 13.333 -3 24 -9 32l-100 123v2h236l340 -528v360c0 11.333 -4 22 -12 32l-102 134v2h249v-2l-101 -134c-8.66699 -12 -13 -22.667 -13 -32v-535z
M419 770c-18 0 -42.335 8.16504 -73.002 24.498s-53.334 24.5 -68.001 24.5c-32 0 -53.333 -16.333 -64 -49h-2v24c0 30.667 7.83301 55.334 23.5 74.001s35.834 28 60.501 28c18 0 42.333 -8.16699 73 -24.5s53.334 -24.5 68.001 -24.5c32 0 53.667 16.333 65 49h2
c0 -11.333 -0.333008 -19.666 -1 -24.999c-1.33301 -30.667 -9.66602 -55.167 -24.999 -73.5s-35 -27.5 -59 -27.5z" />
    <glyph glyph-name="Ograve" unicode="&#xd2;" horiz-adv-x="732" 
d="M366 9c44 0 77.167 27 99.5 81s33.5 141.333 33.5 262s-11.167 207.834 -33.5 261.501s-55.5 80.5 -99.5 80.5s-77.167 -26.833 -99.5 -80.5s-33.5 -140.834 -33.5 -261.501s11.167 -208 33.5 -262s55.5 -81 99.5 -81zM366 713c107.333 0 190.666 -30.833 249.999 -92.5
s89 -151.5 89 -269.5c0 -117.333 -29.667 -206.833 -89 -268.5s-142.666 -92.5 -249.999 -92.5s-190.666 30.833 -249.999 92.5s-89 151.167 -89 268.5c0 118 29.667 207.833 89 269.5s142.666 92.5 249.999 92.5zM196 911h160l79 -165l-1 -1l-238 164v2z" />
    <glyph glyph-name="Oacute" unicode="&#xd3;" horiz-adv-x="732" 
d="M379 911h160v-2l-237 -165l-2 2zM366 9c44 0 77.167 27 99.5 81s33.5 141.333 33.5 262s-11.167 207.834 -33.5 261.501s-55.5 80.5 -99.5 80.5s-77.167 -26.833 -99.5 -80.5s-33.5 -140.834 -33.5 -261.501s11.167 -208 33.5 -262s55.5 -81 99.5 -81zM366 713
c107.333 0 190.666 -30.833 249.999 -92.5s89 -151.5 89 -269.5c0 -117.333 -29.667 -206.833 -89 -268.5s-142.666 -92.5 -249.999 -92.5s-190.666 30.833 -249.999 92.5s-89 151.167 -89 268.5c0 118 29.667 207.833 89 269.5s142.666 92.5 249.999 92.5z" />
    <glyph glyph-name="Ocircumflex" unicode="&#xd4;" horiz-adv-x="732" 
d="M530 744l-1 -1l-163 67l-163 -67l-1 1l163 175h2zM366 9c44 0 77.167 27 99.5 81s33.5 141.333 33.5 262s-11.167 207.834 -33.5 261.501s-55.5 80.5 -99.5 80.5s-77.167 -26.833 -99.5 -80.5s-33.5 -140.834 -33.5 -261.501s11.167 -208 33.5 -262s55.5 -81 99.5 -81z
M366 713c107.333 0 190.666 -30.833 249.999 -92.5s89 -151.5 89 -269.5c0 -117.333 -29.667 -206.833 -89 -268.5s-142.666 -92.5 -249.999 -92.5s-190.666 30.833 -249.999 92.5s-89 151.167 -89 268.5c0 118 29.667 207.833 89 269.5s142.666 92.5 249.999 92.5z" />
    <glyph glyph-name="Otilde" unicode="&#xd5;" horiz-adv-x="732" 
d="M366 9c44 0 77.167 27 99.5 81s33.5 141.333 33.5 262s-11.167 207.834 -33.5 261.501s-55.5 80.5 -99.5 80.5s-77.167 -26.833 -99.5 -80.5s-33.5 -140.834 -33.5 -261.501s11.167 -208 33.5 -262s55.5 -81 99.5 -81zM366 713c107.333 0 190.666 -30.833 249.999 -92.5
s89 -151.5 89 -269.5c0 -117.333 -29.667 -206.833 -89 -268.5s-142.666 -92.5 -249.999 -92.5s-190.666 30.833 -249.999 92.5s-89 151.167 -89 268.5c0 118 29.667 207.833 89 269.5s142.666 92.5 249.999 92.5zM429 770c-18 0 -42.335 8.16504 -73.002 24.498
s-53.334 24.5 -68.001 24.5c-32 0 -53.333 -16.333 -64 -49h-2v24c0 30.667 7.83301 55.334 23.5 74.001s35.834 28 60.501 28c18 0 42.333 -8.16699 73 -24.5s53.334 -24.5 68.001 -24.5c32 0 53.667 16.333 65 49h2c0 -11.333 -0.333008 -19.666 -1 -24.999
c-1.33301 -30.667 -9.66602 -55.167 -24.999 -73.5s-35 -27.5 -59 -27.5z" />
    <glyph glyph-name="Odieresis" unicode="&#xd6;" horiz-adv-x="732" 
d="M197 829c0 19.333 6.66699 35.333 20 48s29.666 19 48.999 19c18.667 0 34.667 -6.33301 48 -19s20 -28.667 20 -48c0 -18.667 -6.66699 -34.334 -20 -47.001s-29.333 -19 -48 -19c-19.333 0 -35.666 6.33301 -48.999 19s-20 28.334 -20 47.001zM396 829
c0 19.333 6.66699 35.333 20 48s29.333 19 48 19c19.333 0 35.666 -6.33301 48.999 -19s20 -28.667 20 -48c0 -18.667 -6.66699 -34.334 -20 -47.001s-29.666 -19 -48.999 -19c-18.667 0 -34.667 6.33301 -48 19s-20 28.334 -20 47.001zM366 9c44 0 77.167 27 99.5 81
s33.5 141.333 33.5 262s-11.167 207.834 -33.5 261.501s-55.5 80.5 -99.5 80.5s-77.167 -26.833 -99.5 -80.5s-33.5 -140.834 -33.5 -261.501s11.167 -208 33.5 -262s55.5 -81 99.5 -81zM366 713c107.333 0 190.666 -30.833 249.999 -92.5s89 -151.5 89 -269.5
c0 -117.333 -29.667 -206.833 -89 -268.5s-142.666 -92.5 -249.999 -92.5s-190.666 30.833 -249.999 92.5s-89 151.167 -89 268.5c0 118 29.667 207.833 89 269.5s142.666 92.5 249.999 92.5z" />
    <glyph glyph-name="multiply" unicode="&#xd7;" horiz-adv-x="540" 
d="M122 161l-14 14l148 148l-148 149l14 14l148 -149l148 149l14 -14l-148 -149l148 -148l-14 -14l-148 148z" />
    <glyph glyph-name="Oslash" unicode="&#xd8;" horiz-adv-x="732" 
d="M366 713c52.667 0 101 -8.33301 145 -25l41 92l17 -7l-41 -92c118 -52 177 -162 177 -330c0 -117.333 -29.667 -206.833 -89 -268.5s-142.666 -92.5 -249.999 -92.5c-49.333 0 -94 6.66699 -134 20l-40 -91l-18 7l40 90c-60 24 -106.167 64.333 -138.5 121
s-48.5 128 -48.5 214c0 118 29.667 207.833 89 269.5s142.666 92.5 249.999 92.5zM233 352c0 -104 8.33301 -182.999 25 -236.999l213 482c-20.667 64.667 -55.667 97 -105 97c-44 0 -77.167 -26.833 -99.5 -80.5s-33.5 -140.834 -33.5 -261.501zM366 9.00098
c44 0 77.167 26.999 99.5 80.999s33.5 141.333 33.5 262c0 90.667 -6.66699 163.334 -20 218.001l-212 -481c20.667 -53.333 53.667 -80 99 -80z" />
    <glyph glyph-name="Ugrave" unicode="&#xd9;" horiz-adv-x="673" 
d="M349 -10c-95.333 0 -164.501 19.1689 -207.501 57.502s-64.5 102.166 -64.5 191.499v374c0 10 -3.33301 18 -10 24l-60 64v2h323v-2l-62 -64c-6.66699 -6 -10 -14 -10 -24v-363c0 -78.667 12.833 -135.334 38.5 -170.001s63.834 -52 114.501 -52c48 0 85.333 19 112 57
s40 94.333 40 169v281c0 12 -4.33301 23 -13 33l-98 133v2h243v-2l-98 -133c-8.66699 -10 -13 -21 -13 -33v-279c0 -86.667 -18.333 -152.667 -55 -198s-96.667 -68 -180 -68zM205.999 911.002h160l79 -165l-1 -1l-238 164v2z" />
    <glyph glyph-name="Uacute" unicode="&#xda;" horiz-adv-x="673" 
d="M389 911h160v-2l-237 -165l-2 2zM349 -10c-95.333 0 -164.501 19.1689 -207.501 57.502s-64.5 102.166 -64.5 191.499v374c0 10 -3.33301 18 -10 24l-60 64v2h323v-2l-62 -64c-6.66699 -6 -10 -14 -10 -24v-363c0 -78.667 12.833 -135.334 38.5 -170.001
s63.834 -52 114.501 -52c48 0 85.333 19 112 57s40 94.333 40 169v281c0 12 -4.33301 23 -13 33l-98 133v2h243v-2l-98 -133c-8.66699 -10 -13 -21 -13 -33v-279c0 -86.667 -18.333 -152.667 -55 -198s-96.667 -68 -180 -68z" />
    <glyph glyph-name="Ucircumflex" unicode="&#xdb;" horiz-adv-x="673" 
d="M540 744l-1 -1l-163 67l-163 -67l-1 1l163 175h2zM349 -10c-95.333 0 -164.501 19.1689 -207.501 57.502s-64.5 102.166 -64.5 191.499v374c0 10 -3.33301 18 -10 24l-60 64v2h323v-2l-62 -64c-6.66699 -6 -10 -14 -10 -24v-363c0 -78.667 12.833 -135.334 38.5 -170.001
s63.834 -52 114.501 -52c48 0 85.333 19 112 57s40 94.333 40 169v281c0 12 -4.33301 23 -13 33l-98 133v2h243v-2l-98 -133c-8.66699 -10 -13 -21 -13 -33v-279c0 -86.667 -18.333 -152.667 -55 -198s-96.667 -68 -180 -68z" />
    <glyph glyph-name="Udieresis" unicode="&#xdc;" horiz-adv-x="673" 
d="M208 829c0 19.333 6.66699 35.333 20 48s29.666 19 48.999 19c18.667 0 34.667 -6.33301 48 -19s20 -28.667 20 -48c0 -18.667 -6.66699 -34.334 -20 -47.001s-29.333 -19 -48 -19c-19.333 0 -35.666 6.33301 -48.999 19s-20 28.334 -20 47.001zM407 829
c0 19.333 6.66699 35.333 20 48s29.333 19 48 19c19.333 0 35.666 -6.33301 48.999 -19s20 -28.667 20 -48c0 -18.667 -6.66699 -34.334 -20 -47.001s-29.666 -19 -48.999 -19c-18.667 0 -34.667 6.33301 -48 19s-20 28.334 -20 47.001zM349 -10
c-95.333 0 -164.501 19.1689 -207.501 57.502s-64.5 102.166 -64.5 191.499v374c0 10 -3.33301 18 -10 24l-60 64v2h323v-2l-62 -64c-6.66699 -6 -10 -14 -10 -24v-363c0 -78.667 12.833 -135.334 38.5 -170.001s63.834 -52 114.501 -52c48 0 85.333 19 112 57
s40 94.333 40 169v281c0 12 -4.33301 23 -13 33l-98 133v2h243v-2l-98 -133c-8.66699 -10 -13 -21 -13 -33v-279c0 -86.667 -18.333 -152.667 -55 -198s-96.667 -68 -180 -68z" />
    <glyph glyph-name="Yacute" unicode="&#xdd;" horiz-adv-x="640" 
d="M415 267v-170.999c0 -10.667 3.66699 -19.334 11 -26.001l73 -68v-2h-349v2l74 68c6.66699 6.66699 10 15.334 10 26.001v154c0 10 -2 18.333 -6 25l-165 316c-8.66699 16.667 -17.667 31 -27 43l-50 67v2h336v-2l-60 -69c-6.66699 -8 -8 -16 -4 -24l146 -294l115 235
c3.33301 8 4.83301 13.5 4.5 16.5s-2.83301 7.83301 -7.5 14.5l-86 121v2h250v-2l-113 -121c-10.667 -10.667 -19.667 -23 -27 -37l-117 -238c-5.33301 -10.667 -8 -23.334 -8 -38.001zM369 911.001h160v-2l-237 -165l-2 2z" />
    <glyph glyph-name="Thorn" unicode="&#xde;" horiz-adv-x="652" 
d="M637 374c0 -73.333 -26.998 -128.665 -80.998 -165.998s-126.667 -56 -218 -56h-66v-57c0 -10 3.33301 -18 10 -24l86 -69v-2h-353v2l67 63c6 6 9 14 9 24v525c0 10 -3 18 -9 24l-67 63v2h257v-116h91c36.667 0 70.667 -3.66699 102 -11s60.166 -18.833 86.499 -34.5
s47.166 -37.834 62.499 -66.501s23 -62.334 23 -101.001zM272.002 172.001l50.002 -0.000976562c39.333 0 70.666 17.833 93.999 53.5s35 83.834 35 144.501c0 60 -11.333 107.833 -34 143.5s-54.334 53.5 -95.001 53.5h-50v-395z" />
    <glyph glyph-name="germandbls" unicode="&#xdf;" horiz-adv-x="653" 
d="M17 475l-0.00292969 19.999h60c4 79.333 27.167 135.5 69.5 168.5s103.5 49.5 183.5 49.5c59.333 0 109 -10.833 149 -32.5s60 -50.5 60 -86.5s-25 -68.667 -75 -98c-21.333 -11.333 -38.333 -22.666 -51 -33.999c-18 -14 -27 -30 -27 -48
c0 -24.667 24.333 -49.334 73 -74.001l84 -44c34 -18 59.333 -37.667 76 -59s25 -48 25 -80c0 -51.333 -19.167 -91.666 -57.5 -120.999s-88.166 -44 -149.499 -44c-60.667 0 -118.667 11 -174 33l59 147h2l72 -150c3.33301 -8 13.333 -12 30 -12h13
c22.667 0 40.834 7.33301 54.501 22s20.5 32.667 20.5 54c0 29.333 -21 56 -63 80l-86 49c-54.667 31.333 -82 68 -82 110c0 21.333 5.33301 39.666 16 54.999s28.334 33.333 53.001 54l36 30c34.667 28.667 52 69.334 52 122.001c0 34 -9.33301 60.667 -28 80
s-43 29 -73 29c-66 0 -99 -51.333 -99 -154v-541h-221v2l49 46c6 6 9 14 9 24v403h-60z" />
    <glyph glyph-name="agrave" unicode="&#xe0;" 
d="M456 301c0 -4 -0.168945 -10.833 -0.501953 -20.5s-0.5 -14.834 -0.5 -15.501l-6 -142c-2 -38.667 7 -58 27 -58c12.667 0 22 6 28 18h2c0 -13.333 -2.66699 -25.333 -8 -36c-18 -36.667 -50.667 -55 -98 -55c-30 0 -55.333 8.5 -76 25.5s-31.667 40.833 -33 71.5
c-10 -29.333 -27.167 -52.833 -51.5 -70.5s-52.5 -26.5 -84.5 -26.5c-38.667 0 -71 12.5 -97 37.5s-39 59.5 -39 103.5c0 46.667 16.833 83.5 50.5 110.5s72.834 40.5 117.501 40.5c45.333 0 80.666 -9 105.999 -27l2 107v5c0 76.667 -24.333 115 -73 115
c-10 0 -16.167 -0.666992 -18.5 -2s-5.16602 -4.66602 -8.49902 -9.99902l-81 -150h-2l-63 143c70.667 25.333 138 38 202 38c70.667 0 122.334 -15.333 155.001 -46c33.333 -31.333 50 -83.333 50 -156zM255.998 253c-25.333 0 -45.167 -9.66699 -59.5 -29
s-21.5 -44 -21.5 -74c0 -26.667 5.5 -47.5 16.5 -62.5s25.167 -22.5 42.5 -22.5c22.667 0 41.667 11.667 57 35v1l2 146c-12 4 -24.333 6 -37 6zM80.9971 703h160l79 -165l-1 -1l-238 164v2z" />
    <glyph glyph-name="aacute" unicode="&#xe1;" 
d="M456 301c0 -4 -0.168945 -10.833 -0.501953 -20.5s-0.5 -14.834 -0.5 -15.501l-6 -142c-2 -38.667 7 -58 27 -58c12.667 0 22 6 28 18h2c0 -13.333 -2.66699 -25.333 -8 -36c-18 -36.667 -50.667 -55 -98 -55c-30 0 -55.333 8.5 -76 25.5s-31.667 40.833 -33 71.5
c-10 -29.333 -27.167 -52.833 -51.5 -70.5s-52.5 -26.5 -84.5 -26.5c-38.667 0 -71 12.5 -97 37.5s-39 59.5 -39 103.5c0 46.667 16.833 83.5 50.5 110.5s72.834 40.5 117.501 40.5c45.333 0 80.666 -9 105.999 -27l2 107v5c0 76.667 -24.333 115 -73 115
c-10 0 -16.167 -0.666992 -18.5 -2s-5.16602 -4.66602 -8.49902 -9.99902l-81 -150h-2l-63 143c70.667 25.333 138 38 202 38c70.667 0 122.334 -15.333 155.001 -46c33.333 -31.333 50 -83.333 50 -156zM255.998 253c-25.333 0 -45.167 -9.66699 -59.5 -29
s-21.5 -44 -21.5 -74c0 -26.667 5.5 -47.5 16.5 -62.5s25.167 -22.5 42.5 -22.5c22.667 0 41.667 11.667 57 35v1l2 146c-12 4 -24.333 6 -37 6zM263.997 703h160v-2l-237 -165l-2 2z" />
    <glyph glyph-name="acircumflex" unicode="&#xe2;" 
d="M456 301c0 -4 -0.168945 -10.833 -0.501953 -20.5s-0.5 -14.834 -0.5 -15.501l-6 -142c-2 -38.667 7 -58 27 -58c12.667 0 22 6 28 18h2c0 -13.333 -2.66699 -25.333 -8 -36c-18 -36.667 -50.667 -55 -98 -55c-30 0 -55.333 8.5 -76 25.5s-31.667 40.833 -33 71.5
c-10 -29.333 -27.167 -52.833 -51.5 -70.5s-52.5 -26.5 -84.5 -26.5c-38.667 0 -71 12.5 -97 37.5s-39 59.5 -39 103.5c0 46.667 16.833 83.5 50.5 110.5s72.834 40.5 117.501 40.5c45.333 0 80.666 -9 105.999 -27l2 107v5c0 76.667 -24.333 115 -73 115
c-10 0 -16.167 -0.666992 -18.5 -2s-5.16602 -4.66602 -8.49902 -9.99902l-81 -150h-2l-63 143c70.667 25.333 138 38 202 38c70.667 0 122.334 -15.333 155.001 -46c33.333 -31.333 50 -83.333 50 -156zM255.998 253c-25.333 0 -45.167 -9.66699 -59.5 -29
s-21.5 -44 -21.5 -74c0 -26.667 5.5 -47.5 16.5 -62.5s25.167 -22.5 42.5 -22.5c22.667 0 41.667 11.667 57 35v1l2 146c-12 4 -24.333 6 -37 6zM414.997 536l-1 -1l-163 67l-163 -67l-1 1l163 175h2z" />
    <glyph glyph-name="atilde" unicode="&#xe3;" 
d="M456 301c0 -4 -0.168945 -10.833 -0.501953 -20.5s-0.5 -14.834 -0.5 -15.501l-6 -142c-2 -38.667 7 -58 27 -58c12.667 0 22 6 28 18h2c0 -13.333 -2.66699 -25.333 -8 -36c-18 -36.667 -50.667 -55 -98 -55c-30 0 -55.333 8.5 -76 25.5s-31.667 40.833 -33 71.5
c-10 -29.333 -27.167 -52.833 -51.5 -70.5s-52.5 -26.5 -84.5 -26.5c-38.667 0 -71 12.5 -97 37.5s-39 59.5 -39 103.5c0 46.667 16.833 83.5 50.5 110.5s72.834 40.5 117.501 40.5c45.333 0 80.666 -9 105.999 -27l2 107v5c0 76.667 -24.333 115 -73 115
c-10 0 -16.167 -0.666992 -18.5 -2s-5.16602 -4.66602 -8.49902 -9.99902l-81 -150h-2l-63 143c70.667 25.333 138 38 202 38c70.667 0 122.334 -15.333 155.001 -46c33.333 -31.333 50 -83.333 50 -156zM255.998 253c-25.333 0 -45.167 -9.66699 -59.5 -29
s-21.5 -44 -21.5 -74c0 -26.667 5.5 -47.5 16.5 -62.5s25.167 -22.5 42.5 -22.5c22.667 0 41.667 11.667 57 35v1l2 146c-12 4 -24.333 6 -37 6zM314.997 562c-18 0 -42.335 8.16504 -73.002 24.498s-53.334 24.5 -68.001 24.5c-32 0 -53.333 -16.333 -64 -49h-2v24
c0 30.667 7.83301 55.334 23.5 74.001s35.834 28 60.501 28c18 0 42.333 -8.16699 73 -24.5s53.334 -24.5 68.001 -24.5c32 0 53.667 16.333 65 49h2c0 -11.333 -0.333008 -19.666 -1 -24.999c-1.33301 -30.667 -9.66602 -55.167 -24.999 -73.5s-35 -27.5 -59 -27.5z" />
    <glyph glyph-name="adieresis" unicode="&#xe4;" 
d="M456 301c0 -4 -0.168945 -10.833 -0.501953 -20.5s-0.5 -14.834 -0.5 -15.501l-6 -142c-2 -38.667 7 -58 27 -58c12.667 0 22 6 28 18h2c0 -13.333 -2.66699 -25.333 -8 -36c-18 -36.667 -50.667 -55 -98 -55c-30 0 -55.333 8.5 -76 25.5s-31.667 40.833 -33 71.5
c-10 -29.333 -27.167 -52.833 -51.5 -70.5s-52.5 -26.5 -84.5 -26.5c-38.667 0 -71 12.5 -97 37.5s-39 59.5 -39 103.5c0 46.667 16.833 83.5 50.5 110.5s72.834 40.5 117.501 40.5c45.333 0 80.666 -9 105.999 -27l2 107v5c0 76.667 -24.333 115 -73 115
c-10 0 -16.167 -0.666992 -18.5 -2s-5.16602 -4.66602 -8.49902 -9.99902l-81 -150h-2l-63 143c70.667 25.333 138 38 202 38c70.667 0 122.334 -15.333 155.001 -46c33.333 -31.333 50 -83.333 50 -156zM255.998 253c-25.333 0 -45.167 -9.66699 -59.5 -29
s-21.5 -44 -21.5 -74c0 -26.667 5.5 -47.5 16.5 -62.5s25.167 -22.5 42.5 -22.5c22.667 0 41.667 11.667 57 35v1l2 146c-12 4 -24.333 6 -37 6zM82.9971 621c0 19.333 6.66699 35.333 20 48s29.666 19 48.999 19c18.667 0 34.667 -6.33301 48 -19s20 -28.667 20 -48
c0 -18.667 -6.66699 -34.334 -20 -47.001s-29.333 -19 -48 -19c-19.333 0 -35.666 6.33301 -48.999 19s-20 28.334 -20 47.001zM281.997 621c0 19.333 6.66699 35.333 20 48s29.333 19 48 19c19.333 0 35.666 -6.33301 48.999 -19s20 -28.667 20 -48
c0 -18.667 -6.66699 -34.334 -20 -47.001s-29.666 -19 -48.999 -19c-18.667 0 -34.667 6.33301 -48 19s-20 28.334 -20 47.001z" />
    <glyph glyph-name="aring" unicode="&#xe5;" 
d="M456 301c0 -4 -0.168945 -10.833 -0.501953 -20.5s-0.5 -14.834 -0.5 -15.501l-6 -142c-2 -38.667 7 -58 27 -58c12.667 0 22 6 28 18h2c0 -13.333 -2.66699 -25.333 -8 -36c-18 -36.667 -50.667 -55 -98 -55c-30 0 -55.333 8.5 -76 25.5s-31.667 40.833 -33 71.5
c-10 -29.333 -27.167 -52.833 -51.5 -70.5s-52.5 -26.5 -84.5 -26.5c-38.667 0 -71 12.5 -97 37.5s-39 59.5 -39 103.5c0 46.667 16.833 83.5 50.5 110.5s72.834 40.5 117.501 40.5c45.333 0 80.666 -9 105.999 -27l2 107v5c0 76.667 -24.333 115 -73 115
c-10 0 -16.167 -0.666992 -18.5 -2s-5.16602 -4.66602 -8.49902 -9.99902l-81 -150h-2l-63 143c70.667 25.333 138 38 202 38c70.667 0 122.334 -15.333 155.001 -46c33.333 -31.333 50 -83.333 50 -156zM255.998 253c-25.333 0 -45.167 -9.66699 -59.5 -29
s-21.5 -44 -21.5 -74c0 -26.667 5.5 -47.5 16.5 -62.5s25.167 -22.5 42.5 -22.5c22.667 0 41.667 11.667 57 35v1l2 146c-12 4 -24.333 6 -37 6zM346.997 631c0 -26.667 -9 -48.667 -27 -66s-40.667 -26 -68 -26c-24.667 0 -46.667 9 -66 27s-29 39.667 -29 65
c0 26.667 9 49 27 67s40.333 27 67 27c28 0 51 -8.66699 69 -26s27 -40 27 -68zM325.997 632c0 21.333 -7 38.833 -21 52.5s-32 20.5 -54 20.5c-20.667 0 -38 -6.83301 -52 -20.5s-21 -31.167 -21 -52.5c0 -20 7.33301 -37.167 22 -51.5s32 -21.5 52 -21.5
c21.333 0 39 6.83301 53 20.5s21 31.167 21 52.5z" />
    <glyph glyph-name="ae" unicode="&#xe6;" horiz-adv-x="784" 
d="M761 270l-300.002 -0.00585938v-3c0 -61.333 13.5 -107 40.5 -137s61.5 -45 103.5 -45c70 0 120.333 30.667 151 92h2c-24.667 -123.333 -98 -185 -220 -185c-44 0 -84.667 9.33301 -122 28s-66.666 46.334 -87.999 83.001c-6.66699 -28.667 -24 -54.334 -52 -77.001
s-64.333 -34 -109 -34c-42.667 0 -78 12.5 -106 37.5s-42 59.833 -42 104.5c0 46.667 16.833 83.334 50.5 110.001s72.167 40 115.5 40c42.667 0 78.667 -8.66699 108 -26c0 4.66699 0.333008 22.834 1 54.501s1 50.167 1 55.5c0 76.667 -24.667 115 -74 115
c-9.33301 0 -15.166 -0.666992 -17.499 -2s-5.16602 -4.66602 -8.49902 -9.99902l-81 -149h-2l-64 145c70 24 136 36 198 36c57.333 0 101.666 -15.333 132.999 -46l12 -14c41.333 40 92.333 60 153 60c28 0 54.333 -3.66699 79 -11s47.667 -18.666 69 -33.999
s38.333 -37.166 51 -65.499s19 -61.833 19 -100.5c0 -7.33301 -0.333008 -14.666 -1 -21.999zM540.998 483.994c-25.333 0 -44.832 -15 -58.499 -45s-20.834 -80.333 -21.501 -151h148c1.33301 74.667 -3.66699 126 -15 154s-29 42 -53 42zM244.999 63.9941
c33.333 0 59.666 15.333 78.999 46c-20 36.667 -30 80 -30 130v7c-12 4 -24.667 6 -38 6c-25.333 0 -45.166 -9.5 -59.499 -28.5s-21.5 -43.167 -21.5 -72.5c0 -27.333 6.5 -48.833 19.5 -64.5s29.833 -23.5 50.5 -23.5z" />
    <glyph glyph-name="ccedilla" unicode="&#xe7;" horiz-adv-x="471" 
d="M368 -142c0 -27.333 -10.5 -49.8311 -31.5 -67.498s-49.5 -26.5 -85.5 -26.5c-33.333 0 -62.333 8.66699 -87 26s-38 40.333 -40 69l2 1c6 -19.333 17.333 -33.833 34 -43.5s33.334 -14.5 50.001 -14.5c18 0 33.167 4.83301 45.5 14.5s18.5 23.5 18.5 41.5
s-6.16699 31.833 -18.5 41.5s-27.833 14.5 -46.5 14.5c-13.333 0 -26 -2.33301 -38 -7l-1 2l70 83c-62 3.33301 -114.167 26.5 -156.5 69.5s-63.5 103.167 -63.5 180.5c0 46 7.66699 86.5 23 121.5s36 62.333 62 82s54.167 34.167 84.5 43.5s62.5 14 96.5 14
c53.333 0 110 -10 170 -30l-64 -172h-2l-77 171c-2 5.33301 -4 8.66602 -6 9.99902s-6 2 -12 2h-5c-63.333 0 -95 -64.667 -95 -194c0 -70.667 12.833 -122.334 38.5 -155.001s57.834 -49 96.501 -49c53.333 0 94.333 27.333 123 82h2
c-8.66699 -55.333 -30.334 -98.5 -65.001 -129.5s-80.334 -46.5 -137.001 -46.5h-8l-7 -52c36 6.66699 66.667 1.66699 92 -15s38 -39 38 -67z" />
    <glyph glyph-name="egrave" unicode="&#xe8;" 
d="M490 270l-300.003 -0.00390625v-2c0 -61.333 13.333 -107.166 40 -137.499s61 -45.5 103 -45.5c70.667 0 121.334 30.667 152.001 92h2c-25.333 -123.333 -99 -185 -221 -185c-68.667 0 -126.667 21.333 -174 64s-71 105.334 -71 188.001c0 87.333 23.667 152.333 71 195
s107.333 64 180 64c28 0 54.333 -3.66699 79 -11s47.834 -18.666 69.501 -33.999s38.834 -37.166 51.501 -65.499s19 -61.833 19 -100.5c0 -6.66699 -0.333008 -14 -1 -22zM269.997 483.996c-26 0 -45.667 -15.167 -59 -45.5s-20.333 -80.5 -21 -150.5h147
c0.666992 8.66699 1 18.667 1 30c0 62 -5.83301 105.167 -17.5 129.5s-28.5 36.5 -50.5 36.5zM101.997 702.996h160l79 -165l-1 -1l-238 164v2z" />
    <glyph glyph-name="eacute" unicode="&#xe9;" 
d="M285 703h160v-2l-237 -165l-2 2zM490 270l-300.003 -0.00390625v-2c0 -61.333 13.333 -107.166 40 -137.499s61 -45.5 103 -45.5c70.667 0 121.334 30.667 152.001 92h2c-25.333 -123.333 -99 -185 -221 -185c-68.667 0 -126.667 21.333 -174 64s-71 105.334 -71 188.001
c0 87.333 23.667 152.333 71 195s107.333 64 180 64c28 0 54.333 -3.66699 79 -11s47.834 -18.666 69.501 -33.999s38.834 -37.166 51.501 -65.499s19 -61.833 19 -100.5c0 -6.66699 -0.333008 -14 -1 -22zM269.997 483.996c-26 0 -45.667 -15.167 -59 -45.5
s-20.333 -80.5 -21 -150.5h147c0.666992 8.66699 1 18.667 1 30c0 62 -5.83301 105.167 -17.5 129.5s-28.5 36.5 -50.5 36.5z" />
    <glyph glyph-name="ecircumflex" unicode="&#xea;" 
d="M436 536l-1 -1l-163 67l-163 -67l-1 1l163 175h2zM490 270l-300.003 -0.00390625v-2c0 -61.333 13.333 -107.166 40 -137.499s61 -45.5 103 -45.5c70.667 0 121.334 30.667 152.001 92h2c-25.333 -123.333 -99 -185 -221 -185c-68.667 0 -126.667 21.333 -174 64
s-71 105.334 -71 188.001c0 87.333 23.667 152.333 71 195s107.333 64 180 64c28 0 54.333 -3.66699 79 -11s47.834 -18.666 69.501 -33.999s38.834 -37.166 51.501 -65.499s19 -61.833 19 -100.5c0 -6.66699 -0.333008 -14 -1 -22zM269.997 483.996
c-26 0 -45.667 -15.167 -59 -45.5s-20.333 -80.5 -21 -150.5h147c0.666992 8.66699 1 18.667 1 30c0 62 -5.83301 105.167 -17.5 129.5s-28.5 36.5 -50.5 36.5z" />
    <glyph glyph-name="edieresis" unicode="&#xeb;" 
d="M103 621c0 19.333 6.66699 35.333 20 48s29.666 19 48.999 19c18.667 0 34.667 -6.33301 48 -19s20 -28.667 20 -48c0 -18.667 -6.66699 -34.334 -20 -47.001s-29.333 -19 -48 -19c-19.333 0 -35.666 6.33301 -48.999 19s-20 28.334 -20 47.001zM302 621
c0 19.333 6.66699 35.333 20 48s29.333 19 48 19c19.333 0 35.666 -6.33301 48.999 -19s20 -28.667 20 -48c0 -18.667 -6.66699 -34.334 -20 -47.001s-29.666 -19 -48.999 -19c-18.667 0 -34.667 6.33301 -48 19s-20 28.334 -20 47.001zM490 270l-300.003 -0.00390625v-2
c0 -61.333 13.333 -107.166 40 -137.499s61 -45.5 103 -45.5c70.667 0 121.334 30.667 152.001 92h2c-25.333 -123.333 -99 -185 -221 -185c-68.667 0 -126.667 21.333 -174 64s-71 105.334 -71 188.001c0 87.333 23.667 152.333 71 195s107.333 64 180 64
c28 0 54.333 -3.66699 79 -11s47.834 -18.666 69.501 -33.999s38.834 -37.166 51.501 -65.499s19 -61.833 19 -100.5c0 -6.66699 -0.333008 -14 -1 -22zM269.997 483.996c-26 0 -45.667 -15.167 -59 -45.5s-20.333 -80.5 -21 -150.5h147c0.666992 8.66699 1 18.667 1 30
c0 62 -5.83301 105.167 -17.5 129.5s-28.5 36.5 -50.5 36.5z" />
    <glyph glyph-name="igrave" unicode="&#xec;" horiz-adv-x="310" 
d="M242 495v-423c0 -9.33301 3.33301 -17.333 10 -24l49 -46v-2h-280v2l49 46c6 6 9 14 9 24v346c0 10 -3 18.333 -9 25l-49 50v2h221zM-15 703h160l79 -165l-1 -1l-238 164v2z" />
    <glyph glyph-name="iacute" unicode="&#xed;" horiz-adv-x="310" 
d="M167 703h160v-2l-237 -165l-2 2zM242 495v-423c0 -9.33301 3.33301 -17.333 10 -24l49 -46v-2h-280v2l49 46c6 6 9 14 9 24v346c0 10 -3 18.333 -9 25l-49 50v2h221z" />
    <glyph glyph-name="icircumflex" unicode="&#xee;" horiz-adv-x="310" 
d="M314 536l-1 -1l-163 67l-163 -67l-1 1l163 175h2zM242 495v-423c0 -9.33301 3.33301 -17.333 10 -24l49 -46v-2h-280v2l49 46c6 6 9 14 9 24v346c0 10 -3 18.333 -9 25l-49 50v2h221z" />
    <glyph glyph-name="idieresis" unicode="&#xef;" horiz-adv-x="310" 
d="M-18 621c0 19.333 6.66699 35.333 20 48s29.666 19 48.999 19c18.667 0 34.667 -6.33301 48 -19s20 -28.667 20 -48c0 -18.667 -6.66699 -34.334 -20 -47.001s-29.333 -19 -48 -19c-19.333 0 -35.666 6.33301 -48.999 19s-20 28.334 -20 47.001zM181 621
c0 19.333 6.66699 35.333 20 48s29.333 19 48 19c19.333 0 35.666 -6.33301 48.999 -19s20 -28.667 20 -48c0 -18.667 -6.66699 -34.334 -20 -47.001s-29.666 -19 -48.999 -19c-18.667 0 -34.667 6.33301 -48 19s-20 28.334 -20 47.001zM242 495v-423
c0 -9.33301 3.33301 -17.333 10 -24l49 -46v-2h-280v2l49 46c6 6 9 14 9 24v346c0 10 -3 18.333 -9 25l-49 50v2h221z" />
    <glyph glyph-name="eth" unicode="&#xf0;" horiz-adv-x="562" 
d="M118 711l-0.000976562 1.99902c2.66699 0 7.33398 -0.333008 14.001 -1h9c80.667 -4.66699 149.667 -24 207 -58l120 66l9 -17l-111 -60c57.333 -37.333 100.5 -87.166 129.5 -149.499s43.5 -131.5 43.5 -207.5c0 -196 -88.333 -294 -265 -294
c-74 0 -134.333 22.333 -181 67s-70 107.334 -70 188.001c0 74.667 20.833 134.667 62.5 180s91.167 68 148.5 68c52.667 0 92.667 -20 120 -60c-13.333 67.333 -35.666 122.666 -66.999 165.999l-126 -68l-8 16l123 66c-38.667 47.333 -91.334 79.333 -158.001 96z
M368.999 274.999c0 50 -3.66699 97.667 -11 143c-16.667 19.333 -37.667 29 -63 29c-60.667 0 -91 -72 -91 -216c0 -146.667 26.333 -220 79 -220c57.333 0 86 88 86 264z" />
    <glyph glyph-name="ntilde" unicode="&#xf1;" horiz-adv-x="615" 
d="M557 292c0 -24 -0.5 -63.834 -1.5 -119.501s-1.5 -89.167 -1.5 -100.5c0 -10 3 -18 9 -24l50 -46v-2h-281v2l48 46c6 6 9 13.667 9 23c0 2 0.5 30.833 1.5 86.5s1.5 92.834 1.5 111.501c0 50 -5.33301 87.667 -16 113s-30.667 38 -60 38s-54 -14.667 -74 -44v-304
c0 -10.667 3 -18.667 9 -24l49 -46v-2h-280v2l49 46c6 5.33301 9 13.333 9 24v346c0 10 -3 18.333 -9 25l-49 50v2h222v-106c27.333 76 80.333 114 159 114c50 0 88.5 -18 115.5 -54s40.5 -88.333 40.5 -157zM376 561.999c-18 0 -42.335 8.16504 -73.002 24.498
s-53.334 24.5 -68.001 24.5c-32 0 -53.333 -16.333 -64 -49h-2v24c0 30.667 7.83301 55.334 23.5 74.001s35.834 28 60.501 28c18 0 42.333 -8.16699 73 -24.5s53.334 -24.5 68.001 -24.5c32 0 53.667 16.333 65 49h2c0 -11.333 -0.333008 -19.666 -1 -24.999
c-1.33301 -30.667 -9.66602 -55.167 -24.999 -73.5s-35 -27.5 -59 -27.5z" />
    <glyph glyph-name="ograve" unicode="&#xf2;" horiz-adv-x="571" 
d="M285 484c-27.333 0 -47.666 -16.5 -60.999 -49.5s-20 -95.167 -20 -186.5c0 -90.667 6.66699 -153 20 -187s33.666 -51 60.999 -51s47.666 16.667 60.999 50s20 95.666 20 186.999c0 90.667 -6.66699 152.834 -20 186.501s-33.666 50.5 -60.999 50.5zM285 -8
c-81.333 0 -145.498 21.833 -192.498 65.5s-70.5 107.167 -70.5 190.5c0 82 23.667 145 71 189s111.333 66 192 66c81.333 0 145.666 -21.833 192.999 -65.5s71 -107.167 71 -190.5c0 -82 -23.833 -145 -71.5 -189s-111.834 -66 -192.501 -66zM115.002 703h160l79 -165
l-1 -1l-238 164v2z" />
    <glyph glyph-name="oacute" unicode="&#xf3;" horiz-adv-x="571" 
d="M298 703h160v-2l-237 -165l-2 2zM285 484c-27.333 0 -47.666 -16.5 -60.999 -49.5s-20 -95.167 -20 -186.5c0 -90.667 6.66699 -153 20 -187s33.666 -51 60.999 -51s47.666 16.667 60.999 50s20 95.666 20 186.999c0 90.667 -6.66699 152.834 -20 186.501
s-33.666 50.5 -60.999 50.5zM285 -8c-81.333 0 -145.498 21.833 -192.498 65.5s-70.5 107.167 -70.5 190.5c0 82 23.667 145 71 189s111.333 66 192 66c81.333 0 145.666 -21.833 192.999 -65.5s71 -107.167 71 -190.5c0 -82 -23.833 -145 -71.5 -189
s-111.834 -66 -192.501 -66z" />
    <glyph glyph-name="ocircumflex" unicode="&#xf4;" horiz-adv-x="571" 
d="M449 536l-1 -1l-163 67l-163 -67l-1 1l163 175h2zM285 484c-27.333 0 -47.666 -16.5 -60.999 -49.5s-20 -95.167 -20 -186.5c0 -90.667 6.66699 -153 20 -187s33.666 -51 60.999 -51s47.666 16.667 60.999 50s20 95.666 20 186.999
c0 90.667 -6.66699 152.834 -20 186.501s-33.666 50.5 -60.999 50.5zM285 -8c-81.333 0 -145.498 21.833 -192.498 65.5s-70.5 107.167 -70.5 190.5c0 82 23.667 145 71 189s111.333 66 192 66c81.333 0 145.666 -21.833 192.999 -65.5s71 -107.167 71 -190.5
c0 -82 -23.833 -145 -71.5 -189s-111.834 -66 -192.501 -66z" />
    <glyph glyph-name="otilde" unicode="&#xf5;" horiz-adv-x="571" 
d="M285 484c-27.333 0 -47.666 -16.5 -60.999 -49.5s-20 -95.167 -20 -186.5c0 -90.667 6.66699 -153 20 -187s33.666 -51 60.999 -51s47.666 16.667 60.999 50s20 95.666 20 186.999c0 90.667 -6.66699 152.834 -20 186.501s-33.666 50.5 -60.999 50.5zM285 -8
c-81.333 0 -145.498 21.833 -192.498 65.5s-70.5 107.167 -70.5 190.5c0 82 23.667 145 71 189s111.333 66 192 66c81.333 0 145.666 -21.833 192.999 -65.5s71 -107.167 71 -190.5c0 -82 -23.833 -145 -71.5 -189s-111.834 -66 -192.501 -66zM349.002 562
c-18 0 -42.335 8.16504 -73.002 24.498s-53.334 24.5 -68.001 24.5c-32 0 -53.333 -16.333 -64 -49h-2v24c0 30.667 7.83301 55.334 23.5 74.001s35.834 28 60.501 28c18 0 42.333 -8.16699 73 -24.5s53.334 -24.5 68.001 -24.5c32 0 53.667 16.333 65 49h2
c0 -11.333 -0.333008 -19.666 -1 -24.999c-1.33301 -30.667 -9.66602 -55.167 -24.999 -73.5s-35 -27.5 -59 -27.5z" />
    <glyph glyph-name="odieresis" unicode="&#xf6;" horiz-adv-x="571" 
d="M117 621c0 19.333 6.66699 35.333 20 48s29.666 19 48.999 19c18.667 0 34.667 -6.33301 48 -19s20 -28.667 20 -48c0 -18.667 -6.66699 -34.334 -20 -47.001s-29.333 -19 -48 -19c-19.333 0 -35.666 6.33301 -48.999 19s-20 28.334 -20 47.001zM316 621
c0 19.333 6.66699 35.333 20 48s29.333 19 48 19c19.333 0 35.666 -6.33301 48.999 -19s20 -28.667 20 -48c0 -18.667 -6.66699 -34.334 -20 -47.001s-29.666 -19 -48.999 -19c-18.667 0 -34.667 6.33301 -48 19s-20 28.334 -20 47.001zM285 484
c-27.333 0 -47.666 -16.5 -60.999 -49.5s-20 -95.167 -20 -186.5c0 -90.667 6.66699 -153 20 -187s33.666 -51 60.999 -51s47.666 16.667 60.999 50s20 95.666 20 186.999c0 90.667 -6.66699 152.834 -20 186.501s-33.666 50.5 -60.999 50.5zM285 -8
c-81.333 0 -145.498 21.833 -192.498 65.5s-70.5 107.167 -70.5 190.5c0 82 23.667 145 71 189s111.333 66 192 66c81.333 0 145.666 -21.833 192.999 -65.5s71 -107.167 71 -190.5c0 -82 -23.833 -145 -71.5 -189s-111.834 -66 -192.501 -66z" />
    <glyph glyph-name="divide" unicode="&#xf7;" horiz-adv-x="540" 
d="M50 311v19h440v-19h-440zM191 478c0 22 7.5 39.667 22.5 53s33.167 20 54.5 20s39.333 -6.66699 54 -20s22 -31 22 -53c0 -21.333 -7.33301 -38.333 -22 -51s-32.667 -19 -54 -19s-39.5 6.5 -54.5 19.5s-22.5 29.833 -22.5 50.5zM191 158c0 22 7.5 39.667 22.5 53
s33.167 20 54.5 20s39.333 -6.66699 54 -20s22 -31 22 -53c0 -21.333 -7.33301 -38.333 -22 -51s-32.667 -19 -54 -19s-39.5 6.5 -54.5 19.5s-22.5 29.833 -22.5 50.5z" />
    <glyph glyph-name="oslash" unicode="&#xf8;" horiz-adv-x="571" 
d="M438 567l-37 -82.999c98.667 -35.333 148 -114.333 148 -237c0 -83.333 -23.667 -146.666 -71 -189.999s-111.666 -65 -192.999 -65c-35.333 0 -67.333 4 -96 12l-37 -85l-19 8l36 83c-98.667 35.333 -148 114.666 -148 237.999c0 83.333 23.667 146.666 71 189.999
s111.666 65 192.999 65c35.333 0 67.333 -4 96 -12l38 84zM285 484.001c-18 0 -32.5 -6 -43.5 -18s-19.833 -35.667 -26.5 -71s-10 -84.333 -10 -147c0 -62 2.66699 -108.667 8 -140l137 312c-11.333 42.667 -33 64 -65 64zM366 247.001c0 56 -2.66699 102 -8 138l-138 -312
c12 -41.333 33.667 -62 65 -62c18.667 0 33.5 6 44.5 18s19.833 35.667 26.5 71s10 84.333 10 147z" />
    <glyph glyph-name="ugrave" unicode="&#xf9;" horiz-adv-x="595" 
d="M527 495l0.000976562 -419.001c0 -11.333 3 -19.666 9 -24.999l50 -49v-2h-223v107c-12.667 -35.333 -32.334 -63.333 -59.001 -84s-58 -31 -94 -31c-49.333 0 -87 17.667 -113 53s-39 87 -39 155c0 38 0.666992 111 2 219c0 10 -3 18 -9 24l-49 50v2h221l-1 -132v-140
c0 -48.667 5 -85.667 15 -111s28 -38 54 -38c27.333 0 51.333 15 72 45v299c0 10 -3 18.333 -9 25l-49 50v2h222zM113.001 702.999h160l79 -165l-1 -1l-238 164v2z" />
    <glyph glyph-name="uacute" unicode="&#xfa;" horiz-adv-x="595" 
d="M296 703h160v-2l-237 -165l-2 2zM527 495l0.000976562 -419.001c0 -11.333 3 -19.666 9 -24.999l50 -49v-2h-223v107c-12.667 -35.333 -32.334 -63.333 -59.001 -84s-58 -31 -94 -31c-49.333 0 -87 17.667 -113 53s-39 87 -39 155c0 38 0.666992 111 2 219
c0 10 -3 18 -9 24l-49 50v2h221l-1 -132v-140c0 -48.667 5 -85.667 15 -111s28 -38 54 -38c27.333 0 51.333 15 72 45v299c0 10 -3 18.333 -9 25l-49 50v2h222z" />
    <glyph glyph-name="ucircumflex" unicode="&#xfb;" horiz-adv-x="595" 
d="M447 536l-1 -1l-163 67l-163 -67l-1 1l163 175h2zM527 495l0.000976562 -419.001c0 -11.333 3 -19.666 9 -24.999l50 -49v-2h-223v107c-12.667 -35.333 -32.334 -63.333 -59.001 -84s-58 -31 -94 -31c-49.333 0 -87 17.667 -113 53s-39 87 -39 155
c0 38 0.666992 111 2 219c0 10 -3 18 -9 24l-49 50v2h221l-1 -132v-140c0 -48.667 5 -85.667 15 -111s28 -38 54 -38c27.333 0 51.333 15 72 45v299c0 10 -3 18.333 -9 25l-49 50v2h222z" />
    <glyph glyph-name="udieresis" unicode="&#xfc;" horiz-adv-x="595" 
d="M115 621c0 19.333 6.66699 35.333 20 48s29.666 19 48.999 19c18.667 0 34.667 -6.33301 48 -19s20 -28.667 20 -48c0 -18.667 -6.66699 -34.334 -20 -47.001s-29.333 -19 -48 -19c-19.333 0 -35.666 6.33301 -48.999 19s-20 28.334 -20 47.001zM314 621
c0 19.333 6.66699 35.333 20 48s29.333 19 48 19c19.333 0 35.666 -6.33301 48.999 -19s20 -28.667 20 -48c0 -18.667 -6.66699 -34.334 -20 -47.001s-29.666 -19 -48.999 -19c-18.667 0 -34.667 6.33301 -48 19s-20 28.334 -20 47.001zM527 495l0.000976562 -419.001
c0 -11.333 3 -19.666 9 -24.999l50 -49v-2h-223v107c-12.667 -35.333 -32.334 -63.333 -59.001 -84s-58 -31 -94 -31c-49.333 0 -87 17.667 -113 53s-39 87 -39 155c0 38 0.666992 111 2 219c0 10 -3 18 -9 24l-49 50v2h221l-1 -132v-140c0 -48.667 5 -85.667 15 -111
s28 -38 54 -38c27.333 0 51.333 15 72 45v299c0 10 -3 18.333 -9 25l-49 50v2h222z" />
    <glyph glyph-name="yacute" unicode="&#xfd;" horiz-adv-x="476" 
d="M408 329l-127.998 -310.001c-26 -62 -54.667 -117.333 -86 -166c-20.667 -32 -41.5 -54.833 -62.5 -68.5s-46.5 -20.5 -76.5 -20.5c-16 0 -31.667 3.33301 -47 10l37 175h2l99 -98c5.33301 -5.33301 9.33301 -8 12 -8c4.66699 0 9.66699 4 15 12
c13.333 18.667 26 41.667 38 69l6 16l-186 472c-3.33301 8.66699 -8.33301 19.667 -15 33l-27 48v2h259v-2l-40 -55c-4.66699 -6.66699 -5.33398 -14.334 -2.00098 -23.001l101 -280l81 197c3.33301 8.66699 5.16602 14.834 5.49902 18.501s-1.5 9.83398 -5.5 18.501
l-61 124v2h171v-2l-65 -112c-8.66699 -14 -17 -31.333 -25 -52zM279.002 702.999h160v-2l-237 -165l-2 2z" />
    <glyph glyph-name="thorn" unicode="&#xfe;" horiz-adv-x="584" 
d="M372 503c56.667 0 102.331 -21.833 136.998 -65.5s52 -103.5 52 -179.5c0 -79.333 -19.667 -143.5 -59 -192.5s-90 -73.5 -152 -73.5c-70.667 0 -115 27 -133 81v-221c0 -6.66699 0.833008 -11.5 2.5 -14.5s5.83398 -6.83301 12.501 -11.5l74 -52v-2h-310v2l48 46
c6 5.33301 9 13.333 9 24v783c0 10 -3 18 -9 24l-48 50v2l221 19v-335c30.667 77.333 82.334 116 155.001 116zM291.997 420c-30.667 0 -55.6689 -15 -75.002 -45v-295c14.667 -20 36.334 -30 65.001 -30s53.334 16.5 74.001 49.5s31 83.167 31 150.5
c0 62 -8 105.833 -24 131.5s-39.667 38.5 -71 38.5z" />
    <glyph glyph-name="ydieresis" unicode="&#xff;" horiz-adv-x="476" 
d="M408 329l-127.998 -310.001c-26 -62 -54.667 -117.333 -86 -166c-20.667 -32 -41.5 -54.833 -62.5 -68.5s-46.5 -20.5 -76.5 -20.5c-16 0 -31.667 3.33301 -47 10l37 175h2l99 -98c5.33301 -5.33301 9.33301 -8 12 -8c4.66699 0 9.66699 4 15 12
c13.333 18.667 26 41.667 38 69l6 16l-186 472c-3.33301 8.66699 -8.33301 19.667 -15 33l-27 48v2h259v-2l-40 -55c-4.66699 -6.66699 -5.33398 -14.334 -2.00098 -23.001l101 -280l81 197c3.33301 8.66699 5.16602 14.834 5.49902 18.501s-1.5 9.83398 -5.5 18.501
l-61 124v2h171v-2l-65 -112c-8.66699 -14 -17 -31.333 -25 -52zM97.002 620.999c0 19.333 6.66699 35.333 20 48s29.666 19 48.999 19c18.667 0 34.667 -6.33301 48 -19s20 -28.667 20 -48c0 -18.667 -6.66699 -34.334 -20 -47.001s-29.333 -19 -48 -19
c-19.333 0 -35.666 6.33301 -48.999 19s-20 28.334 -20 47.001zM296.002 620.999c0 19.333 6.66699 35.333 20 48s29.333 19 48 19c19.333 0 35.666 -6.33301 48.999 -19s20 -28.667 20 -48c0 -18.667 -6.66699 -34.334 -20 -47.001s-29.666 -19 -48.999 -19
c-18.667 0 -34.667 6.33301 -48 19s-20 28.334 -20 47.001z" />
    <glyph glyph-name="Amacron" unicode="&#x100;" horiz-adv-x="656" 
d="M147 245l-26.001 -80.001c-2.66699 -8 -3.5 -13.667 -2.5 -17s4.5 -9.33301 10.5 -18l89 -128v-2h-237v2l96 128c10.667 14 18.334 28 23.001 42l139 426c3.33301 9.33301 4.66602 15.833 3.99902 19.5s-4 8.83398 -10 15.501l-59 68v2h235l187 -593
c3.33301 -11.333 10 -25 20 -41l42 -67v-2h-296v2l48 67c4.66699 6.66699 5.33398 15.667 2.00098 27l-47 149h-218zM257.999 588.999l-105 -324h206zM451.999 799.999h-281v20h281v-20z" />
    <glyph glyph-name="amacron" unicode="&#x101;" 
d="M456 301c0 -4 -0.168945 -10.833 -0.501953 -20.5s-0.5 -14.834 -0.5 -15.501l-6 -142c-2 -38.667 7 -58 27 -58c12.667 0 22 6 28 18h2c0 -13.333 -2.66699 -25.333 -8 -36c-18 -36.667 -50.667 -55 -98 -55c-30 0 -55.333 8.5 -76 25.5s-31.667 40.833 -33 71.5
c-10 -29.333 -27.167 -52.833 -51.5 -70.5s-52.5 -26.5 -84.5 -26.5c-38.667 0 -71 12.5 -97 37.5s-39 59.5 -39 103.5c0 46.667 16.833 83.5 50.5 110.5s72.834 40.5 117.501 40.5c45.333 0 80.666 -9 105.999 -27l2 107v5c0 76.667 -24.333 115 -73 115
c-10 0 -16.167 -0.666992 -18.5 -2s-5.16602 -4.66602 -8.49902 -9.99902l-81 -150h-2l-63 143c70.667 25.333 138 38 202 38c70.667 0 122.334 -15.333 155.001 -46c33.333 -31.333 50 -83.333 50 -156zM255.998 253c-25.333 0 -45.167 -9.66699 -59.5 -29
s-21.5 -44 -21.5 -74c0 -26.667 5.5 -47.5 16.5 -62.5s25.167 -22.5 42.5 -22.5c22.667 0 41.667 11.667 57 35v1l2 146c-12 4 -24.333 6 -37 6zM390.997 592h-281v20h281v-20z" />
    <glyph glyph-name="Abreve" unicode="&#x102;" horiz-adv-x="656" 
d="M147 245l-26.001 -80.001c-2.66699 -8 -3.5 -13.667 -2.5 -17s4.5 -9.33301 10.5 -18l89 -128v-2h-237v2l96 128c10.667 14 18.334 28 23.001 42l139 426c3.33301 9.33301 4.66602 15.833 3.99902 19.5s-4 8.83398 -10 15.501l-59 68v2h235l187 -593
c3.33301 -11.333 10 -25 20 -41l42 -67v-2h-296v2l48 67c4.66699 6.66699 5.33398 15.667 2.00098 27l-47 149h-218zM257.999 588.999l-105 -324h206zM309.999 824.999c37.333 0 67.1689 8.16699 89.502 24.5s34.5 39.833 36.5 70.5h2c2.66699 -20 4 -34 4 -42
c0 -42.667 -12.833 -75 -38.5 -97s-56.834 -33 -93.501 -33c-36 0 -66.667 11 -92 33s-38 54.333 -38 97c0 14.667 1.33301 28.667 4 42h2c1.33301 -30.667 13.166 -54.167 35.499 -70.5s51.833 -24.5 88.5 -24.5z" />
    <glyph glyph-name="abreve" unicode="&#x103;" 
d="M456 301c0 -4 -0.168945 -10.833 -0.501953 -20.5s-0.5 -14.834 -0.5 -15.501l-6 -142c-2 -38.667 7 -58 27 -58c12.667 0 22 6 28 18h2c0 -13.333 -2.66699 -25.333 -8 -36c-18 -36.667 -50.667 -55 -98 -55c-30 0 -55.333 8.5 -76 25.5s-31.667 40.833 -33 71.5
c-10 -29.333 -27.167 -52.833 -51.5 -70.5s-52.5 -26.5 -84.5 -26.5c-38.667 0 -71 12.5 -97 37.5s-39 59.5 -39 103.5c0 46.667 16.833 83.5 50.5 110.5s72.834 40.5 117.501 40.5c45.333 0 80.666 -9 105.999 -27l2 107v5c0 76.667 -24.333 115 -73 115
c-10 0 -16.167 -0.666992 -18.5 -2s-5.16602 -4.66602 -8.49902 -9.99902l-81 -150h-2l-63 143c70.667 25.333 138 38 202 38c70.667 0 122.334 -15.333 155.001 -46c33.333 -31.333 50 -83.333 50 -156zM255.998 253c-25.333 0 -45.167 -9.66699 -59.5 -29
s-21.5 -44 -21.5 -74c0 -26.667 5.5 -47.5 16.5 -62.5s25.167 -22.5 42.5 -22.5c22.667 0 41.667 11.667 57 35v1l2 146c-12 4 -24.333 6 -37 6zM247.997 617c37.333 0 67.1689 8.16699 89.502 24.5s34.5 39.833 36.5 70.5h2c2.66699 -20 4 -34 4 -42
c0 -42.667 -12.833 -75 -38.5 -97s-56.834 -33 -93.501 -33c-36 0 -66.667 11 -92 33s-38 54.333 -38 97c0 14.667 1.33301 28.667 4 42h2c1.33301 -30.667 13.166 -54.167 35.499 -70.5s51.833 -24.5 88.5 -24.5z" />
    <glyph glyph-name="Aogonek" unicode="&#x104;" horiz-adv-x="656" 
d="M147 245l-26.001 -79.999c-2.66699 -8 -3.5 -13.667 -2.5 -17s4.5 -9.33301 10.5 -18l89 -128v-2h-237v2l96 128c10.667 14 18.334 28 23.001 42l139 426c3.33301 9.33301 4.66602 15.833 3.99902 19.5s-4 8.83398 -10 15.501l-59 68v2h235l187 -593
c3.33301 -11.333 10 -25 20 -41l42 -67v-2h-284c-20.667 -10.667 -36.667 -25 -48 -43s-17 -37.667 -17 -59c0 -24.667 6.66699 -43.834 20 -57.501s31 -20.5 53 -20.5c33.333 0 60 15 80 45l2 -1c-22.667 -66.667 -65 -100 -127 -100c-30 0 -55.667 9.16699 -77 27.5
s-32 43.166 -32 74.499c0 30 12.333 57.333 37 82s57 42.667 97 54l48 67c4.66699 6.66699 5.33398 15.667 2.00098 27l-47 149h-218zM257.999 589.001l-105 -324h206z" />
    <glyph glyph-name="aogonek" unicode="&#x105;" 
d="M389 -236c-30 0 -55.668 9.16895 -77.001 27.502s-32 43.166 -32 74.499c0 29.333 11.167 55 33.5 77s52.833 38.333 91.5 49h-5c-30 0 -55.333 8.5 -76 25.5s-31.667 40.833 -33 71.5c-10 -29.333 -27.167 -52.833 -51.5 -70.5s-52.5 -26.5 -84.5 -26.5
c-38.667 0 -71 12.5 -97 37.5s-39 59.5 -39 103.5c0 46.667 16.833 83.5 50.5 110.5s72.834 40.5 117.501 40.5c45.333 0 80.666 -9 105.999 -27l2 107v5c0 76.667 -24.333 115 -73 115c-13.333 0 -22.333 -4 -27 -12l-81 -150h-2l-63 143c70.667 25.333 138 38 202 38
c70.667 0 122.334 -15.333 155.001 -46c33.333 -31.333 50 -83.333 50 -156c0 -4 -0.333008 -13.667 -1 -29s-1 -23.333 -1 -24l-5 -125c-2 -38.667 7 -58 27 -58c12.667 0 22 6 28 18h2c0 -13.333 -2.66699 -25.333 -8 -36c-12.667 -26.667 -35.667 -44 -69 -52
c-45.333 -18.667 -68 -51 -68 -97c0 -24.667 6.66699 -43.834 20 -57.501s31 -20.5 53 -20.5c33.333 0 60 15 80 45l2 -1c-22.667 -66.667 -65 -100 -127 -100zM255.999 253.002c-25.333 0 -45.167 -9.66699 -59.5 -29s-21.5 -44 -21.5 -74c0 -26.667 5.5 -47.5 16.5 -62.5
s25.167 -22.5 42.5 -22.5c22.667 0 41.667 11.667 57 35l2 147c-12 4 -24.333 6 -37 6z" />
    <glyph glyph-name="Cacute" unicode="&#x106;" horiz-adv-x="633" 
d="M381 911h160v-2l-237 -165l-2 2zM586 694l0.000976562 -246.001h-2l-152 230c-6.66699 10.667 -17.667 16 -33 16h-14c-101.333 0 -152 -114.667 -152 -344c0 -227.333 51.333 -341 154 -341h11c15.333 0 26.333 4.66699 33 14l153 236h2v-251
c-65.333 -12 -136.333 -18 -213 -18c-116 0 -202.667 31.833 -260 95.5s-86 151.834 -86 264.501c0 112 29.667 200.5 89 265.5s143.666 97.5 252.999 97.5c74.667 0 147 -6.33301 217 -19z" />
    <glyph glyph-name="cacute" unicode="&#x107;" horiz-adv-x="471" 
d="M292 703h160v-2l-237 -165l-2 2zM253 -8c-64.667 0 -119.666 21.6689 -164.999 65.002s-68 105 -68 185c0 46 7.66699 86.5 23 121.5s36 62.333 62 82s54.167 34.167 84.5 43.5s62.5 14 96.5 14c53.333 0 110 -10 170 -30l-64 -172h-2l-77 171
c-2 5.33301 -4 8.66602 -6 9.99902s-6 2 -12 2h-5c-63.333 0 -95 -64.667 -95 -194c0 -70.667 12.833 -122.334 38.5 -155.001s57.834 -49 96.501 -49c53.333 0 94.333 27.333 123 82h2c-8.66699 -55.333 -30.334 -98.5 -65.001 -129.5s-80.334 -46.5 -137.001 -46.5z" />
    <glyph glyph-name="Ccircumflex" unicode="&#x108;" horiz-adv-x="633" 
d="M532 744l-1 -1l-163 67l-163 -67l-1 1l163 175h2zM586 694l0.000976562 -246.001h-2l-152 230c-6.66699 10.667 -17.667 16 -33 16h-14c-101.333 0 -152 -114.667 -152 -344c0 -227.333 51.333 -341 154 -341h11c15.333 0 26.333 4.66699 33 14l153 236h2v-251
c-65.333 -12 -136.333 -18 -213 -18c-116 0 -202.667 31.833 -260 95.5s-86 151.834 -86 264.501c0 112 29.667 200.5 89 265.5s143.666 97.5 252.999 97.5c74.667 0 147 -6.33301 217 -19z" />
    <glyph glyph-name="ccircumflex" unicode="&#x109;" horiz-adv-x="471" 
d="M443 536l-1 -1l-163 67l-163 -67l-1 1l163 175h2zM253 -8c-64.667 0 -119.666 21.6689 -164.999 65.002s-68 105 -68 185c0 46 7.66699 86.5 23 121.5s36 62.333 62 82s54.167 34.167 84.5 43.5s62.5 14 96.5 14c53.333 0 110 -10 170 -30l-64 -172h-2l-77 171
c-2 5.33301 -4 8.66602 -6 9.99902s-6 2 -12 2h-5c-63.333 0 -95 -64.667 -95 -194c0 -70.667 12.833 -122.334 38.5 -155.001s57.834 -49 96.501 -49c53.333 0 94.333 27.333 123 82h2c-8.66699 -55.333 -30.334 -98.5 -65.001 -129.5s-80.334 -46.5 -137.001 -46.5z" />
    <glyph glyph-name="Cdotaccent" unicode="&#x10a;" horiz-adv-x="633" 
d="M586 694l0.000976562 -246.001h-2l-152 230c-6.66699 10.667 -17.667 16 -33 16h-14c-101.333 0 -152 -114.667 -152 -344c0 -227.333 51.333 -341 154 -341h11c15.333 0 26.333 4.66699 33 14l153 236h2v-251c-65.333 -12 -136.333 -18 -213 -18
c-116 0 -202.667 31.833 -260 95.5s-86 151.834 -86 264.501c0 112 29.667 200.5 89 265.5s143.666 97.5 252.999 97.5c74.667 0 147 -6.33301 217 -19zM291.001 831.999c0 22 7.5 39.667 22.5 53s33.167 20 54.5 20s39.333 -6.66699 54 -20s22 -31 22 -53
c0 -21.333 -7.33301 -38.333 -22 -51s-32.667 -19 -54 -19s-39.5 6.5 -54.5 19.5s-22.5 29.833 -22.5 50.5z" />
    <glyph glyph-name="cdotaccent" unicode="&#x10b;" horiz-adv-x="471" 
d="M253 -8c-64.667 0 -119.666 21.6689 -164.999 65.002s-68 105 -68 185c0 46 7.66699 86.5 23 121.5s36 62.333 62 82s54.167 34.167 84.5 43.5s62.5 14 96.5 14c53.333 0 110 -10 170 -30l-64 -172h-2l-77 171c-2 5.33301 -4 8.66602 -6 9.99902s-6 2 -12 2h-5
c-63.333 0 -95 -64.667 -95 -194c0 -70.667 12.833 -122.334 38.5 -155.001s57.834 -49 96.501 -49c53.333 0 94.333 27.333 123 82h2c-8.66699 -55.333 -30.334 -98.5 -65.001 -129.5s-80.334 -46.5 -137.001 -46.5zM202.001 624.002c0 22 7.5 39.667 22.5 53
s33.167 20 54.5 20s39.333 -6.66699 54 -20s22 -31 22 -53c0 -21.333 -7.33301 -38.333 -22 -51s-32.667 -19 -54 -19s-39.5 6.5 -54.5 19.5s-22.5 29.833 -22.5 50.5z" />
    <glyph glyph-name="Ccaron" unicode="&#x10c;" horiz-adv-x="633" 
d="M368 849l163 67l1 -2l-163 -174h-2l-163 174l1 2zM586 694l0.000976562 -246.001h-2l-152 230c-6.66699 10.667 -17.667 16 -33 16h-14c-101.333 0 -152 -114.667 -152 -344c0 -227.333 51.333 -341 154 -341h11c15.333 0 26.333 4.66699 33 14l153 236h2v-251
c-65.333 -12 -136.333 -18 -213 -18c-116 0 -202.667 31.833 -260 95.5s-86 151.834 -86 264.501c0 112 29.667 200.5 89 265.5s143.666 97.5 252.999 97.5c74.667 0 147 -6.33301 217 -19z" />
    <glyph glyph-name="ccaron" unicode="&#x10d;" horiz-adv-x="471" 
d="M279 642l163 67l1 -2l-163 -174h-2l-163 174l1 2zM253 -8c-64.667 0 -119.666 21.6689 -164.999 65.002s-68 105 -68 185c0 46 7.66699 86.5 23 121.5s36 62.333 62 82s54.167 34.167 84.5 43.5s62.5 14 96.5 14c53.333 0 110 -10 170 -30l-64 -172h-2l-77 171
c-2 5.33301 -4 8.66602 -6 9.99902s-6 2 -12 2h-5c-63.333 0 -95 -64.667 -95 -194c0 -70.667 12.833 -122.334 38.5 -155.001s57.834 -49 96.501 -49c53.333 0 94.333 27.333 123 82h2c-8.66699 -55.333 -30.334 -98.5 -65.001 -129.5s-80.334 -46.5 -137.001 -46.5z" />
    <glyph glyph-name="Dcaron" unicode="&#x10e;" horiz-adv-x="720" 
d="M323 849l163 67l1 -2l-163 -174h-2l-163 174l1 2zM15 0v2.00098l67 63c6 6 9 14 9 24v525c0 10 -3 18 -9 24l-67 63v2h334c113.333 0 199.333 -29.833 258 -89.5s88 -141.834 88 -246.501c0 -116 -31.833 -206.167 -95.5 -270.5s-153.5 -96.5 -269.5 -96.5h-315z
M293 20.001l21.001 -0.000976562c63.333 0 108.5 27.5 135.5 82.5s40.5 138.5 40.5 250.5c0 110.667 -13.167 193.334 -39.5 248.001s-69.5 82 -129.5 82h-32c-7.33301 0 -12 -1.16699 -14 -3.5s-3 -7.5 -3 -15.5v-624c0 -9.33301 1.16699 -15 3.5 -17s8.16602 -3 17.499 -3
z" />
    <glyph glyph-name="dcaron" unicode="&#x10f;" horiz-adv-x="620" 
d="M590 703h114l-121 -195h-2zM529 729v-654c0 -10.667 3 -18.667 9 -24l50 -49v-2h-222v94c-29.333 -68 -78.333 -102 -147 -102c-58.667 0 -106.167 22.333 -142.5 67s-54.5 107 -54.5 187c0 76.667 20.167 138.667 60.5 186s91.833 71 154.5 71c62 0 105 -26.667 129 -80
v207c0 10.667 -3.33301 19 -10 25l-48 46v2zM296 67c27.333 0 50.667 12.667 70 38v309c-16 20.667 -37.667 31 -65 31c-30.667 0 -56 -15.5 -76 -46.5s-30 -80.167 -30 -147.5c0 -64 9.16699 -110.667 27.5 -140s42.833 -44 73.5 -44z" />
    <glyph glyph-name="Dcroat" unicode="&#x110;" horiz-adv-x="734" 
d="M16 350v18h90v245c0 11.333 -3.33301 20 -10 26l-67 62v2h334c114 0 200.333 -29.5 259 -88.5s88 -140.5 88 -244.5c0 -115.333 -32 -205.833 -96 -271.5s-153.667 -98.5 -269 -98.5h-316v2l67 62c6.66699 6 10 15 10 27v259h-90zM336 683l-31.999 -0.000976562
c-7.33301 0 -12 -1.16699 -14 -3.5s-3 -7.5 -3 -15.5v-296h106v-18h-106v-310c0 -9.33301 1.16699 -15 3.5 -17s8.16602 -3 17.499 -3h21c62 0 106.667 27.5 134 82.5s41 138.5 41 250.5c0 110.667 -13 193.334 -39 248.001s-69 82 -129 82z" />
    <glyph glyph-name="dcroat" unicode="&#x111;" horiz-adv-x="604" 
d="M530 729v-143h65v-19h-65v-492c0 -10.667 3 -18.667 9 -24l50 -49v-2h-222v94c-29.333 -68 -78.333 -102 -147 -102c-58.667 0 -106.167 22.333 -142.5 67s-54.5 107 -54.5 187c0 76.667 20.167 138.667 60.5 186s91.833 71 154.5 71c62 0 105 -26.667 129 -80v144h-118
v19h118v44c0 10.667 -3.33301 19 -10 25l-48 46v2zM297 67c27.333 0 50.667 12.667 70 38v309c-16 20.667 -37.667 31 -65 31c-30.667 0 -56 -15.5 -76 -46.5s-30 -80.167 -30 -147.5c0 -64 9.16699 -110.667 27.5 -140s42.833 -44 73.5 -44z" />
    <glyph glyph-name="Emacron" unicode="&#x112;" horiz-adv-x="607" 
d="M551 703v-242.001h-2l-129 206c-6.66699 10.667 -16 16 -28 16h-103c-7.33301 0 -12 -1.16699 -14 -3.5s-3 -7.83301 -3 -16.5v-301h68c10 0.666992 18.667 5.33398 26 14.001l90 104h2v-255h-2l-90 104c-8 8.66699 -17 13 -27 13h-67v-302c0 -8.66699 1 -14.167 3 -16.5
s6.66699 -3.5 14 -3.5h115c14.667 0 24.667 4.66699 30 14l124 212h2v-246h-545v2l67 63c6 6 9 14 9 24v525c0 10 -3 18 -9 24l-67 63v2h536zM454 799.999h-281v20h281v-20z" />
    <glyph glyph-name="emacron" unicode="&#x113;" 
d="M490 270l-300.003 -0.00390625v-2c0 -61.333 13.333 -107.166 40 -137.499s61 -45.5 103 -45.5c70.667 0 121.334 30.667 152.001 92h2c-25.333 -123.333 -99 -185 -221 -185c-68.667 0 -126.667 21.333 -174 64s-71 105.334 -71 188.001c0 87.333 23.667 152.333 71 195
s107.333 64 180 64c28 0 54.333 -3.66699 79 -11s47.834 -18.666 69.501 -33.999s38.834 -37.166 51.501 -65.499s19 -61.833 19 -100.5c0 -6.66699 -0.333008 -14 -1 -22zM269.997 483.996c-26 0 -45.667 -15.167 -59 -45.5s-20.333 -80.5 -21 -150.5h147
c0.666992 8.66699 1 18.667 1 30c0 62 -5.83301 105.167 -17.5 129.5s-28.5 36.5 -50.5 36.5zM410.997 591.996h-281v20h281v-20z" />
    <glyph glyph-name="Ebreve" unicode="&#x114;" horiz-adv-x="607" 
d="M551 703v-242.001h-2l-129 206c-6.66699 10.667 -16 16 -28 16h-103c-7.33301 0 -12 -1.16699 -14 -3.5s-3 -7.83301 -3 -16.5v-301h68c10 0.666992 18.667 5.33398 26 14.001l90 104h2v-255h-2l-90 104c-8 8.66699 -17 13 -27 13h-67v-302c0 -8.66699 1 -14.167 3 -16.5
s6.66699 -3.5 14 -3.5h115c14.667 0 24.667 4.66699 30 14l124 212h2v-246h-545v2l67 63c6 6 9 14 9 24v525c0 10 -3 18 -9 24l-67 63v2h536zM311 824.999c37.333 0 67.1689 8.16699 89.502 24.5s34.5 39.833 36.5 70.5h2c2.66699 -20 4 -34 4 -42
c0 -42.667 -12.833 -75 -38.5 -97s-56.834 -33 -93.501 -33c-36 0 -66.667 11 -92 33s-38 54.333 -38 97c0 14.667 1.33301 28.667 4 42h2c1.33301 -30.667 13.166 -54.167 35.499 -70.5s51.833 -24.5 88.5 -24.5z" />
    <glyph glyph-name="ebreve" unicode="&#x115;" 
d="M490 270l-300.003 -0.00390625v-2c0 -61.333 13.333 -107.166 40 -137.499s61 -45.5 103 -45.5c70.667 0 121.334 30.667 152.001 92h2c-25.333 -123.333 -99 -185 -221 -185c-68.667 0 -126.667 21.333 -174 64s-71 105.334 -71 188.001c0 87.333 23.667 152.333 71 195
s107.333 64 180 64c28 0 54.333 -3.66699 79 -11s47.834 -18.666 69.501 -33.999s38.834 -37.166 51.501 -65.499s19 -61.833 19 -100.5c0 -6.66699 -0.333008 -14 -1 -22zM269.997 483.996c-26 0 -45.667 -15.167 -59 -45.5s-20.333 -80.5 -21 -150.5h147
c0.666992 8.66699 1 18.667 1 30c0 62 -5.83301 105.167 -17.5 129.5s-28.5 36.5 -50.5 36.5zM268.997 616.996c37.333 0 67.1689 8.16699 89.502 24.5s34.5 39.833 36.5 70.5h2c2.66699 -20 4 -34 4 -42c0 -42.667 -12.833 -75 -38.5 -97s-56.834 -33 -93.501 -33
c-36 0 -66.667 11 -92 33s-38 54.333 -38 97c0 14.667 1.33301 28.667 4 42h2c1.33301 -30.667 13.166 -54.167 35.499 -70.5s51.833 -24.5 88.5 -24.5z" />
    <glyph glyph-name="Edotaccent" unicode="&#x116;" horiz-adv-x="607" 
d="M551 703v-242.001h-2l-129 206c-6.66699 10.667 -16 16 -28 16h-103c-7.33301 0 -12 -1.16699 -14 -3.5s-3 -7.83301 -3 -16.5v-301h68c10 0.666992 18.667 5.33398 26 14.001l90 104h2v-255h-2l-90 104c-8 8.66699 -17 13 -27 13h-67v-302c0 -8.66699 1 -14.167 3 -16.5
s6.66699 -3.5 14 -3.5h115c14.667 0 24.667 4.66699 30 14l124 212h2v-246h-545v2l67 63c6 6 9 14 9 24v525c0 10 -3 18 -9 24l-67 63v2h536zM237 831.999c0 22 7.5 39.667 22.5 53s33.167 20 54.5 20s39.333 -6.66699 54 -20s22 -31 22 -53
c0 -21.333 -7.33301 -38.333 -22 -51s-32.667 -19 -54 -19s-39.5 6.5 -54.5 19.5s-22.5 29.833 -22.5 50.5z" />
    <glyph glyph-name="edotaccent" unicode="&#x117;" 
d="M490 270l-300.003 -0.00390625v-2c0 -61.333 13.333 -107.166 40 -137.499s61 -45.5 103 -45.5c70.667 0 121.334 30.667 152.001 92h2c-25.333 -123.333 -99 -185 -221 -185c-68.667 0 -126.667 21.333 -174 64s-71 105.334 -71 188.001c0 87.333 23.667 152.333 71 195
s107.333 64 180 64c28 0 54.333 -3.66699 79 -11s47.834 -18.666 69.501 -33.999s38.834 -37.166 51.501 -65.499s19 -61.833 19 -100.5c0 -6.66699 -0.333008 -14 -1 -22zM269.997 483.996c-26 0 -45.667 -15.167 -59 -45.5s-20.333 -80.5 -21 -150.5h147
c0.666992 8.66699 1 18.667 1 30c0 62 -5.83301 105.167 -17.5 129.5s-28.5 36.5 -50.5 36.5zM193.997 623.996c0 22 7.5 39.667 22.5 53s33.167 20 54.5 20s39.333 -6.66699 54 -20s22 -31 22 -53c0 -21.333 -7.33301 -38.333 -22 -51s-32.667 -19 -54 -19
s-39.5 6.5 -54.5 19.5s-22.5 29.833 -22.5 50.5z" />
    <glyph glyph-name="Eogonek" unicode="&#x118;" horiz-adv-x="607" 
d="M551 703v-241.999h-2l-129 206c-6.66699 10.667 -16 16 -28 16h-103c-7.33301 0 -12 -1.16699 -14 -3.5s-3 -7.83301 -3 -16.5v-301h68c10 0.666992 18.667 5.33398 26 14.001l90 104h2v-255h-2l-90 104c-8 8.66699 -17 13 -27 13h-67v-302c0 -8.66699 1 -14.167 3 -16.5
s6.66699 -3.5 14 -3.5h115c14.667 0 24.667 4.66699 30 14l124 212h2v-246h-98c-47.333 -20.667 -71 -54.667 -71 -102c0 -24.667 6.66699 -43.834 20 -57.501s31 -20.5 53 -20.5c33.333 0 60 15 80 45l2 -1c-22.667 -66.667 -65 -100 -127 -100
c-30 0 -55.667 9.16699 -77 27.5s-32 43.166 -32 74.499c0 30.667 13 58.167 39 82.5s60.333 41.5 103 51.5h-437v2l67 63c6 6 9 14 9 24v525c0 10 -3 18 -9 24l-67 63v2h536z" />
    <glyph glyph-name="eogonek" unicode="&#x119;" 
d="M273 -236c-30 0 -55.6699 9.16504 -77.0029 27.498s-32 43.166 -32 74.499c0 28.667 11.667 54.5 35 77.5s54.333 39.5 93 49.5c-6.66699 -0.666992 -15.334 -1 -26.001 -1c-68.667 0 -126.667 21.333 -174 64s-71 105.334 -71 188.001c0 87.333 23.667 152.333 71 195
s107.333 64 180 64c28 0 54.333 -3.66699 79 -11s47.834 -18.666 69.501 -33.999s38.834 -37.166 51.501 -65.499s19 -61.833 19 -100.5c0 -8 -0.333008 -15.333 -1 -22h-300v-2c0 -61.333 13.333 -107.166 40 -137.499s61 -45.5 103 -45.5
c70.667 0 121.334 30.667 152.001 92h2c-22.667 -106 -81 -166.333 -175 -181c-21.333 -8.66699 -37.833 -21.667 -49.5 -39s-17.5 -37 -17.5 -59c0 -24.667 6.66699 -43.834 20 -57.501s31 -20.5 53 -20.5c33.333 0 60 15 80 45l2 -1
c-21.333 -66.667 -63.666 -100 -126.999 -100zM269.997 483.998c-26 0 -45.667 -15.167 -59 -45.5s-20.333 -80.5 -21 -150.5h147c0.666992 7.33301 1 17.333 1 30c0 62 -5.83301 105.167 -17.5 129.5s-28.5 36.5 -50.5 36.5z" />
    <glyph glyph-name="Ecaron" unicode="&#x11a;" horiz-adv-x="607" 
d="M314 849l163 67l1 -2l-163 -174h-2l-163 174l1 2zM551 703v-242.001h-2l-129 206c-6.66699 10.667 -16 16 -28 16h-103c-7.33301 0 -12 -1.16699 -14 -3.5s-3 -7.83301 -3 -16.5v-301h68c10 0.666992 18.667 5.33398 26 14.001l90 104h2v-255h-2l-90 104
c-8 8.66699 -17 13 -27 13h-67v-302c0 -8.66699 1 -14.167 3 -16.5s6.66699 -3.5 14 -3.5h115c14.667 0 24.667 4.66699 30 14l124 212h2v-246h-545v2l67 63c6 6 9 14 9 24v525c0 10 -3 18 -9 24l-67 63v2h536z" />
    <glyph glyph-name="ecaron" unicode="&#x11b;" 
d="M272 642l163 67l1 -2l-163 -174h-2l-163 174l1 2zM490 270l-300.003 -0.00390625v-2c0 -61.333 13.333 -107.166 40 -137.499s61 -45.5 103 -45.5c70.667 0 121.334 30.667 152.001 92h2c-25.333 -123.333 -99 -185 -221 -185c-68.667 0 -126.667 21.333 -174 64
s-71 105.334 -71 188.001c0 87.333 23.667 152.333 71 195s107.333 64 180 64c28 0 54.333 -3.66699 79 -11s47.834 -18.666 69.501 -33.999s38.834 -37.166 51.501 -65.499s19 -61.833 19 -100.5c0 -6.66699 -0.333008 -14 -1 -22zM269.997 483.996
c-26 0 -45.667 -15.167 -59 -45.5s-20.333 -80.5 -21 -150.5h147c0.666992 8.66699 1 18.667 1 30c0 62 -5.83301 105.167 -17.5 129.5s-28.5 36.5 -50.5 36.5z" />
    <glyph glyph-name="Gcircumflex" unicode="&#x11c;" horiz-adv-x="692" 
d="M525 744l-1 -1l-163 67l-163 -67l-1 1l163 175h2zM604 690l0.000976562 -245h-2l-156 233c-6.66699 10.667 -17 16 -31 16h-17c-110 0 -165 -110.667 -165 -332c0 -125.333 11.667 -214.666 35 -267.999s60 -80 110 -80c18.667 0 35.334 3 50.001 9
c6 3.33301 9 8.66602 9 15.999v178c0 11.333 -3 20.666 -9 27.999l-56 64v2h311v-2l-56 -64c-6 -7.33301 -9 -16.666 -9 -27.999v-227l-152 27c-42.667 -18 -86.334 -27 -131.001 -27c-94.667 0 -169.834 32.167 -225.501 96.5s-83.5 152.5 -83.5 264.5
c0 110.667 30.5 198.667 91.5 264s146.833 98 257.5 98c82.667 0 159 -7.66699 229 -23z" />
    <glyph glyph-name="gcircumflex" unicode="&#x11d;" horiz-adv-x="525" 
d="M419 536l-1 -1l-163 67l-163 -67l-1 1l163 175h2zM34 337c0 54.667 19.6641 96.0059 58.9971 124.006s91.333 42 156 42c56.667 0 102.334 -9.33301 137.001 -28c7.33301 -4 14.333 -2.33301 21 5l104 110l2 -1v-150h-94c34 -27.333 51 -63.333 51 -108
c0 -52.667 -19.833 -91.834 -59.5 -117.501s-92.5 -38.5 -158.5 -38.5c-32 0 -59 2.66699 -81 8c-20.667 -8 -31 -20.333 -31 -37c0 -29.333 34 -44 102 -44h93c119.333 0 179 -44.333 179 -133c0 -60.667 -26.667 -110 -80 -148s-120.666 -57 -201.999 -57
c-54.667 0 -102.5 8.83301 -143.5 26.5s-61.5 42.5 -61.5 74.5c0 21.333 9.5 40.166 28.5 56.499s48.167 27.5 87.5 33.5c-34.667 7.33301 -61.5 20.666 -80.5 39.999s-28.5 42.333 -28.5 69c0 29.333 11.333 54.666 34 75.999s53.334 36.666 92.001 45.999
c-84 21.333 -126 71.666 -126 150.999zM186.997 -49.9941c-15.333 1.33301 -27.001 2.66504 -35.001 3.99805c-26.667 -16 -40 -37.333 -40 -64c0 -32 15.333 -57.5 46 -76.5s66.667 -28.5 108 -28.5c40 0 74.5 8.33301 103.5 25s43.5 40.334 43.5 71.001
c0 20.667 -7.16699 36.334 -21.5 47.001s-39.166 16.667 -74.499 18zM187.996 340.005c0 -53.333 5.33301 -91.333 16 -114s26.667 -34 48 -34s37.333 11.167 48 33.5s16 60.166 16 113.499c0 52.667 -5.16699 90.334 -15.5 113.001s-26.5 34 -48.5 34
s-38.167 -11.167 -48.5 -33.5s-15.5 -59.833 -15.5 -112.5z" />
    <glyph glyph-name="Gbreve" unicode="&#x11e;" horiz-adv-x="692" 
d="M604 690l0.000976562 -245h-2l-156 233c-6.66699 10.667 -17 16 -31 16h-17c-110 0 -165 -110.667 -165 -332c0 -125.333 11.667 -214.666 35 -267.999s60 -80 110 -80c18.667 0 35.334 3 50.001 9c6 3.33301 9 8.66602 9 15.999v178c0 11.333 -3 20.666 -9 27.999
l-56 64v2h311v-2l-56 -64c-6 -7.33301 -9 -16.666 -9 -27.999v-227l-152 27c-42.667 -18 -86.334 -27 -131.001 -27c-94.667 0 -169.834 32.167 -225.501 96.5s-83.5 152.5 -83.5 264.5c0 110.667 30.5 198.667 91.5 264s146.833 98 257.5 98c82.667 0 159 -7.66699 229 -23
zM358.001 825c37.333 0 67.1689 8.16699 89.502 24.5s34.5 39.833 36.5 70.5h2c2.66699 -20 4 -34 4 -42c0 -42.667 -12.833 -75 -38.5 -97s-56.834 -33 -93.501 -33c-36 0 -66.667 11 -92 33s-38 54.333 -38 97c0 14.667 1.33301 28.667 4 42h2
c1.33301 -30.667 13.166 -54.167 35.499 -70.5s51.833 -24.5 88.5 -24.5z" />
    <glyph glyph-name="gbreve" unicode="&#x11f;" horiz-adv-x="525" 
d="M34 337c0 54.667 19.6641 96.0059 58.9971 124.006s91.333 42 156 42c56.667 0 102.334 -9.33301 137.001 -28c7.33301 -4 14.333 -2.33301 21 5l104 110l2 -1v-150h-94c34 -27.333 51 -63.333 51 -108c0 -52.667 -19.833 -91.834 -59.5 -117.501
s-92.5 -38.5 -158.5 -38.5c-32 0 -59 2.66699 -81 8c-20.667 -8 -31 -20.333 -31 -37c0 -29.333 34 -44 102 -44h93c119.333 0 179 -44.333 179 -133c0 -60.667 -26.667 -110 -80 -148s-120.666 -57 -201.999 -57c-54.667 0 -102.5 8.83301 -143.5 26.5
s-61.5 42.5 -61.5 74.5c0 21.333 9.5 40.166 28.5 56.499s48.167 27.5 87.5 33.5c-34.667 7.33301 -61.5 20.666 -80.5 39.999s-28.5 42.333 -28.5 69c0 29.333 11.333 54.666 34 75.999s53.334 36.666 92.001 45.999c-84 21.333 -126 71.666 -126 150.999z
M186.997 -49.9941c-15.333 1.33301 -27.001 2.66504 -35.001 3.99805c-26.667 -16 -40 -37.333 -40 -64c0 -32 15.333 -57.5 46 -76.5s66.667 -28.5 108 -28.5c40 0 74.5 8.33301 103.5 25s43.5 40.334 43.5 71.001c0 20.667 -7.16699 36.334 -21.5 47.001
s-39.166 16.667 -74.499 18zM187.996 340.005c0 -53.333 5.33301 -91.333 16 -114s26.667 -34 48 -34s37.333 11.167 48 33.5s16 60.166 16 113.499c0 52.667 -5.16699 90.334 -15.5 113.001s-26.5 34 -48.5 34s-38.167 -11.167 -48.5 -33.5s-15.5 -59.833 -15.5 -112.5z
M251.996 617.005c37.333 0 67.1689 8.16699 89.502 24.5s34.5 39.833 36.5 70.5h2c2.66699 -20 4 -34 4 -42c0 -42.667 -12.833 -75 -38.5 -97s-56.834 -33 -93.501 -33c-36 0 -66.667 11 -92 33s-38 54.333 -38 97c0 14.667 1.33301 28.667 4 42h2
c1.33301 -30.667 13.166 -54.167 35.499 -70.5s51.833 -24.5 88.5 -24.5z" />
    <glyph glyph-name="Gdotaccent" unicode="&#x120;" horiz-adv-x="692" 
d="M604 690l0.000976562 -245h-2l-156 233c-6.66699 10.667 -17 16 -31 16h-17c-110 0 -165 -110.667 -165 -332c0 -125.333 11.667 -214.666 35 -267.999s60 -80 110 -80c18.667 0 35.334 3 50.001 9c6 3.33301 9 8.66602 9 15.999v178c0 11.333 -3 20.666 -9 27.999
l-56 64v2h311v-2l-56 -64c-6 -7.33301 -9 -16.666 -9 -27.999v-227l-152 27c-42.667 -18 -86.334 -27 -131.001 -27c-94.667 0 -169.834 32.167 -225.501 96.5s-83.5 152.5 -83.5 264.5c0 110.667 30.5 198.667 91.5 264s146.833 98 257.5 98c82.667 0 159 -7.66699 229 -23
zM284.001 832c0 22 7.5 39.667 22.5 53s33.167 20 54.5 20s39.333 -6.66699 54 -20s22 -31 22 -53c0 -21.333 -7.33301 -38.333 -22 -51s-32.667 -19 -54 -19s-39.5 6.5 -54.5 19.5s-22.5 29.833 -22.5 50.5z" />
    <glyph glyph-name="gdotaccent" unicode="&#x121;" horiz-adv-x="525" 
d="M34 337c0 54.667 19.6641 96.0059 58.9971 124.006s91.333 42 156 42c56.667 0 102.334 -9.33301 137.001 -28c7.33301 -4 14.333 -2.33301 21 5l104 110l2 -1v-150h-94c34 -27.333 51 -63.333 51 -108c0 -52.667 -19.833 -91.834 -59.5 -117.501
s-92.5 -38.5 -158.5 -38.5c-32 0 -59 2.66699 -81 8c-20.667 -8 -31 -20.333 -31 -37c0 -29.333 34 -44 102 -44h93c119.333 0 179 -44.333 179 -133c0 -60.667 -26.667 -110 -80 -148s-120.666 -57 -201.999 -57c-54.667 0 -102.5 8.83301 -143.5 26.5
s-61.5 42.5 -61.5 74.5c0 21.333 9.5 40.166 28.5 56.499s48.167 27.5 87.5 33.5c-34.667 7.33301 -61.5 20.666 -80.5 39.999s-28.5 42.333 -28.5 69c0 29.333 11.333 54.666 34 75.999s53.334 36.666 92.001 45.999c-84 21.333 -126 71.666 -126 150.999z
M186.997 -49.9941c-15.333 1.33301 -27.001 2.66504 -35.001 3.99805c-26.667 -16 -40 -37.333 -40 -64c0 -32 15.333 -57.5 46 -76.5s66.667 -28.5 108 -28.5c40 0 74.5 8.33301 103.5 25s43.5 40.334 43.5 71.001c0 20.667 -7.16699 36.334 -21.5 47.001
s-39.166 16.667 -74.499 18zM187.996 340.005c0 -53.333 5.33301 -91.333 16 -114s26.667 -34 48 -34s37.333 11.167 48 33.5s16 60.166 16 113.499c0 52.667 -5.16699 90.334 -15.5 113.001s-26.5 34 -48.5 34s-38.167 -11.167 -48.5 -33.5s-15.5 -59.833 -15.5 -112.5z
M177.996 624.005c0 22 7.5 39.667 22.5 53s33.167 20 54.5 20s39.333 -6.66699 54 -20s22 -31 22 -53c0 -21.333 -7.33301 -38.333 -22 -51s-32.667 -19 -54 -19s-39.5 6.5 -54.5 19.5s-22.5 29.833 -22.5 50.5z" />
    <glyph glyph-name="Gcommaaccent" unicode="&#x122;" horiz-adv-x="692" 
d="M428 -115c0 -32.667 -11.833 -62.5 -35.5 -89.5s-53.167 -44.5 -88.5 -52.5l-1 2c36.667 23.333 55 52.333 55 87c0 5.33301 -3 8.66602 -9 9.99902c-35.333 4.66699 -53 24.334 -53 59.001c0 18 6 33 18 45s27.333 18 46 18c20.667 0 37.167 -7 49.5 -21
s18.5 -33.333 18.5 -58zM604 690l0.000976562 -245h-2l-156 233c-6.66699 10.667 -17 16 -31 16h-17c-110 0 -165 -110.667 -165 -332c0 -125.333 11.667 -214.666 35 -267.999s60 -80 110 -80c18.667 0 35.334 3 50.001 9c6 3.33301 9 8.66602 9 15.999v178
c0 11.333 -3 20.666 -9 27.999l-56 64v2h311v-2l-56 -64c-6 -7.33301 -9 -16.666 -9 -27.999v-227l-152 27c-42.667 -18 -86.334 -27 -131.001 -27c-94.667 0 -169.834 32.167 -225.501 96.5s-83.5 152.5 -83.5 264.5c0 110.667 30.5 198.667 91.5 264s146.833 98 257.5 98
c82.667 0 159 -7.66699 229 -23z" />
    <glyph glyph-name="gcommaaccent" unicode="&#x123;" horiz-adv-x="525" 
d="M34 337c0 54.667 19.6641 96.0059 58.9971 124.006s91.333 42 156 42c56.667 0 102.334 -9.33301 137.001 -28c7.33301 -4 14.333 -2.33301 21 5l104 110l2 -1v-150h-94c34 -27.333 51 -63.333 51 -108c0 -52.667 -19.833 -91.834 -59.5 -117.501
s-92.5 -38.5 -158.5 -38.5c-32 0 -59 2.66699 -81 8c-20.667 -8 -31 -20.333 -31 -37c0 -29.333 34 -44 102 -44h93c119.333 0 179 -44.333 179 -133c0 -60.667 -26.667 -110 -80 -148s-120.666 -57 -201.999 -57c-54.667 0 -102.5 8.83301 -143.5 26.5
s-61.5 42.5 -61.5 74.5c0 21.333 9.5 40.166 28.5 56.499s48.167 27.5 87.5 33.5c-34.667 7.33301 -61.5 20.666 -80.5 39.999s-28.5 42.333 -28.5 69c0 29.333 11.333 54.666 34 75.999s53.334 36.666 92.001 45.999c-84 21.333 -126 71.666 -126 150.999z
M186.997 -49.9941c-15.333 1.33301 -27.001 2.66504 -35.001 3.99805c-26.667 -16 -40 -37.333 -40 -64c0 -32 15.333 -57.5 46 -76.5s66.667 -28.5 108 -28.5c40 0 74.5 8.33301 103.5 25s43.5 40.334 43.5 71.001c0 20.667 -7.16699 36.334 -21.5 47.001
s-39.166 16.667 -74.499 18zM187.996 340.005c0 -53.333 5.33301 -91.333 16 -114s26.667 -34 48 -34s37.333 11.167 48 33.5s16 60.166 16 113.499c0 52.667 -5.16699 90.334 -15.5 113.001s-26.5 34 -48.5 34s-38.167 -11.167 -48.5 -33.5s-15.5 -59.833 -15.5 -112.5z
M322.996 605.005c0 -18 -6 -33.165 -18 -45.498s-27.333 -18.5 -46 -18.5c-20.667 0 -37.167 7.16699 -49.5 21.5s-18.5 33.5 -18.5 57.5c0 33.333 11.833 63.166 35.5 89.499s53.167 44.166 88.5 53.499l1 -2c-36.667 -22.667 -55 -51.667 -55 -87c0 -6.66699 3 -10 9 -10
c16 0 28.833 -5.5 38.5 -16.5s14.5 -25.167 14.5 -42.5z" />
    <glyph glyph-name="Hcircumflex" unicode="&#x124;" horiz-adv-x="776" 
d="M552 744l-1 -1l-163 67l-163 -67l-1 1l163 175h2zM685 614v-525c0 -10 3 -18 9 -24l66 -63v-2h-332v2l66 63c6.66699 6.66699 10 14.667 10 24v261h-232v-261c0 -10 3.33301 -18 10 -24l66 -63v-2h-333v2l67 63c6 6 9 14 9 24v525c0 10 -3 18 -9 24l-67 63v2h333v-2
l-66 -63c-6.66699 -6 -10 -14 -10 -24v-244h232v244c0 10 -3.33301 18 -10 24l-66 63v2h332v-2l-66 -63c-6 -6 -9 -14 -9 -24z" />
    <glyph glyph-name="hcircumflex" unicode="&#x125;" horiz-adv-x="604" 
d="M313 744l-1 -1l-163 67l-163 -67l-1 1l163 175h2zM545 292c0 -24 -0.500977 -63.834 -1.50098 -119.501s-1.5 -89.167 -1.5 -100.5c0 -10 3.33301 -18 10 -24l49 -46v-2h-280v2l47 46c6.66699 6 10 13.667 10 23c0 2 0.5 30.833 1.5 86.5s1.5 92.834 1.5 111.501
c0 50 -5.5 87.667 -16.5 113s-30.833 38 -59.5 38c-29.333 0 -54.333 -15 -75 -45v-303c0 -10 3.33301 -18 10 -24l49 -46v-2h-280v2l49 46c6 6 9 14 9 24v558c0 10.667 -3 19 -9 25l-49 46v2l221 26v-343c27.333 78 80.333 117 159 117c50.667 0 89.334 -18 116.001 -54
s40 -88.333 40 -157z" />
    <glyph glyph-name="Hbar" unicode="&#x126;" horiz-adv-x="776" 
d="M756 476h-71v-385c0 -12.667 3 -21.667 9 -27l68 -62v-2h-335v2l67 62c6.66699 6.66699 10 15.667 10 27v209h-232v-209c0 -11.333 3.33301 -20.333 10 -27l67 -62v-2h-335v2l68 62c6 5.33301 9 14.333 9 27v385h-71v19h71v117c0 12.667 -3 21.667 -9 27l-68 62v2h335v-2
l-67 -62c-6.66699 -6.66699 -10 -15.667 -10 -27v-117h232v117c0 11.333 -3.33301 20.333 -10 27l-67 62v2h335v-2l-68 -62c-6 -5.33301 -9 -14.333 -9 -27v-117h71v-19zM272 476v-155h232v155h-232z" />
    <glyph glyph-name="hbar" unicode="&#x127;" horiz-adv-x="604" 
d="M545 292c0 -24 -0.500977 -63.834 -1.50098 -119.501s-1.5 -89.167 -1.5 -100.5c0 -10 3.33301 -18 10 -24l49 -46v-2h-280v2l47 46c6.66699 6 10 13.667 10 23c0 2 0.5 30.833 1.5 86.5s1.5 92.834 1.5 111.501c0 50 -5.5 87.667 -16.5 113s-30.833 38 -59.5 38
c-29.333 0 -54.333 -15 -75 -45v-303c0 -10 3.33301 -18 10 -24l49 -46v-2h-280v2l49 46c6 6 9 14 9 24v495h-61v19h61v44c0 10.667 -3 19 -9 25l-49 46v2l221 26v-143h124v-19h-124v-181c27.333 78 80.333 117 159 117c50.667 0 89.334 -18 116.001 -54s40 -88.333 40 -157
z" />
    <glyph glyph-name="Itilde" unicode="&#x128;" horiz-adv-x="364" 
d="M272 89c0 -10 3.33301 -18 10 -24l66 -63v-2h-333v2l67 63c6 6 9 14 9 24v525c0 10 -3 18 -9 24l-67 63v2h333v-2l-66 -63c-6.66699 -6 -10 -14 -10 -24v-525zM246 770c-18 0 -42.335 8.16504 -73.002 24.498s-53.334 24.5 -68.001 24.5c-32 0 -53.333 -16.333 -64 -49
h-2v24c0 30.667 7.83301 55.334 23.5 74.001s35.834 28 60.501 28c18 0 42.333 -8.16699 73 -24.5s53.334 -24.5 68.001 -24.5c32 0 53.667 16.333 65 49h2c0 -11.333 -0.333008 -19.666 -1 -24.999c-1.33301 -30.667 -9.66602 -55.167 -24.999 -73.5s-35 -27.5 -59 -27.5z
" />
    <glyph glyph-name="itilde" unicode="&#x129;" horiz-adv-x="310" 
d="M242 495v-423c0 -9.33301 3.33301 -17.333 10 -24l49 -46v-2h-280v2l49 46c6 6 9 14 9 24v346c0 10 -3 18.333 -9 25l-49 50v2h221zM214 562c-18 0 -42.335 8.16504 -73.002 24.498s-53.334 24.5 -68.001 24.5c-32 0 -53.333 -16.333 -64 -49h-2v24
c0 30.667 7.83301 55.334 23.5 74.001s35.834 28 60.501 28c18 0 42.333 -8.16699 73 -24.5s53.334 -24.5 68.001 -24.5c32 0 53.667 16.333 65 49h2c0 -11.333 -0.333008 -19.666 -1 -24.999c-1.33301 -30.667 -9.66602 -55.167 -24.999 -73.5s-35 -27.5 -59 -27.5z" />
    <glyph glyph-name="Imacron" unicode="&#x12a;" horiz-adv-x="364" 
d="M272 89c0 -10 3.33301 -18 10 -24l66 -63v-2h-333v2l67 63c6 6 9 14 9 24v525c0 10 -3 18 -9 24l-67 63v2h333v-2l-66 -63c-6.66699 -6 -10 -14 -10 -24v-525zM322 800h-281v20h281v-20z" />
    <glyph glyph-name="imacron" unicode="&#x12b;" horiz-adv-x="310" 
d="M242 495v-423c0 -9.33301 3.33301 -17.333 10 -24l49 -46v-2h-280v2l49 46c6 6 9 14 9 24v346c0 10 -3 18.333 -9 25l-49 50v2h221zM286 592h-281v20h281v-20z" />
    <glyph glyph-name="Ibreve" unicode="&#x12c;" horiz-adv-x="364" 
d="M272 89c0 -10 3.33301 -18 10 -24l66 -63v-2h-333v2l67 63c6 6 9 14 9 24v525c0 10 -3 18 -9 24l-67 63v2h333v-2l-66 -63c-6.66699 -6 -10 -14 -10 -24v-525zM179 825c37.333 0 67.1689 8.16699 89.502 24.5s34.5 39.833 36.5 70.5h2c2.66699 -20 4 -34 4 -42
c0 -42.667 -12.833 -75 -38.5 -97s-56.834 -33 -93.501 -33c-36 0 -66.667 11 -92 33s-38 54.333 -38 97c0 14.667 1.33301 28.667 4 42h2c1.33301 -30.667 13.166 -54.167 35.499 -70.5s51.833 -24.5 88.5 -24.5z" />
    <glyph glyph-name="ibreve" unicode="&#x12d;" horiz-adv-x="310" 
d="M242 495v-423c0 -9.33301 3.33301 -17.333 10 -24l49 -46v-2h-280v2l49 46c6 6 9 14 9 24v346c0 10 -3 18.333 -9 25l-49 50v2h221zM147 617c37.333 0 67.1689 8.16699 89.502 24.5s34.5 39.833 36.5 70.5h2c2.66699 -20 4 -34 4 -42c0 -42.667 -12.833 -75 -38.5 -97
s-56.834 -33 -93.501 -33c-36 0 -66.667 11 -92 33s-38 54.333 -38 97c0 14.667 1.33301 28.667 4 42h2c1.33301 -30.667 13.166 -54.167 35.499 -70.5s51.833 -24.5 88.5 -24.5z" />
    <glyph glyph-name="Iogonek" unicode="&#x12e;" horiz-adv-x="364" 
d="M272 89c0 -10 3.33203 -17.998 9.99902 -23.998l66 -63v-2h-127c-47.333 -19.333 -71 -53.333 -71 -102c0 -24.667 6.83301 -43.834 20.5 -57.501s31.5 -20.5 53.5 -20.5c32.667 0 59 15 79 45l2 -1c-21.333 -66.667 -63.666 -100 -126.999 -100
c-30 0 -55.667 9.16699 -77 27.5s-32 43.166 -32 74.499c0 30.667 12.5 58.167 37.5 82.5s58.167 41.5 99.5 51.5h-191v2l67 63c6 6 9 14 9 24v525c0 10 -3 18 -9 24l-67 63v2h333v-2l-66 -63c-6.66699 -6 -10 -14 -10 -24v-525z" />
    <glyph glyph-name="iogonek" unicode="&#x12f;" horiz-adv-x="310" 
d="M163 -236c-30 0 -55.667 9.16895 -77 27.502s-32 43.166 -32 74.499c0 30.667 12.333 58.167 37 82.5s57.667 41.5 99 51.5h-170v2l49 46c6 5.33301 9 13.333 9 24v346c0 10 -3 18.333 -9 25l-49 50v2h222v-423c0 -10.667 3 -18.667 9 -24l49 -46v-2h-95
c-46.667 -18.667 -70 -52.667 -70 -102c0 -24.667 6.66699 -43.834 20 -57.501s31 -20.5 53 -20.5c33.333 0 60 15 80 45l2 -1c-22.667 -66.667 -65 -100 -127 -100zM157 550.002c-22 0 -40.833 6.83301 -56.5 20.5s-23.5 31.5 -23.5 53.5
c0 23.333 7.83301 42.166 23.5 56.499s34.5 21.5 56.5 21.5c23.333 0 42.666 -7.16699 57.999 -21.5s23 -33.166 23 -56.499c0 -22 -7.66699 -39.833 -23 -53.5s-34.666 -20.5 -57.999 -20.5z" />
    <glyph glyph-name="Idotaccent" unicode="&#x130;" horiz-adv-x="364" 
d="M272 89c0 -10 3.33301 -18 10 -24l66 -63v-2h-333v2l67 63c6 6 9 14 9 24v525c0 10 -3 18 -9 24l-67 63v2h333v-2l-66 -63c-6.66699 -6 -10 -14 -10 -24v-525zM104 832c0 22 7.5 39.667 22.5 53s33.167 20 54.5 20s39.333 -6.66699 54 -20s22 -31 22 -53
c0 -21.333 -7.33301 -38.333 -22 -51s-32.667 -19 -54 -19s-39.5 6.5 -54.5 19.5s-22.5 29.833 -22.5 50.5z" />
    <glyph glyph-name="dotlessi" unicode="&#x131;" horiz-adv-x="310" 
d="M242 495v-423c0 -9.33301 3.33301 -17.333 10 -24l49 -46v-2h-280v2l49 46c6 6 9 14 9 24v346c0 10 -3 18.333 -9 25l-49 50v2h221z" />
    <glyph glyph-name="IJ" unicode="&#x132;" horiz-adv-x="698" 
d="M272 89c0 -10 3.33301 -18 10 -24l66 -63v-2h-333v2l67 63c6 6 9 14 9 24v525c0 10 -3 18 -9 24l-67 63v2h333v-2l-66 -63c-6.66699 -6 -10 -14 -10 -24v-525zM440 59v555.001c0 10 -3.33301 18 -10 24l-66 63v2h333v-2l-66 -63c-6.66699 -6 -10 -14 -10 -24v-496
c0 -100.667 -27 -179.834 -81 -237.501s-132 -88.167 -234 -91.5l-1 2c90 46 135 135.333 135 268z" />
    <glyph glyph-name="ij" unicode="&#x133;" horiz-adv-x="599" 
d="M157 550c-22 0 -40.833 6.83301 -56.5 20.5s-23.5 31.5 -23.5 53.5c0 23.333 7.83301 42.166 23.5 56.499s34.5 21.5 56.5 21.5c23.333 0 42.666 -7.16699 57.999 -21.5s23 -33.166 23 -56.499c0 -22 -7.66699 -39.833 -23 -53.5s-34.666 -20.5 -57.999 -20.5zM20 495
h222v-423c0 -10.667 3 -18.667 9 -24l49 -46v-2h-280v2l49 46c6 5.33301 9 13.333 9 24v346c0 10 -3 18.333 -9 25l-49 50v2zM547 37c0 -84 -21.667 -148.831 -65 -194.498s-105 -68.834 -185 -69.501c-6.66699 0 -11.667 0.333008 -15 1v2
c67.333 13.333 101 81.666 101 204.999v437c0 10 -3 18.333 -9 25l-49 50v2h222v-458zM381 624.002c0 23.333 8 42.166 24 56.499s35 21.5 57 21.5c23.333 0 42.666 -7.16699 57.999 -21.5s23 -33.166 23 -56.499c0 -22 -7.66699 -39.833 -23 -53.5
s-34.666 -20.5 -57.999 -20.5c-22 0 -41 6.83301 -57 20.5s-24 31.5 -24 53.5z" />
    <glyph glyph-name="Jcircumflex" unicode="&#x134;" horiz-adv-x="335" 
d="M332 744l-1 -1l-163 67l-163 -67l-1 1l163 175h2zM77 59v555.001c0 10 -3.33301 18 -10 24l-66 63v2h333v-2l-66 -63c-6.66699 -6 -10 -14 -10 -24v-496c0 -100.667 -27 -179.834 -81 -237.501s-132 -88.167 -234 -91.5l-1 2c90 46 135 135.333 135 268z" />
    <glyph glyph-name="jcircumflex" unicode="&#x135;" horiz-adv-x="289" 
d="M237 37c0 -83.333 -21.332 -147.999 -63.999 -193.999s-103.334 -69.333 -182.001 -70c-2.66699 0 -6 0.166992 -10 0.5s-7 0.5 -9 0.5v2c67.333 13.333 101 81.666 101 204.999v437c0 10 -3 18.333 -9 25l-49 50v2h222v-458zM311.001 536.001l-1 -1l-163 67l-163 -67
l-1 1l163 175h2z" />
    <glyph glyph-name="Kcommaaccent" unicode="&#x136;" horiz-adv-x="710" 
d="M452 -115c0 -32.667 -11.833 -62.5 -35.5 -89.5s-53.167 -44.5 -88.5 -52.5l-1 2c36.667 23.333 55 52.333 55 87c0 5.33301 -3 8.66602 -9 9.99902c-35.333 4.66699 -53 24.334 -53 59.001c0 18 6 33 18 45s27.333 18 46 18c20.667 0 37.167 -7 49.5 -21
s18.5 -33.333 18.5 -58zM272 614v-525c0 -10 3.33301 -18 10 -24l66 -63v-2h-333v2l67 63c6 6 9 14 9 24v525c0 10 -3 18 -9 24l-67 63v2h333v-2l-66 -63c-6.66699 -6 -10 -14 -10 -24zM639 95c8.66699 -14.667 18.667 -27 30 -37l58 -56v-2h-239l-208 343l209 227
c5.33301 6 8 10.5 8 13.5s-2.66699 8.16699 -8 15.5l-76 102v2h310v-2l-166 -104c-20.667 -12.667 -37.667 -26 -51 -40l-92 -97z" />
    <glyph glyph-name="kcommaaccent" unicode="&#x137;" horiz-adv-x="572" 
d="M370 -115c0 -32.667 -11.833 -62.5 -35.5 -89.5s-53.167 -44.5 -88.5 -52.5l-1 2c36.667 23.333 55 52.333 55 87c0 5.33301 -3 8.66602 -9 9.99902c-35.333 4.66699 -53 24.334 -53 59.001c0 18 6 33 18 45s27.333 18 46 18c20.667 0 37.167 -7 49.5 -21
s18.5 -33.333 18.5 -58zM383 336l134.001 -264.001c6 -11.333 13.667 -21.666 23 -30.999l42 -39v-2h-212l-111 236c-3.33301 8 -9.33301 12 -18 12c-4 0 -7.66699 -1.33301 -11 -4v-172c0 -10 3.33301 -18 10 -24l49 -46v-2h-280v2l49 46c6 6 9 14 9 24v558
c0 10.667 -3 19 -9 25l-49 46v2l221 26v-474l162 121c7.33301 5.33301 8 12 2 20l-68 97v2h245v-2l-183 -139c-6.66699 -4.66699 -8.33398 -10.667 -5.00098 -18z" />
    <glyph glyph-name="kgreenlandic" unicode="&#x138;" horiz-adv-x="582" 
d="M242 244v-172.001c0 -10.667 3 -18.667 9 -24l49 -46v-2h-280v2l49 46c6 5.33301 9 13.333 9 24v346c0 10 -3 18.333 -9 25l-49 50v2h222v-240l161 121c7.33301 5.33301 8.33301 12 3 20l-69 97v2h245v-2l-182 -139c-6.66699 -5.33301 -8.66699 -11.333 -6 -18l135 -264
c7.33301 -13.333 15 -23.666 23 -30.999l41 -39v-2h-212l-111 236c-3.33301 8 -9 12 -17 12c-2 0 -5.66699 -1.33301 -11 -4z" />
    <glyph glyph-name="Lacute" unicode="&#x139;" horiz-adv-x="581" 
d="M194 911h160v-2l-237 -165l-2 2zM91 89v525c0 10 -3 18 -9 24l-67 63v2h333v-2l-66 -63c-6.66699 -6 -10 -14 -10 -24v-574c0 -8.66699 1 -14.167 3 -16.5s6.66699 -3.5 14 -3.5h94c13.333 0 23 4.66699 29 14l139 226h2v-260h-538v2l67 63c6 6 9 14 9 24z" />
    <glyph glyph-name="lacute" unicode="&#x13a;" horiz-adv-x="298" 
d="M162 911h160v-2l-237 -165l-2 2zM230 729v-657c0 -10 3.33301 -18 10 -24l49 -46v-2h-280v2l49 46c6 6 9 14 9 24v558c0 10.667 -3 19 -9 25l-49 46v2z" />
    <glyph glyph-name="Lcommaaccent" unicode="&#x13b;" horiz-adv-x="581" 
d="M372 -115c0 -32.667 -11.833 -62.5 -35.5 -89.5s-53.167 -44.5 -88.5 -52.5l-1 2c36.667 23.333 55 52.333 55 87c0 5.33301 -3 8.66602 -9 9.99902c-35.333 4.66699 -53 24.334 -53 59.001c0 18 6 33 18 45s27.333 18 46 18c20.667 0 37.167 -7 49.5 -21
s18.5 -33.333 18.5 -58zM91 89v525c0 10 -3 18 -9 24l-67 63v2h333v-2l-66 -63c-6.66699 -6 -10 -14 -10 -24v-574c0 -8.66699 1 -14.167 3 -16.5s6.66699 -3.5 14 -3.5h94c13.333 0 23 4.66699 29 14l139 226h2v-260h-538v2l67 63c6 6 9 14 9 24z" />
    <glyph glyph-name="lcommaaccent" unicode="&#x13c;" horiz-adv-x="298" 
d="M217 -115c0 -32.667 -11.833 -62.5 -35.5 -89.5s-53.167 -44.5 -88.5 -52.5l-1 2c36.667 23.333 55 52.333 55 87c0 5.33301 -3 8.66602 -9 9.99902c-35.333 4.66699 -53 24.334 -53 59.001c0 18 6 33 18 45s27.333 18 46 18c20.667 0 37.167 -7 49.5 -21
s18.5 -33.333 18.5 -58zM230 729v-657c0 -10 3.33301 -18 10 -24l49 -46v-2h-280v2l49 46c6 6 9 14 9 24v558c0 10.667 -3 19 -9 25l-49 46v2z" />
    <glyph glyph-name="Lcaron" unicode="&#x13d;" horiz-adv-x="580" 
d="M410 703h114l-121 -195h-2zM91 89v525c0 10 -3 18 -9 24l-67 63v2h333v-2l-66 -63c-6.66699 -6 -10 -14 -10 -24v-574c0 -8.66699 1 -14.167 3 -16.5s6.66699 -3.5 14 -3.5h94c13.333 0 23 4.66699 29 14l139 226h2v-260h-538v2l67 63c6 6 9 14 9 24z" />
    <glyph glyph-name="lcaron" unicode="&#x13e;" horiz-adv-x="321" 
d="M292 703h114l-121 -195h-2zM230 729v-657c0 -10 3.33301 -18 10 -24l49 -46v-2h-280v2l49 46c6 6 9 14 9 24v558c0 10.667 -3 19 -9 25l-49 46v2z" />
    <glyph glyph-name="Ldot" unicode="&#x13f;" horiz-adv-x="581" 
d="M94 89v525c0 10 -3 18 -9 24l-67 63v2h333v-2l-66 -63c-6.66699 -6 -10 -14 -10 -24v-574c0 -8.66699 1 -14.167 3 -16.5s6.66699 -3.5 14 -3.5h94c13.333 0 23 4.66699 29 14l139 226h2v-260h-538v2l67 63c6 6 9 14 9 24zM371 389c0 22 7.5 39.667 22.5 53
s33.167 20 54.5 20s39.333 -6.66699 54 -20s22 -31 22 -53c0 -21.333 -7.33301 -38.333 -22 -51s-32.667 -19 -54 -19s-39.5 6.5 -54.5 19.5s-22.5 29.833 -22.5 50.5z" />
    <glyph glyph-name="ldot" unicode="&#x140;" horiz-adv-x="420" 
d="M230 729v-657c0 -10 3.33301 -18 10 -24l49 -46v-2h-280v2l49 46c6 6 9 14 9 24v558c0 10.667 -3 19 -9 25l-49 46v2zM272 358c0 22 7.5 39.667 22.5 53s33.167 20 54.5 20s39.333 -6.66699 54 -20s22 -31 22 -53c0 -21.333 -7.33301 -38.333 -22 -51
s-32.667 -19 -54 -19s-39.5 6.5 -54.5 19.5s-22.5 29.833 -22.5 50.5z" />
    <glyph glyph-name="Lslash" unicode="&#x141;" horiz-adv-x="590" 
d="M411 413l-130 -53v-320c0 -8.66699 1 -14.167 3 -16.5s6.66699 -3.5 14 -3.5h94c13.333 0 23 4.66699 29 14l139 226h2v-260h-538v2l67 63c6 6 9 14 9 24v197l-73 -30l-7 18l80 32v308c0 10 -3 18 -9 24l-67 63v2h333v-2l-66 -63c-6.66699 -6 -10 -14 -10 -24v-234
l123 50z" />
    <glyph glyph-name="lslash" unicode="&#x142;" horiz-adv-x="337" 
d="M350 398l-103 -42v-284c0 -10 3.33301 -18 10 -24l49 -46v-2h-280v2l49 46c6 6 9 14 9 24v217l-81 -33l-7 17l88 36v321c0 10.667 -3 19 -9 25l-49 46v2l221 26v-354l96 40z" />
    <glyph glyph-name="Nacute" unicode="&#x143;" horiz-adv-x="707" 
d="M368 911h160v-2l-237 -165l-2 2zM607 0h-122l-345 534v-366c0 -10 4 -20.333 12 -31l103 -135v-2h-249v2l100 134c8.66699 11.333 13 22 13 32v378c0 13.333 -3 24 -9 32l-100 123v2h236l340 -528v360c0 11.333 -4 22 -12 32l-102 134v2h249v-2l-101 -134
c-8.66699 -12 -13 -22.667 -13 -32v-535z" />
    <glyph glyph-name="nacute" unicode="&#x144;" horiz-adv-x="615" 
d="M326 703h160v-2l-237 -165l-2 2zM557 292c0 -24 -0.5 -63.834 -1.5 -119.501s-1.5 -89.167 -1.5 -100.5c0 -10 3 -18 9 -24l50 -46v-2h-281v2l48 46c6 6 9 13.667 9 23c0 2 0.5 30.833 1.5 86.5s1.5 92.834 1.5 111.501c0 50 -5.33301 87.667 -16 113s-30.667 38 -60 38
s-54 -14.667 -74 -44v-304c0 -10.667 3 -18.667 9 -24l49 -46v-2h-280v2l49 46c6 5.33301 9 13.333 9 24v346c0 10 -3 18.333 -9 25l-49 50v2h222v-106c27.333 76 80.333 114 159 114c50 0 88.5 -18 115.5 -54s40.5 -88.333 40.5 -157z" />
    <glyph glyph-name="Ncommaaccent" unicode="&#x145;" horiz-adv-x="707" 
d="M424 -115c0 -32.667 -11.833 -62.5 -35.5 -89.5s-53.167 -44.5 -88.5 -52.5l-1 2c36.667 23.333 55 52.333 55 87c0 5.33301 -3 8.66602 -9 9.99902c-35.333 4.66699 -53 24.334 -53 59.001c0 18 6 33 18 45s27.333 18 46 18c20.667 0 37.167 -7 49.5 -21
s18.5 -33.333 18.5 -58zM607 0h-122l-345 534v-366c0 -10 4 -20.333 12 -31l103 -135v-2h-249v2l100 134c8.66699 11.333 13 22 13 32v378c0 13.333 -3 24 -9 32l-100 123v2h236l340 -528v360c0 11.333 -4 22 -12 32l-102 134v2h249v-2l-101 -134
c-8.66699 -12 -13 -22.667 -13 -32v-535z" />
    <glyph glyph-name="ncommaaccent" unicode="&#x146;" horiz-adv-x="615" 
d="M386 -115c0 -32.667 -11.833 -62.5 -35.5 -89.5s-53.167 -44.5 -88.5 -52.5l-1 2c36.667 23.333 55 52.333 55 87c0 5.33301 -3 8.66602 -9 9.99902c-35.333 4.66699 -53 24.334 -53 59.001c0 18 6 33 18 45s27.333 18 46 18c20.667 0 37.167 -7 49.5 -21
s18.5 -33.333 18.5 -58zM557 292c0 -24 -0.5 -63.834 -1.5 -119.501s-1.5 -89.167 -1.5 -100.5c0 -10 3 -18 9 -24l50 -46v-2h-281v2l48 46c6 6 9 13.667 9 23c0 2 0.5 30.833 1.5 86.5s1.5 92.834 1.5 111.501c0 50 -5.33301 87.667 -16 113s-30.667 38 -60 38
s-54 -14.667 -74 -44v-304c0 -10.667 3 -18.667 9 -24l49 -46v-2h-280v2l49 46c6 5.33301 9 13.333 9 24v346c0 10 -3 18.333 -9 25l-49 50v2h222v-106c27.333 76 80.333 114 159 114c50 0 88.5 -18 115.5 -54s40.5 -88.333 40.5 -157z" />
    <glyph glyph-name="Ncaron" unicode="&#x147;" horiz-adv-x="707" 
d="M355 849l163 67l1 -2l-163 -174h-2l-163 174l1 2zM607 0h-122l-345 534v-366c0 -10 4 -20.333 12 -31l103 -135v-2h-249v2l100 134c8.66699 11.333 13 22 13 32v378c0 13.333 -3 24 -9 32l-100 123v2h236l340 -528v360c0 11.333 -4 22 -12 32l-102 134v2h249v-2
l-101 -134c-8.66699 -12 -13 -22.667 -13 -32v-535z" />
    <glyph glyph-name="ncaron" unicode="&#x148;" horiz-adv-x="615" 
d="M313 642l163 67l1 -2l-163 -174h-2l-163 174l1 2zM557 292c0 -24 -0.5 -63.834 -1.5 -119.501s-1.5 -89.167 -1.5 -100.5c0 -10 3 -18 9 -24l50 -46v-2h-281v2l48 46c6 6 9 13.667 9 23c0 2 0.5 30.833 1.5 86.5s1.5 92.834 1.5 111.501c0 50 -5.33301 87.667 -16 113
s-30.667 38 -60 38s-54 -14.667 -74 -44v-304c0 -10.667 3 -18.667 9 -24l49 -46v-2h-280v2l49 46c6 5.33301 9 13.333 9 24v346c0 10 -3 18.333 -9 25l-49 50v2h222v-106c27.333 76 80.333 114 159 114c50 0 88.5 -18 115.5 -54s40.5 -88.333 40.5 -157z" />
    <glyph glyph-name="napostrophe" unicode="&#x149;" horiz-adv-x="676" 
d="M102 616c0 -32.667 -11.833 -62.501 -35.5 -89.501s-53.167 -44.5 -88.5 -52.5l-1 2c36.667 23.333 55 52.333 55 87c0 6 -3 9.33301 -9 10c-35.333 4.66699 -53 24.334 -53 59.001c0 18 6 33 18 45s27.333 18 46 18c20.667 0 37.167 -7 49.5 -21s18.5 -33.333 18.5 -58z
M618 291.999c0 -24 -0.5 -63.834 -1.5 -119.501s-1.5 -89.167 -1.5 -100.5c0 -10 3 -18 9 -24l50 -46v-2h-281v2l48 46c6 6 9 13.667 9 23c0 2 0.5 30.833 1.5 86.5s1.5 92.834 1.5 111.501c0 50 -5.33301 87.667 -16 113s-30.667 38 -60 38s-54 -14.667 -74 -44v-304
c0 -10.667 3 -18.667 9 -24l49 -46v-2h-280v2l49 46c6 5.33301 9 13.333 9 24v346c0 10 -3 18.333 -9 25l-49 50v2h222v-106c27.333 76 80.333 114 159 114c50 0 88.5 -18 115.5 -54s40.5 -88.333 40.5 -157z" />
    <glyph glyph-name="Eng" unicode="&#x14a;" horiz-adv-x="695" 
d="M272 583v-494c0 -10 3.33301 -18 10 -24l66 -63v-2h-333v2l67 63c6 6 9 14 9 24v525c0 10 -3 18 -9 24l-67 63v2h257v-108c12.667 35.333 35.167 63.5 67.5 84.5s69.166 31.5 110.499 31.5c60.667 0 109.334 -18 146.001 -54s55 -87.667 55 -155v-432
c0 -87.333 -25 -154.333 -75 -201s-117 -70 -201 -70v2c66 16.667 99 83.667 99 201v480c0 98 -36 147 -108 147c-17.333 0 -35 -4.33301 -53 -13s-31.667 -19.667 -41 -33z" />
    <glyph glyph-name="eng" unicode="&#x14b;" horiz-adv-x="608" 
d="M393 -23l-1 292.001c0 50 -5.33301 87.667 -16 113s-30.667 38 -60 38s-54 -14.667 -74 -44v-304c0 -10.667 3 -18.667 9 -24l49 -46v-2h-280v2l49 46c6 5.33301 9 13.333 9 24v346c0 10 -3 18.333 -9 25l-49 50v2h222v-106c27.333 76 80.333 114 159 114
c50 0 88.5 -17.833 115.5 -53.5s40.5 -87.834 40.5 -156.501v-248c0 -88 -23.5 -155.167 -70.5 -201.5s-112.167 -69.5 -195.5 -69.5v2c68 17.333 102 84.333 102 201z" />
    <glyph glyph-name="Omacron" unicode="&#x14c;" horiz-adv-x="732" 
d="M505 800h-281v20h281v-20zM366 9c44 0 77.167 27 99.5 81s33.5 141.333 33.5 262s-11.167 207.834 -33.5 261.501s-55.5 80.5 -99.5 80.5s-77.167 -26.833 -99.5 -80.5s-33.5 -140.834 -33.5 -261.501s11.167 -208 33.5 -262s55.5 -81 99.5 -81zM366 713
c107.333 0 190.666 -30.833 249.999 -92.5s89 -151.5 89 -269.5c0 -117.333 -29.667 -206.833 -89 -268.5s-142.666 -92.5 -249.999 -92.5s-190.666 30.833 -249.999 92.5s-89 151.167 -89 268.5c0 118 29.667 207.833 89 269.5s142.666 92.5 249.999 92.5z" />
    <glyph glyph-name="omacron" unicode="&#x14d;" horiz-adv-x="571" 
d="M424 592h-281v20h281v-20zM285 484c-27.333 0 -47.666 -16.5 -60.999 -49.5s-20 -95.167 -20 -186.5c0 -90.667 6.66699 -153 20 -187s33.666 -51 60.999 -51s47.666 16.667 60.999 50s20 95.666 20 186.999c0 90.667 -6.66699 152.834 -20 186.501
s-33.666 50.5 -60.999 50.5zM285 -8c-81.333 0 -145.498 21.833 -192.498 65.5s-70.5 107.167 -70.5 190.5c0 82 23.667 145 71 189s111.333 66 192 66c81.333 0 145.666 -21.833 192.999 -65.5s71 -107.167 71 -190.5c0 -82 -23.833 -145 -71.5 -189
s-111.834 -66 -192.501 -66z" />
    <glyph glyph-name="Obreve" unicode="&#x14e;" horiz-adv-x="732" 
d="M366 9c44 0 77.167 27 99.5 81s33.5 141.333 33.5 262s-11.167 207.834 -33.5 261.501s-55.5 80.5 -99.5 80.5s-77.167 -26.833 -99.5 -80.5s-33.5 -140.834 -33.5 -261.501s11.167 -208 33.5 -262s55.5 -81 99.5 -81zM366 713c107.333 0 190.666 -30.833 249.999 -92.5
s89 -151.5 89 -269.5c0 -117.333 -29.667 -206.833 -89 -268.5s-142.666 -92.5 -249.999 -92.5s-190.666 30.833 -249.999 92.5s-89 151.167 -89 268.5c0 118 29.667 207.833 89 269.5s142.666 92.5 249.999 92.5zM362 825c37.333 0 67.1689 8.16699 89.502 24.5
s34.5 39.833 36.5 70.5h2c2.66699 -20 4 -34 4 -42c0 -42.667 -12.833 -75 -38.5 -97s-56.834 -33 -93.501 -33c-36 0 -66.667 11 -92 33s-38 54.333 -38 97c0 14.667 1.33301 28.667 4 42h2c1.33301 -30.667 13.166 -54.167 35.499 -70.5s51.833 -24.5 88.5 -24.5z" />
    <glyph glyph-name="obreve" unicode="&#x14f;" horiz-adv-x="571" 
d="M285 484c-27.333 0 -47.666 -16.5 -60.999 -49.5s-20 -95.167 -20 -186.5c0 -90.667 6.66699 -153 20 -187s33.666 -51 60.999 -51s47.666 16.667 60.999 50s20 95.666 20 186.999c0 90.667 -6.66699 152.834 -20 186.501s-33.666 50.5 -60.999 50.5zM285 -8
c-81.333 0 -145.498 21.833 -192.498 65.5s-70.5 107.167 -70.5 190.5c0 82 23.667 145 71 189s111.333 66 192 66c81.333 0 145.666 -21.833 192.999 -65.5s71 -107.167 71 -190.5c0 -82 -23.833 -145 -71.5 -189s-111.834 -66 -192.501 -66zM282.002 617
c37.333 0 67.1689 8.16699 89.502 24.5s34.5 39.833 36.5 70.5h2c2.66699 -20 4 -34 4 -42c0 -42.667 -12.833 -75 -38.5 -97s-56.834 -33 -93.501 -33c-36 0 -66.667 11 -92 33s-38 54.333 -38 97c0 14.667 1.33301 28.667 4 42h2
c1.33301 -30.667 13.166 -54.167 35.499 -70.5s51.833 -24.5 88.5 -24.5z" />
    <glyph glyph-name="Ohungarumlaut" unicode="&#x150;" horiz-adv-x="732" 
d="M313 911h129v-2l-184 -170h-2zM480 911h129v-2l-184 -170h-2zM366 9c44 0 77.167 27 99.5 81s33.5 141.333 33.5 262s-11.167 207.834 -33.5 261.501s-55.5 80.5 -99.5 80.5s-77.167 -26.833 -99.5 -80.5s-33.5 -140.834 -33.5 -261.501s11.167 -208 33.5 -262
s55.5 -81 99.5 -81zM366 713c107.333 0 190.666 -30.833 249.999 -92.5s89 -151.5 89 -269.5c0 -117.333 -29.667 -206.833 -89 -268.5s-142.666 -92.5 -249.999 -92.5s-190.666 30.833 -249.999 92.5s-89 151.167 -89 268.5c0 118 29.667 207.833 89 269.5
s142.666 92.5 249.999 92.5z" />
    <glyph glyph-name="ohungarumlaut" unicode="&#x151;" horiz-adv-x="571" 
d="M232 703h129v-2l-184 -170h-2zM399 703h129v-2l-184 -170h-2zM285 484c-27.333 0 -47.666 -16.5 -60.999 -49.5s-20 -95.167 -20 -186.5c0 -90.667 6.66699 -153 20 -187s33.666 -51 60.999 -51s47.666 16.667 60.999 50s20 95.666 20 186.999
c0 90.667 -6.66699 152.834 -20 186.501s-33.666 50.5 -60.999 50.5zM285 -8c-81.333 0 -145.498 21.833 -192.498 65.5s-70.5 107.167 -70.5 190.5c0 82 23.667 145 71 189s111.333 66 192 66c81.333 0 145.666 -21.833 192.999 -65.5s71 -107.167 71 -190.5
c0 -82 -23.833 -145 -71.5 -189s-111.834 -66 -192.501 -66z" />
    <glyph glyph-name="OE" unicode="&#x152;" horiz-adv-x="992" 
d="M840 224l-87.001 103.999c-8 9.33301 -17 14 -27 14h-70v-302c0 -9.33301 1.16699 -15 3.5 -17s8.5 -3 18.5 -3h109c14.667 0 24.667 4.66699 30 14l124 208h3v-242h-442c-41.333 -6.66699 -81.666 -10 -120.999 -10c-114.667 0 -202.334 31 -263.001 93
s-91 151.333 -91 268c0 116 30.667 205.333 92 268s147.333 94 258 94c46.667 0 87.667 -3.33301 123 -10h432v-239h-2l-130 203c-7.33301 10.667 -16.666 16 -27.999 16h-100c-7.33301 0 -11.833 -1.16699 -13.5 -3.5s-2.5 -7.83301 -2.5 -16.5v-302h70
c10.667 0.666992 19.667 5.33398 27 14.001l87 104h2v-255h-2zM474.999 79.999l0.00195312 541c0 22 -7.33301 39 -22 51c-18.667 14.667 -43.334 22 -74.001 22c-52 0 -89.333 -28 -112 -84s-34 -142 -34 -258c0 -119.333 11.667 -206.333 35 -261s61.666 -82 114.999 -82
c14.667 0 29.167 2.83301 43.5 8.5s24.5 11.167 30.5 16.5c12 10.667 18 26 18 46z" />
    <glyph glyph-name="oe" unicode="&#x153;" horiz-adv-x="862" 
d="M285 -8c-81.333 0 -145.499 21.8301 -192.499 65.4971s-70.5 107.167 -70.5 190.5c0 82 23.667 145 71 189s111.333 66 192 66c78 0 136 -22.667 174 -68c18 22 41.833 38.833 71.5 50.5s60.167 17.5 91.5 17.5c28 0 54.333 -3.66699 79 -11
s47.834 -18.666 69.501 -33.999s38.667 -37.166 51 -65.499s18.5 -61.833 18.5 -100.5c0 -8 -0.333008 -15.333 -1 -22h-299v-14c2 -57.333 16.167 -100.166 42.5 -128.499s59.833 -42.5 100.5 -42.5c70.667 0 121 30.667 151 92h2c-24.667 -123.333 -98 -185 -220 -185
c-30.667 0 -60.334 5.83301 -89.001 17.5s-51.667 28.167 -69 49.5c-38.667 -44.667 -96.334 -67 -173.001 -67zM285.001 483.997c-27.333 0 -47.666 -16.5 -60.999 -49.5s-20 -95.167 -20 -186.5c0 -90.667 6.66699 -152.834 20 -186.501s33.666 -50.5 60.999 -50.5
s47.666 16.5 60.999 49.5s20 95.167 20 186.5c0 90.667 -6.66699 152.834 -20 186.501s-33.666 50.5 -60.999 50.5zM540.001 287.997h147v3c0 74 -5.5 124.667 -16.5 152s-28.167 41 -51.5 41c-24.667 0 -43.5 -14.833 -56.5 -44.5s-20.5 -80.167 -22.5 -151.5z" />
    <glyph glyph-name="Racute" unicode="&#x154;" horiz-adv-x="696" 
d="M352 911h160v-2l-237 -165l-2 2zM324 328l-52.001 -0.000976562v-240c0 -10 3.33301 -18 10 -24l67 -62v-2h-334v2l67 63c6 6 9 14 9 24v525c0 10 -3 18 -9 24l-67 63v2h386c67.333 0 122.833 -14.667 166.5 -44s65.5 -74.666 65.5 -135.999
c0 -53.333 -19.167 -95.833 -57.5 -127.5s-92.166 -50.167 -161.499 -55.5v-2l129 -38l91 -216c4.66699 -12 13.667 -24.667 27 -38l43 -44v-2h-234l-124 316c-4 8 -11.333 12 -22 12zM271.999 663.999v-316h52c77.333 0 116 54.667 116 164c0 114 -37.333 171 -112 171h-38
c-8 0 -13 -1.16699 -15 -3.5s-3 -7.5 -3 -15.5z" />
    <glyph glyph-name="racute" unicode="&#x155;" horiz-adv-x="428" 
d="M250 703h160v-2l-237 -165l-2 2zM439 470l-55.001 -157.001h-2l-79 94c-6 7.33301 -12 9 -18 5c-12.667 -9.33301 -27 -28.666 -43 -57.999v-270c0 -10 5 -18.333 15 -25l98 -57v-2h-335v2l49 46c6 5.33301 9 13.333 9 24v346c0 10 -3 18.333 -9 25l-49 50v2h222v-128
c9.33301 39.333 25 71.833 47 97.5s49.333 38.5 82 38.5c28.667 0 51.334 -11 68.001 -33z" />
    <glyph glyph-name="Rcommaaccent" unicode="&#x156;" horiz-adv-x="696" 
d="M433 -115c0 -32.667 -11.833 -62.5 -35.5 -89.5s-53.167 -44.5 -88.5 -52.5l-1 2c36.667 23.333 55 52.333 55 87c0 5.33301 -3 8.66602 -9 9.99902c-35.333 4.66699 -53 24.334 -53 59.001c0 18 6 33 18 45s27.333 18 46 18c20.667 0 37.167 -7 49.5 -21
s18.5 -33.333 18.5 -58zM324 328l-52.001 -0.000976562v-240c0 -10 3.33301 -18 10 -24l67 -62v-2h-334v2l67 63c6 6 9 14 9 24v525c0 10 -3 18 -9 24l-67 63v2h386c67.333 0 122.833 -14.667 166.5 -44s65.5 -74.666 65.5 -135.999c0 -53.333 -19.167 -95.833 -57.5 -127.5
s-92.166 -50.167 -161.499 -55.5v-2l129 -38l91 -216c4.66699 -12 13.667 -24.667 27 -38l43 -44v-2h-234l-124 316c-4 8 -11.333 12 -22 12zM271.999 663.999v-316h52c77.333 0 116 54.667 116 164c0 114 -37.333 171 -112 171h-38c-8 0 -13 -1.16699 -15 -3.5
s-3 -7.5 -3 -15.5z" />
    <glyph glyph-name="rcommaaccent" unicode="&#x157;" horiz-adv-x="428" 
d="M228 -115c0 -32.667 -11.833 -62.5 -35.5 -89.5s-53.167 -44.5 -88.5 -52.5l-1 2c36.667 23.333 55 52.333 55 87c0 5.33301 -3 8.66602 -9 9.99902c-35.333 4.66699 -53 24.334 -53 59.001c0 18 6 33 18 45s27.333 18 46 18c20.667 0 37.167 -7 49.5 -21
s18.5 -33.333 18.5 -58zM439 470l-55.001 -157.001h-2l-79 94c-6 7.33301 -12 9 -18 5c-12.667 -9.33301 -27 -28.666 -43 -57.999v-270c0 -10 5 -18.333 15 -25l98 -57v-2h-335v2l49 46c6 5.33301 9 13.333 9 24v346c0 10 -3 18.333 -9 25l-49 50v2h222v-128
c9.33301 39.333 25 71.833 47 97.5s49.333 38.5 82 38.5c28.667 0 51.334 -11 68.001 -33z" />
    <glyph glyph-name="Rcaron" unicode="&#x158;" horiz-adv-x="696" 
d="M339 849l163 67l1 -2l-163 -174h-2l-163 174l1 2zM324 328l-52.001 -0.000976562v-240c0 -10 3.33301 -18 10 -24l67 -62v-2h-334v2l67 63c6 6 9 14 9 24v525c0 10 -3 18 -9 24l-67 63v2h386c67.333 0 122.833 -14.667 166.5 -44s65.5 -74.666 65.5 -135.999
c0 -53.333 -19.167 -95.833 -57.5 -127.5s-92.166 -50.167 -161.499 -55.5v-2l129 -38l91 -216c4.66699 -12 13.667 -24.667 27 -38l43 -44v-2h-234l-124 316c-4 8 -11.333 12 -22 12zM271.999 663.999v-316h52c77.333 0 116 54.667 116 164c0 114 -37.333 171 -112 171h-38
c-8 0 -13 -1.16699 -15 -3.5s-3 -7.5 -3 -15.5z" />
    <glyph glyph-name="rcaron" unicode="&#x159;" horiz-adv-x="428" 
d="M237 642l163 67l1 -2l-163 -174h-2l-163 174l1 2zM439 470l-55.001 -157.001h-2l-79 94c-6 7.33301 -12 9 -18 5c-12.667 -9.33301 -27 -28.666 -43 -57.999v-270c0 -10 5 -18.333 15 -25l98 -57v-2h-335v2l49 46c6 5.33301 9 13.333 9 24v346c0 10 -3 18.333 -9 25
l-49 50v2h222v-128c9.33301 39.333 25 71.833 47 97.5s49.333 38.5 82 38.5c28.667 0 51.334 -11 68.001 -33z" />
    <glyph glyph-name="Sacute" unicode="&#x15a;" horiz-adv-x="566" 
d="M296 911h160v-2l-237 -165l-2 2zM544 218c0 -68 -25.6631 -123.003 -76.9961 -165.003s-119 -63 -203 -63c-72.667 0 -141 9.33301 -205 28v239h2l132 -228c6 -10.667 13.333 -16.667 22 -18c10 -1.33301 24 -2 42 -2c41.333 0 74.333 10 99 30s37 48.333 37 85
c0 31.333 -10.333 56.5 -31 75.5s-56.334 40.5 -107.001 64.5l-31 15c-26.667 12.667 -49.334 24.834 -68.001 36.501s-37.834 26.334 -57.501 44.001s-34.667 38.667 -45 63s-15.5 51.5 -15.5 81.5c0 63.333 23.667 114 71 152s110.333 57 189 57
c64.667 0 128.667 -7.66699 192 -23v-228h-2l-135 216c-5.33301 8 -12 12.667 -20 14c-7.33301 1.33301 -17 2 -29 2c-36 0 -64.833 -9.66699 -86.5 -29s-32.5 -46.333 -32.5 -81c0 -29.333 9.83301 -53 29.5 -71s52.167 -38 97.5 -60l37 -18
c26 -12.667 46.667 -23.167 62 -31.5s32.5 -19.333 51.5 -33s33.667 -27.167 44 -40.5s19.166 -29.666 26.499 -48.999s11 -40.333 11 -63z" />
    <glyph glyph-name="sacute" unicode="&#x15b;" horiz-adv-x="456" 
d="M249 703h160v-2l-237 -165l-2 2zM298 83c0 19.333 -6.83398 34.6689 -20.501 46.002s-38.834 25.333 -75.501 42l-68 32c-64.667 30.667 -97 78 -97 142c0 48 18.333 86.333 55 115s86.667 43 150 43c58.667 0 117.334 -9 176.001 -27l-56 -145h-2l-78 139
c-6 10 -13.667 15 -23 15h-14c-23.333 0 -42.666 -6 -57.999 -18s-23 -29.333 -23 -52c0 -20.667 7.16699 -37.334 21.5 -50.001s37.833 -26.334 70.5 -41.001l64 -28c36 -15.333 63.5 -33.333 82.5 -54s28.5 -48.667 28.5 -84c0 -52.667 -20.333 -93.5 -61 -122.5
s-95 -43.5 -163 -43.5c-64 0 -125.333 10.333 -184 31l55 155h2l80 -155c4 -8.66699 11 -13 21 -13h23c28.667 0 51.5 6.66699 68.5 20s25.5 31 25.5 53z" />
    <glyph glyph-name="Scircumflex" unicode="&#x15c;" horiz-adv-x="566" 
d="M446 744l-1 -1l-163 67l-163 -67l-1 1l163 175h2zM544 218c0 -68 -25.6631 -123.003 -76.9961 -165.003s-119 -63 -203 -63c-72.667 0 -141 9.33301 -205 28v239h2l132 -228c6 -10.667 13.333 -16.667 22 -18c10 -1.33301 24 -2 42 -2c41.333 0 74.333 10 99 30
s37 48.333 37 85c0 31.333 -10.333 56.5 -31 75.5s-56.334 40.5 -107.001 64.5l-31 15c-26.667 12.667 -49.334 24.834 -68.001 36.501s-37.834 26.334 -57.501 44.001s-34.667 38.667 -45 63s-15.5 51.5 -15.5 81.5c0 63.333 23.667 114 71 152s110.333 57 189 57
c64.667 0 128.667 -7.66699 192 -23v-228h-2l-135 216c-5.33301 8 -12 12.667 -20 14c-7.33301 1.33301 -17 2 -29 2c-36 0 -64.833 -9.66699 -86.5 -29s-32.5 -46.333 -32.5 -81c0 -29.333 9.83301 -53 29.5 -71s52.167 -38 97.5 -60l37 -18
c26 -12.667 46.667 -23.167 62 -31.5s32.5 -19.333 51.5 -33s33.667 -27.167 44 -40.5s19.166 -29.666 26.499 -48.999s11 -40.333 11 -63z" />
    <glyph glyph-name="scircumflex" unicode="&#x15d;" horiz-adv-x="456" 
d="M400 536l-1 -1l-163 67l-163 -67l-1 1l163 175h2zM298 83c0 19.333 -6.83398 34.6689 -20.501 46.002s-38.834 25.333 -75.501 42l-68 32c-64.667 30.667 -97 78 -97 142c0 48 18.333 86.333 55 115s86.667 43 150 43c58.667 0 117.334 -9 176.001 -27l-56 -145h-2
l-78 139c-6 10 -13.667 15 -23 15h-14c-23.333 0 -42.666 -6 -57.999 -18s-23 -29.333 -23 -52c0 -20.667 7.16699 -37.334 21.5 -50.001s37.833 -26.334 70.5 -41.001l64 -28c36 -15.333 63.5 -33.333 82.5 -54s28.5 -48.667 28.5 -84c0 -52.667 -20.333 -93.5 -61 -122.5
s-95 -43.5 -163 -43.5c-64 0 -125.333 10.333 -184 31l55 155h2l80 -155c4 -8.66699 11 -13 21 -13h23c28.667 0 51.5 6.66699 68.5 20s25.5 31 25.5 53z" />
    <glyph glyph-name="Scedilla" unicode="&#x15e;" horiz-adv-x="566" 
d="M264 -10c-72.667 0 -140.996 9.3291 -204.996 27.9961v239h2l132 -228c6 -10 13.333 -15.667 22 -17c10 -2 24 -3 42 -3c41.333 0 74.333 10 99 30s37 48.333 37 85c0 31.333 -10.333 56.5 -31 75.5s-56.334 40.5 -107.001 64.5l-31 15
c-26.667 12.667 -49.334 24.834 -68.001 36.501s-37.834 26.334 -57.501 44.001s-34.667 38.667 -45 63s-15.5 51.5 -15.5 81.5c0 63.333 23.667 114 71 152s110.333 57 189 57c64.667 0 128.667 -7.66699 192 -23v-228h-2l-135 216c-6 8.66699 -12.667 13.334 -20 14.001
c-6.66699 1.33301 -16.334 2 -29.001 2c-36 0 -64.833 -9.66699 -86.5 -29s-32.5 -46.333 -32.5 -81c0 -29.333 9.83301 -53 29.5 -71s52.167 -38 97.5 -60l37 -18c26 -12.667 46.667 -23.167 62 -31.5s32.5 -19.333 51.5 -33s33.667 -27.167 44 -40.5
s19.166 -29.666 26.499 -48.999s11 -40.333 11 -63c0 -65.333 -24 -119 -72 -161s-111.667 -64.333 -191 -67l-7 -50c36 6.66699 66.667 1.66699 92 -15s38 -39 38 -67c0 -27.333 -10.667 -49.833 -32 -67.5s-49.666 -26.5 -84.999 -26.5c-34 0 -63.333 8.66699 -88 26
s-37.667 40.333 -39 69l2 1c6 -19.333 17.333 -33.833 34 -43.5s33.334 -14.5 50.001 -14.5c17.333 0 32.166 5 44.499 15s18.5 23.667 18.5 41s-6 31 -18 41s-27 15 -45 15c-15.333 0 -28.333 -2.33301 -39 -7l-1 2l70 81h-12z" />
    <glyph glyph-name="scedilla" unicode="&#x15f;" horiz-adv-x="456" 
d="M336 -142c0 -27.333 -10.502 -49.8301 -31.502 -67.4971s-49.5 -26.5 -85.5 -26.5c-33.333 0 -62.333 8.66699 -87 26s-38 40.333 -40 69l2 1c6 -19.333 17.333 -33.833 34 -43.5s33.334 -14.5 50.001 -14.5c18 0 33.167 4.83301 45.5 14.5s18.5 23.5 18.5 41.5
s-6.16699 31.833 -18.5 41.5s-27.833 14.5 -46.5 14.5c-13.333 0 -26 -2.33301 -38 -7l-1 2l70 83h-1c-64 0 -125.333 10.333 -184 31l55 155h2l80 -155c4 -8.66699 11 -13 21 -13h23c28.667 0 51.5 6.66699 68.5 20s25.5 31 25.5 53c0 19.333 -6.83301 34.666 -20.5 45.999
s-38.834 25.333 -75.501 42l-68 32c-64.667 30.667 -97 78 -97 142c0 48 18.333 86.333 55 115s86.667 43 150 43c58.667 0 117.334 -9 176.001 -27l-56 -145h-2l-78 139c-6 10 -13.667 15 -23 15h-14c-23.333 0 -42.666 -6 -57.999 -18s-23 -29.333 -23 -52
c0 -20.667 7.16699 -37.334 21.5 -50.001s37.833 -26.334 70.5 -41.001l64 -28c36 -15.333 63.5 -33.333 82.5 -54s28.5 -48.667 28.5 -84c0 -52 -19.667 -92.333 -59 -121s-92.333 -43.667 -159 -45l-7 -52c36 6.66699 66.667 1.66699 92 -15s38 -39 38 -67z" />
    <glyph glyph-name="Scaron" unicode="&#x160;" horiz-adv-x="566" 
d="M282 849l163 67l1 -2l-163 -174h-2l-163 174l1 2zM544 218c0 -68 -25.6631 -123.003 -76.9961 -165.003s-119 -63 -203 -63c-72.667 0 -141 9.33301 -205 28v239h2l132 -228c6 -10.667 13.333 -16.667 22 -18c10 -1.33301 24 -2 42 -2c41.333 0 74.333 10 99 30
s37 48.333 37 85c0 31.333 -10.333 56.5 -31 75.5s-56.334 40.5 -107.001 64.5l-31 15c-26.667 12.667 -49.334 24.834 -68.001 36.501s-37.834 26.334 -57.501 44.001s-34.667 38.667 -45 63s-15.5 51.5 -15.5 81.5c0 63.333 23.667 114 71 152s110.333 57 189 57
c64.667 0 128.667 -7.66699 192 -23v-228h-2l-135 216c-5.33301 8 -12 12.667 -20 14c-7.33301 1.33301 -17 2 -29 2c-36 0 -64.833 -9.66699 -86.5 -29s-32.5 -46.333 -32.5 -81c0 -29.333 9.83301 -53 29.5 -71s52.167 -38 97.5 -60l37 -18
c26 -12.667 46.667 -23.167 62 -31.5s32.5 -19.333 51.5 -33s33.667 -27.167 44 -40.5s19.166 -29.666 26.499 -48.999s11 -40.333 11 -63z" />
    <glyph glyph-name="scaron" unicode="&#x161;" horiz-adv-x="456" 
d="M236 642l163 67l1 -2l-163 -174h-2l-163 174l1 2zM298 83c0 19.333 -6.83398 34.6689 -20.501 46.002s-38.834 25.333 -75.501 42l-68 32c-64.667 30.667 -97 78 -97 142c0 48 18.333 86.333 55 115s86.667 43 150 43c58.667 0 117.334 -9 176.001 -27l-56 -145h-2
l-78 139c-6 10 -13.667 15 -23 15h-14c-23.333 0 -42.666 -6 -57.999 -18s-23 -29.333 -23 -52c0 -20.667 7.16699 -37.334 21.5 -50.001s37.833 -26.334 70.5 -41.001l64 -28c36 -15.333 63.5 -33.333 82.5 -54s28.5 -48.667 28.5 -84c0 -52.667 -20.333 -93.5 -61 -122.5
s-95 -43.5 -163 -43.5c-64 0 -125.333 10.333 -184 31l55 155h2l80 -155c4 -8.66699 11 -13 21 -13h23c28.667 0 51.5 6.66699 68.5 20s25.5 31 25.5 53z" />
    <glyph glyph-name="Tcommaaccent" unicode="&#x162;" horiz-adv-x="634" 
d="M380 -118c0 -32.667 -11.833 -62.501 -35.5 -89.501s-53.167 -44.5 -88.5 -52.5l-1 2c36.667 23.333 55 52.333 55 87c0 6 -3 9.33301 -9 10c-35.333 4.66699 -53 24.334 -53 59.001c0 18 6 33 18 45s27.333 18 46 18c20.667 0 37.167 -7 49.5 -21s18.5 -33.333 18.5 -58
zM407 95.999c0 -10.667 3.66699 -19.333 11 -26l74 -68v-2h-350v2l74 68c7.33301 7.33301 11 16 11 26v587h-57c-8 0 -13.5 -0.833008 -16.5 -2.5s-6.16699 -6.16699 -9.5 -13.5l-123 -234h-2v270h596v-270h-2l-123 234c-3.33301 7.33301 -6.5 11.833 -9.5 13.5
s-8.5 2.5 -16.5 2.5h-57v-587z" />
    <glyph glyph-name="tcommaaccent" unicode="&#x163;" horiz-adv-x="338" 
d="M249 -115c0 -32.667 -11.833 -62.5 -35.5 -89.5s-53.167 -44.5 -88.5 -52.5l-1 2c36.667 23.333 55 52.333 55 87c0 5.33301 -3 8.66602 -9 9.99902c-35.333 4.66699 -53 24.334 -53 59.001c0 18 6 33 18 45s27.333 18 46 18c20.667 0 37.167 -7 49.5 -21
s18.5 -33.333 18.5 -58zM346 495l0.000976562 -20h-123v-334c0 -22.667 4.66699 -40.167 14 -52.5s22.333 -18.5 39 -18.5c25.333 0 44.666 12.333 57.999 37l2 -1c-6 -32 -20.833 -59 -44.5 -81s-57.5 -33 -101.5 -33c-86.667 0 -130 45.667 -130 137v346h-55v20h45
c14 0 24.333 3.66699 31 11l140 157h2v-168h123z" />
    <glyph glyph-name="Tcaron" unicode="&#x164;" horiz-adv-x="634" 
d="M318 849l163 67l1 -2l-163 -174h-2l-163 174l1 2zM407 96c0 -10.667 3.66699 -19.333 11 -26l74 -68v-2h-350v2l74 68c7.33301 7.33301 11 16 11 26v587h-57c-8 0 -13.5 -0.833008 -16.5 -2.5s-6.16699 -6.16699 -9.5 -13.5l-123 -234h-2v270h596v-270h-2l-123 234
c-3.33301 7.33301 -6.5 11.833 -9.5 13.5s-8.5 2.5 -16.5 2.5h-57v-587z" />
    <glyph glyph-name="tcaron" unicode="&#x165;" horiz-adv-x="338" 
d="M277 703h114l-121 -195h-2zM346 495l0.000976562 -20h-123v-334c0 -22.667 4.66699 -40.167 14 -52.5s22.333 -18.5 39 -18.5c25.333 0 44.666 12.333 57.999 37l2 -1c-6 -32 -20.833 -59 -44.5 -81s-57.5 -33 -101.5 -33c-86.667 0 -130 45.667 -130 137v346h-55v20h45
c14 0 24.333 3.66699 31 11l140 157h2v-168h123z" />
    <glyph glyph-name="Tbar" unicode="&#x166;" horiz-adv-x="637" 
d="M535 334l-127 0.000976562v-238c0 -10.667 3.66699 -19.334 11 -26.001l74 -68v-2h-350v2l74 68c7.33301 7.33301 11 16 11 26v238h-125v19h125v330h-57c-8 0 -13.5 -0.833008 -16.5 -2.5s-6.16699 -6.16699 -9.5 -13.5l-123 -234h-2v270h596v-270h-2l-123 234
c-3.33301 7.33301 -6.5 11.833 -9.5 13.5s-8.5 2.5 -16.5 2.5h-57v-330h127v-19z" />
    <glyph glyph-name="tbar" unicode="&#x167;" horiz-adv-x="350" 
d="M351 351l0.000976562 -19h-123v-191c0 -22.667 4.66699 -40.167 14 -52.5s22.333 -18.5 39 -18.5c25.333 0 44.666 12.333 57.999 37l2 -1c-6 -32 -20.833 -59 -44.5 -81s-57.5 -33 -101.5 -33c-86.667 0 -130 45.667 -130 137v203h-55v19h55v124h-55v20h45
c14 0 24.333 3.66699 31 11l140 157h2v-168h123v-20h-123v-124h123z" />
    <glyph glyph-name="Utilde" unicode="&#x168;" horiz-adv-x="673" 
d="M349 -10c-95.333 0 -164.501 19.1689 -207.501 57.502s-64.5 102.166 -64.5 191.499v374c0 10 -3.33301 18 -10 24l-60 64v2h323v-2l-62 -64c-6.66699 -6 -10 -14 -10 -24v-363c0 -78.667 12.833 -135.334 38.5 -170.001s63.834 -52 114.501 -52c48 0 85.333 19 112 57
s40 94.333 40 169v281c0 12 -4.33301 23 -13 33l-98 133v2h243v-2l-98 -133c-8.66699 -10 -13 -21 -13 -33v-279c0 -86.667 -18.333 -152.667 -55 -198s-96.667 -68 -180 -68zM439.999 770.002c-18 0 -42.335 8.16504 -73.002 24.498s-53.334 24.5 -68.001 24.5
c-32 0 -53.333 -16.333 -64 -49h-2v24c0 30.667 7.83301 55.334 23.5 74.001s35.834 28 60.501 28c18 0 42.333 -8.16699 73 -24.5s53.334 -24.5 68.001 -24.5c32 0 53.667 16.333 65 49h2c0 -11.333 -0.333008 -19.666 -1 -24.999
c-1.33301 -30.667 -9.66602 -55.167 -24.999 -73.5s-35 -27.5 -59 -27.5z" />
    <glyph glyph-name="utilde" unicode="&#x169;" horiz-adv-x="595" 
d="M527 495l0.000976562 -419.001c0 -11.333 3 -19.666 9 -24.999l50 -49v-2h-223v107c-12.667 -35.333 -32.334 -63.333 -59.001 -84s-58 -31 -94 -31c-49.333 0 -87 17.667 -113 53s-39 87 -39 155c0 38 0.666992 111 2 219c0 10 -3 18 -9 24l-49 50v2h221l-1 -132v-140
c0 -48.667 5 -85.667 15 -111s28 -38 54 -38c27.333 0 51.333 15 72 45v299c0 10 -3 18.333 -9 25l-49 50v2h222zM347.001 561.999c-18 0 -42.335 8.16504 -73.002 24.498s-53.334 24.5 -68.001 24.5c-32 0 -53.333 -16.333 -64 -49h-2v24
c0 30.667 7.83301 55.334 23.5 74.001s35.834 28 60.501 28c18 0 42.333 -8.16699 73 -24.5s53.334 -24.5 68.001 -24.5c32 0 53.667 16.333 65 49h2c0 -11.333 -0.333008 -19.666 -1 -24.999c-1.33301 -30.667 -9.66602 -55.167 -24.999 -73.5s-35 -27.5 -59 -27.5z" />
    <glyph glyph-name="Umacron" unicode="&#x16a;" horiz-adv-x="673" 
d="M349 -10c-95.333 0 -164.501 19.1689 -207.501 57.502s-64.5 102.166 -64.5 191.499v374c0 10 -3.33301 18 -10 24l-60 64v2h323v-2l-62 -64c-6.66699 -6 -10 -14 -10 -24v-363c0 -78.667 12.833 -135.334 38.5 -170.001s63.834 -52 114.501 -52c48 0 85.333 19 112 57
s40 94.333 40 169v281c0 12 -4.33301 23 -13 33l-98 133v2h243v-2l-98 -133c-8.66699 -10 -13 -21 -13 -33v-279c0 -86.667 -18.333 -152.667 -55 -198s-96.667 -68 -180 -68zM515.999 800.002h-281v20h281v-20z" />
    <glyph glyph-name="umacron" unicode="&#x16b;" horiz-adv-x="595" 
d="M527 495l0.000976562 -419.001c0 -11.333 3 -19.666 9 -24.999l50 -49v-2h-223v107c-12.667 -35.333 -32.334 -63.333 -59.001 -84s-58 -31 -94 -31c-49.333 0 -87 17.667 -113 53s-39 87 -39 155c0 38 0.666992 111 2 219c0 10 -3 18 -9 24l-49 50v2h221l-1 -132v-140
c0 -48.667 5 -85.667 15 -111s28 -38 54 -38c27.333 0 51.333 15 72 45v299c0 10 -3 18.333 -9 25l-49 50v2h222zM423.001 591.999h-281v20h281v-20z" />
    <glyph glyph-name="Ubreve" unicode="&#x16c;" horiz-adv-x="673" 
d="M349 -10c-95.333 0 -164.501 19.1689 -207.501 57.502s-64.5 102.166 -64.5 191.499v374c0 10 -3.33301 18 -10 24l-60 64v2h323v-2l-62 -64c-6.66699 -6 -10 -14 -10 -24v-363c0 -78.667 12.833 -135.334 38.5 -170.001s63.834 -52 114.501 -52c48 0 85.333 19 112 57
s40 94.333 40 169v281c0 12 -4.33301 23 -13 33l-98 133v2h243v-2l-98 -133c-8.66699 -10 -13 -21 -13 -33v-279c0 -86.667 -18.333 -152.667 -55 -198s-96.667 -68 -180 -68zM372.999 825.002c37.333 0 67.1689 8.16699 89.502 24.5s34.5 39.833 36.5 70.5h2
c2.66699 -20 4 -34 4 -42c0 -42.667 -12.833 -75 -38.5 -97s-56.834 -33 -93.501 -33c-36 0 -66.667 11 -92 33s-38 54.333 -38 97c0 14.667 1.33301 28.667 4 42h2c1.33301 -30.667 13.166 -54.167 35.499 -70.5s51.833 -24.5 88.5 -24.5z" />
    <glyph glyph-name="ubreve" unicode="&#x16d;" horiz-adv-x="595" 
d="M527 495l0.000976562 -419.001c0 -11.333 3 -19.666 9 -24.999l50 -49v-2h-223v107c-12.667 -35.333 -32.334 -63.333 -59.001 -84s-58 -31 -94 -31c-49.333 0 -87 17.667 -113 53s-39 87 -39 155c0 38 0.666992 111 2 219c0 10 -3 18 -9 24l-49 50v2h221l-1 -132v-140
c0 -48.667 5 -85.667 15 -111s28 -38 54 -38c27.333 0 51.333 15 72 45v299c0 10 -3 18.333 -9 25l-49 50v2h222zM280.001 616.999c37.333 0 67.1689 8.16699 89.502 24.5s34.5 39.833 36.5 70.5h2c2.66699 -20 4 -34 4 -42c0 -42.667 -12.833 -75 -38.5 -97
s-56.834 -33 -93.501 -33c-36 0 -66.667 11 -92 33s-38 54.333 -38 97c0 14.667 1.33301 28.667 4 42h2c1.33301 -30.667 13.166 -54.167 35.499 -70.5s51.833 -24.5 88.5 -24.5z" />
    <glyph glyph-name="Uring" unicode="&#x16e;" horiz-adv-x="673" 
d="M472 839c0 -26.667 -9 -48.667 -27 -66s-40.667 -26 -68 -26c-24.667 0 -46.667 9 -66 27s-29 39.667 -29 65c0 26.667 9 49 27 67s40.333 27 67 27c28 0 51 -8.66699 69 -26s27 -40 27 -68zM451 840c0 21.333 -7 38.833 -21 52.5s-32 20.5 -54 20.5
c-21.333 0 -38.833 -6.83301 -52.5 -20.5s-20.5 -31.167 -20.5 -52.5c0 -20 7.33301 -37.167 22 -51.5s32 -21.5 52 -21.5c21.333 0 39 6.83301 53 20.5s21 31.167 21 52.5zM349 -10c-95.333 0 -164.501 19.1689 -207.501 57.502s-64.5 102.166 -64.5 191.499v374
c0 10 -3.33301 18 -10 24l-60 64v2h323v-2l-62 -64c-6.66699 -6 -10 -14 -10 -24v-363c0 -78.667 12.833 -135.334 38.5 -170.001s63.834 -52 114.501 -52c48 0 85.333 19 112 57s40 94.333 40 169v281c0 12 -4.33301 23 -13 33l-98 133v2h243v-2l-98 -133
c-8.66699 -10 -13 -21 -13 -33v-279c0 -86.667 -18.333 -152.667 -55 -198s-96.667 -68 -180 -68z" />
    <glyph glyph-name="uring" unicode="&#x16f;" horiz-adv-x="595" 
d="M379 631c0 -26.667 -9 -48.667 -27 -66s-40.667 -26 -68 -26c-24.667 0 -46.667 9 -66 27s-29 39.667 -29 65c0 26.667 9 49 27 67s40.333 27 67 27c28 0 51 -8.66699 69 -26s27 -40 27 -68zM358 632c0 21.333 -7 38.833 -21 52.5s-32 20.5 -54 20.5
c-20.667 0 -38 -6.83301 -52 -20.5s-21 -31.167 -21 -52.5c0 -20 7.33301 -37.167 22 -51.5s32 -21.5 52 -21.5c21.333 0 39 6.83301 53 20.5s21 31.167 21 52.5zM527 495l0.000976562 -419.001c0 -11.333 3 -19.666 9 -24.999l50 -49v-2h-223v107
c-12.667 -35.333 -32.334 -63.333 -59.001 -84s-58 -31 -94 -31c-49.333 0 -87 17.667 -113 53s-39 87 -39 155c0 38 0.666992 111 2 219c0 10 -3 18 -9 24l-49 50v2h221l-1 -132v-140c0 -48.667 5 -85.667 15 -111s28 -38 54 -38c27.333 0 51.333 15 72 45v299
c0 10 -3 18.333 -9 25l-49 50v2h222z" />
    <glyph glyph-name="Uhungarumlaut" unicode="&#x170;" horiz-adv-x="673" 
d="M349 -10c-95.333 0 -164.501 19.1689 -207.501 57.502s-64.5 102.166 -64.5 191.499v374c0 10 -3.33301 18 -10 24l-60 64v2h323v-2l-62 -64c-6.66699 -6 -10 -14 -10 -24v-363c0 -78.667 12.833 -135.334 38.5 -170.001s63.834 -52 114.501 -52c48 0 85.333 19 112 57
s40 94.333 40 169v281c0 12 -4.33301 23 -13 33l-98 133v2h243v-2l-98 -133c-8.66699 -10 -13 -21 -13 -33v-279c0 -86.667 -18.333 -152.667 -55 -198s-96.667 -68 -180 -68zM322.999 911.002h129v-2l-184 -170h-2zM489.999 911.002h129v-2l-184 -170h-2z" />
    <glyph glyph-name="uhungarumlaut" unicode="&#x171;" horiz-adv-x="595" 
d="M527 495l0.000976562 -419.001c0 -11.333 3 -19.666 9 -24.999l50 -49v-2h-223v107c-12.667 -35.333 -32.334 -63.333 -59.001 -84s-58 -31 -94 -31c-49.333 0 -87 17.667 -113 53s-39 87 -39 155c0 38 0.666992 111 2 219c0 10 -3 18 -9 24l-49 50v2h221l-1 -132v-140
c0 -48.667 5 -85.667 15 -111s28 -38 54 -38c27.333 0 51.333 15 72 45v299c0 10 -3 18.333 -9 25l-49 50v2h222zM231.001 702.999h129v-2l-184 -170h-2zM398.001 702.999h129v-2l-184 -170h-2z" />
    <glyph glyph-name="Uogonek" unicode="&#x172;" horiz-adv-x="673" 
d="M336 -236c-30 0 -55.668 9.00293 -77.001 27.0029s-32 42.333 -32 73c0 28.667 11.167 54.167 33.5 76.5s52.166 38.833 89.499 49.5h-1c-95.333 0 -164.5 19.167 -207.5 57.5s-64.5 102.166 -64.5 191.499v374c0 10 -3.33301 18 -10 24l-60 64v2h323v-2l-62 -64
c-6.66699 -6 -10 -14 -10 -24v-363c0 -78.667 12.833 -135.334 38.5 -170.001s63.834 -52 114.501 -52c48 0 85.333 19 112 57s40 94.333 40 169v281c0 12 -4.33301 23 -13 33l-98 133v2h243v-2l-98 -133c-8.66699 -12 -13 -23 -13 -33v-279
c0 -83.333 -16.833 -147.5 -50.5 -192.5s-88.5 -69.167 -164.5 -72.5c-40.667 -20.667 -61 -51.667 -61 -93c0 -24.667 6.66699 -43.834 20 -57.501s31 -20.5 53 -20.5c33.333 0 60 15 80 45l2 -1c-21.333 -66.667 -63.666 -100 -126.999 -100z" />
    <glyph glyph-name="uogonek" unicode="&#x173;" horiz-adv-x="595" 
d="M351 -236c-30 0 -55.667 9.16699 -77 27.5s-32 43.166 -32 74.499c0 30.667 11.667 58.834 35 84.501s52 42.167 86 49.5v107c-12.667 -35.333 -32.334 -63.333 -59.001 -84s-58 -31 -94 -31c-49.333 0 -87 17.667 -113 53s-39 87 -39 155c0 38 0.666992 111 2 219
c0 10 -3 18 -9 24l-49 50v2h221l-1 -132v-140c0 -48.667 5 -85.667 15 -111s28 -38 54 -38c27.333 0 51.333 15 72 45v299c0 10 -3 18.333 -9 25l-49 50v2h222v-419c0 -11.333 3 -19.666 9 -24.999l50 -49v-2h-200c-42 -14 -63 -48 -63 -102
c0 -24.667 6.66699 -43.834 20 -57.501s31 -20.5 53 -20.5c33.333 0 60 15 80 45l2 -1c-21.333 -66.667 -63.666 -100 -126.999 -100z" />
    <glyph glyph-name="Wcircumflex" unicode="&#x174;" horiz-adv-x="1016" 
d="M697 744l-1 -1l-163 67l-163 -67l-1 1l163 175h2zM629 0l-122.999 399.999l-127 -400h-140l-185 593c-3.33301 11.333 -10 25 -20 41l-42 67v2h296v-2l-48 -67c-4.66699 -6.66699 -5.33398 -15.334 -2.00098 -26.001l153 -496l104 325l-48 156
c-4 12.667 -9.66699 25.334 -17 38.001l-39 70v2h291v-2l-48 -67c-5.33301 -8 -6.33301 -16.667 -3 -26l150 -495l131 423c4 12.667 1.66699 24.667 -7 36l-90 129v2h237v-2l-95 -127c-12 -15.333 -20 -29.666 -24 -42.999l-164 -531h-140z" />
    <glyph glyph-name="wcircumflex" unicode="&#x175;" horiz-adv-x="773" 
d="M579 536l-1 -1l-163 67l-163 -67l-1 1l163 175h2zM793 493l-68 -117c-10.667 -17.333 -18 -32.333 -22 -45l-114 -331h-112l-96 278l-96 -278h-113l-129 380c-9.33301 26 -16.333 43.667 -21 53l-31 60v2h249v-2l-34 -57c-4.66699 -8 -5.66699 -16.333 -3 -25l99 -303
l69 200l-24 72c-7.33301 22 -14.333 39.667 -21 53l-31 60v2h249v-2l-34 -57c-4.66699 -8 -5.66699 -16.333 -3 -25l100 -302l76 225c3.33301 10 4.83301 16.667 4.5 20s-2.83301 9.33301 -7.5 18l-58 121v2h171v-2z" />
    <glyph glyph-name="Ycircumflex" unicode="&#x176;" horiz-adv-x="640" 
d="M415 267v-170.999c0 -10.667 3.66699 -19.334 11 -26.001l73 -68v-2h-349v2l74 68c6.66699 6.66699 10 15.334 10 26.001v154c0 10 -2 18.333 -6 25l-165 316c-8.66699 16.667 -17.667 31 -27 43l-50 67v2h336v-2l-60 -69c-6.66699 -8 -8 -16 -4 -24l146 -294l115 235
c3.33301 8 4.83301 13.5 4.5 16.5s-2.83301 7.83301 -7.5 14.5l-86 121v2h250v-2l-113 -121c-10.667 -10.667 -19.667 -23 -27 -37l-117 -238c-5.33301 -10.667 -8 -23.334 -8 -38.001zM519 744.001l-1 -1l-163 67l-163 -67l-1 1l163 175h2z" />
    <glyph glyph-name="ycircumflex" unicode="&#x177;" horiz-adv-x="476" 
d="M408 329l-127.998 -310.001c-26 -62 -54.667 -117.333 -86 -166c-20.667 -32 -41.5 -54.833 -62.5 -68.5s-46.5 -20.5 -76.5 -20.5c-16 0 -31.667 3.33301 -47 10l37 175h2l99 -98c5.33301 -5.33301 9.33301 -8 12 -8c4.66699 0 9.66699 4 15 12
c13.333 18.667 26 41.667 38 69l6 16l-186 472c-3.33301 8.66699 -8.33301 19.667 -15 33l-27 48v2h259v-2l-40 -55c-4.66699 -6.66699 -5.33398 -14.334 -2.00098 -23.001l101 -280l81 197c3.33301 8.66699 5.16602 14.834 5.49902 18.501s-1.5 9.83398 -5.5 18.501
l-61 124v2h171v-2l-65 -112c-8.66699 -14 -17 -31.333 -25 -52zM429.002 535.999l-1 -1l-163 67l-163 -67l-1 1l163 175h2z" />
    <glyph glyph-name="Ydieresis" unicode="&#x178;" horiz-adv-x="640" 
d="M415 267v-170.999c0 -10.667 3.66699 -19.334 11 -26.001l73 -68v-2h-349v2l74 68c6.66699 6.66699 10 15.334 10 26.001v154c0 10 -2 18.333 -6 25l-165 316c-8.66699 16.667 -17.667 31 -27 43l-50 67v2h336v-2l-60 -69c-6.66699 -8 -8 -16 -4 -24l146 -294l115 235
c3.33301 8 4.83301 13.5 4.5 16.5s-2.83301 7.83301 -7.5 14.5l-86 121v2h250v-2l-113 -121c-10.667 -10.667 -19.667 -23 -27 -37l-117 -238c-5.33301 -10.667 -8 -23.334 -8 -38.001zM187 829.001c0 19.333 6.66699 35.333 20 48s29.666 19 48.999 19
c18.667 0 34.667 -6.33301 48 -19s20 -28.667 20 -48c0 -18.667 -6.66699 -34.334 -20 -47.001s-29.333 -19 -48 -19c-19.333 0 -35.666 6.33301 -48.999 19s-20 28.334 -20 47.001zM386 829.001c0 19.333 6.66699 35.333 20 48s29.333 19 48 19
c19.333 0 35.666 -6.33301 48.999 -19s20 -28.667 20 -48c0 -18.667 -6.66699 -34.334 -20 -47.001s-29.666 -19 -48.999 -19c-18.667 0 -34.667 6.33301 -48 19s-20 28.334 -20 47.001z" />
    <glyph glyph-name="Zacute" unicode="&#x179;" horiz-adv-x="627" 
d="M347 911h160v-2l-237 -165l-2 2zM582 0h-571v2l396 681h-183c-8.66699 0 -14.667 -0.666992 -18 -2s-6.33301 -4.66602 -9 -9.99902l-143 -236h-2v268h560v-2l-397 -681h193c8.66699 0 14.667 0.666992 18 2s6.33301 4.66602 9 9.99902l145 235h2v-267z" />
    <glyph glyph-name="zacute" unicode="&#x17a;" horiz-adv-x="475" 
d="M265 703h160v-2l-237 -165l-2 2zM446 217h3l-12 -217h-424v2l267 474h-90c-8.66699 0 -14.334 -0.666992 -17.001 -2s-6.33398 -5.66602 -11.001 -12.999l-120 -175h-4v209h421v-2l-259 -474h95c8.66699 0 14.334 0.666992 17.001 2s6.33398 5.66602 11.001 12.999z" />
    <glyph glyph-name="Zdotaccent" unicode="&#x17b;" horiz-adv-x="627" 
d="M582 0h-571v2l396 681h-183c-8.66699 0 -14.667 -0.666992 -18 -2s-6.33301 -4.66602 -9 -9.99902l-143 -236h-2v268h560v-2l-397 -681h193c8.66699 0 14.667 0.666992 18 2s6.33301 4.66602 9 9.99902l145 235h2v-267zM257 832c0 22 7.5 39.667 22.5 53
s33.167 20 54.5 20s39.333 -6.66699 54 -20s22 -31 22 -53c0 -21.333 -7.33301 -38.333 -22 -51s-32.667 -19 -54 -19s-39.5 6.5 -54.5 19.5s-22.5 29.833 -22.5 50.5z" />
    <glyph glyph-name="zdotaccent" unicode="&#x17c;" horiz-adv-x="475" 
d="M446 217h3l-12 -217h-424v2l267 474h-90c-8.66699 0 -14.334 -0.666992 -17.001 -2s-6.33398 -5.66602 -11.001 -12.999l-120 -175h-4v209h421v-2l-259 -474h95c8.66699 0 14.334 0.666992 17.001 2s6.33398 5.66602 11.001 12.999zM174 624c0 22 7.5 39.667 22.5 53
s33.167 20 54.5 20s39.333 -6.66699 54 -20s22 -31 22 -53c0 -21.333 -7.33301 -38.333 -22 -51s-32.667 -19 -54 -19s-39.5 6.5 -54.5 19.5s-22.5 29.833 -22.5 50.5z" />
    <glyph glyph-name="Zcaron" unicode="&#x17d;" horiz-adv-x="627" 
d="M334 849l163 67l1 -2l-163 -174h-2l-163 174l1 2zM582 0h-571v2l396 681h-183c-8.66699 0 -14.667 -0.666992 -18 -2s-6.33301 -4.66602 -9 -9.99902l-143 -236h-2v268h560v-2l-397 -681h193c8.66699 0 14.667 0.666992 18 2s6.33301 4.66602 9 9.99902l145 235h2v-267z
" />
    <glyph glyph-name="zcaron" unicode="&#x17e;" horiz-adv-x="475" 
d="M251 642l163 67l1 -2l-163 -174h-2l-163 174l1 2zM446 217h3l-12 -217h-424v2l267 474h-90c-8.66699 0 -14.334 -0.666992 -17.001 -2s-6.33398 -5.66602 -11.001 -12.999l-120 -175h-4v209h421v-2l-259 -474h95c8.66699 0 14.334 0.666992 17.001 2
s6.33398 5.66602 11.001 12.999z" />
    <glyph glyph-name="florin" unicode="&#x192;" horiz-adv-x="475" 
d="M58 291v20h90v181c0 78 16.333 134.333 49 169s80.667 52 144 52c52 0 104.667 -7.33301 158 -22l-63 -150h-2l-70 141c-4 8.66699 -10 13 -18 13c-12.667 0 -21.667 -6.66699 -27 -20s-8 -36 -8 -68v-296h109v-20h-109v-288c0 -83.333 -16.167 -143.833 -48.5 -181.5
s-79.833 -56.5 -142.5 -56.5c-52 0 -105.333 7 -160 21l63 150h2l69 -140c4.66699 -9.33301 11 -14 19 -14c14.667 0 24.167 6.5 28.5 19.5s6.5 35.5 6.5 67.5v422h-90z" />
    <glyph glyph-name="uni01B5" unicode="&#x1b5;" horiz-adv-x="627" 
d="M547 346h-142l-190 -326h193c8.66699 0 14.667 0.666992 18 2s6.33301 4.66602 9 9.99902l145 235h2v-267h-571v2l200 344h-138v19h149l185 318h-183c-8.66699 0 -14.667 -0.666992 -18 -2s-6.33301 -4.66602 -9 -9.99902l-143 -236h-2v268h560v-2l-196 -336h131v-19z
" />
    <glyph glyph-name="uni01B6" unicode="&#x1b6;" horiz-adv-x="476" 
d="M422 245h-99l-123 -226h95c8.66699 0 14.334 0.666992 17.001 2s6.33398 5.66602 11.001 12.999l123 183h3l-12 -217h-424v2l137 243h-85v19h95l120 212h-90c-8.66699 0 -14.334 -0.666992 -17.001 -2s-6.33398 -5.66602 -11.001 -12.999l-120 -175h-4v209h421v-2
l-125 -229h88v-19z" />
    <glyph glyph-name="Aringacute" unicode="&#x1fa;" horiz-adv-x="656" 
d="M308 993l145.001 0.000976562v-2l-159 -95c-26.667 -14.667 -45 -28.334 -55 -41.001c18.667 17.333 42 26 70 26c27.333 0 50.166 -6.5 68.499 -19.5s27.5 -30.5 27.5 -52.5c0 -21.333 -9.16699 -38.5 -27.5 -51.5s-40.833 -19.5 -67.5 -19.5
c-24.667 0 -46.667 6.83301 -66 20.5s-29 30.5 -29 50.5c0 12.667 4.66699 27 14 43zM384.001 809.001c0 16.667 -7 29.666 -21 38.999s-32 14 -54 14c-20.667 0 -38 -4.66699 -52 -14s-21 -22.333 -21 -39c0 -15.333 7.33301 -27.666 22 -36.999s32 -14 52 -14
c21.333 0 39 4.5 53 13.5s21 21.5 21 37.5zM147.001 245l-26.001 -80.001c-2.66699 -8 -3.5 -13.667 -2.5 -17s4.5 -9.33301 10.5 -18l89 -128v-2h-237v2l96 128c10.667 14 18.334 28 23.001 42l139 426c3.33301 9.33301 4.66602 15.833 3.99902 19.5s-4 8.83398 -10 15.501
l-59 68v2h235l187 -593c3.33301 -11.333 10 -25 20 -41l42 -67v-2h-296v2l48 67c4.66699 6.66699 5.33398 15.667 2.00098 27l-47 149h-218zM258 588.999l-105 -324h206z" />
    <glyph glyph-name="aringacute" unicode="&#x1fb;" 
d="M245 780l145 0.000976562v-2l-160 -94c-28 -16.667 -46 -30.334 -54 -41.001c19.333 16.667 42.333 25 69 25c28 0 51 -6.5 69 -19.5s27 -30.5 27 -52.5c0 -21.333 -9 -38.333 -27 -51s-40.667 -19 -68 -19c-24.667 0 -46.667 6.66699 -66 20s-29 30 -29 50
c0 13.333 4.66699 28 14 44zM321 597.001c0 16.667 -7.16699 29.5 -21.5 38.5s-32.166 13.5 -53.499 13.5c-20.667 0 -38.167 -4.66699 -52.5 -14s-21.5 -22 -21.5 -38s7.33301 -28.667 22 -38s32 -14 52 -14c21.333 0 39.166 4.66699 53.499 14s21.5 22 21.5 38z
M293 257.001l2 106.999v5c0 76.667 -24.333 115 -73 115c-10 0 -16.333 -0.666992 -19 -2s-5.33398 -4.66602 -8.00098 -9.99902l-81 -150h-2l-63 143c70.667 25.333 138 38 202 38c70.667 0 122.334 -15.333 155.001 -46c33.333 -31.333 50 -83.333 50 -156
c0 -4 -0.166992 -8.5 -0.5 -13.5s-0.5 -7.83301 -0.5 -8.5l-6 -156c-2 -38.667 7 -58 27 -58c12.667 0 22 6 28 18h2c0.666992 -11.333 -2 -23.333 -8 -36c-18 -36.667 -50.667 -55 -98 -55c-30 0 -55.333 8.5 -76 25.5s-31.667 40.833 -33 71.5
c-10 -29.333 -27.167 -52.833 -51.5 -70.5s-52.5 -26.5 -84.5 -26.5c-38.667 0 -71 12.5 -97 37.5s-39 59.5 -39 103.5c0 46.667 16.833 83.5 50.5 110.5s72.834 40.5 117.501 40.5c45.333 0 80.666 -9 105.999 -27zM256 253c-25.333 0 -45.167 -9.66699 -59.5 -29
s-21.5 -44 -21.5 -74c0 -26.667 5.5 -47.5 16.5 -62.5s25.167 -22.5 42.5 -22.5c22.667 0 41.667 11.667 57 35v1l2 146c-12 4 -24.333 6 -37 6z" />
    <glyph glyph-name="AEacute" unicode="&#x1fc;" horiz-adv-x="947" 
d="M600 912h160v-2l-237 -165l-2 2zM900 246l-0.000976562 -246h-546v2l66 63c6.66699 6 10 14 10 24v156h-231l-47 -77c-6.66699 -10.667 -10 -18.334 -10 -23.001s2.66699 -12 8 -22l68 -121v-2h-246v2l115 119c21.333 22 34.666 37.333 39.999 46l266 433
c4.66699 8 6.83398 13.333 6.50098 16s-2.83301 6.66699 -7.5 12l-69 73v2h567v-242h-2l-130 206c-6.66699 10.667 -16 16 -28 16h-103c-7.33301 0 -11.833 -1.16699 -13.5 -3.5s-2.5 -7.83301 -2.5 -16.5v-301h67c10 0.666992 18.667 5.33398 26 14.001l91 104h2v-255h-2
l-91 104c-8 8.66699 -16.667 13 -26 13h-67v-302c0 -8.66699 0.833008 -14.167 2.5 -16.5s6.16699 -3.5 13.5 -3.5h116c12.667 0 22.334 4.66699 29.001 14l124 212h4zM429.999 620l-219 -356h219v356z" />
    <glyph glyph-name="aeacute" unicode="&#x1fd;" horiz-adv-x="784" 
d="M434 703h160v-2l-237 -165l-2 2zM761 270l-300.002 -0.00585938v-3c0 -61.333 13.5 -107 40.5 -137s61.5 -45 103.5 -45c70 0 120.333 30.667 151 92h2c-24.667 -123.333 -98 -185 -220 -185c-44 0 -84.667 9.33301 -122 28s-66.666 46.334 -87.999 83.001
c-6.66699 -28.667 -24 -54.334 -52 -77.001s-64.333 -34 -109 -34c-42.667 0 -78 12.5 -106 37.5s-42 59.833 -42 104.5c0 46.667 16.833 83.334 50.5 110.001s72.167 40 115.5 40c42.667 0 78.667 -8.66699 108 -26c0 4.66699 0.333008 22.834 1 54.501s1 50.167 1 55.5
c0 76.667 -24.667 115 -74 115c-9.33301 0 -15.166 -0.666992 -17.499 -2s-5.16602 -4.66602 -8.49902 -9.99902l-81 -149h-2l-64 145c70 24 136 36 198 36c57.333 0 101.666 -15.333 132.999 -46l12 -14c41.333 40 92.333 60 153 60c28 0 54.333 -3.66699 79 -11
s47.667 -18.666 69 -33.999s38.333 -37.166 51 -65.499s19 -61.833 19 -100.5c0 -7.33301 -0.333008 -14.666 -1 -21.999zM540.998 483.994c-25.333 0 -44.832 -15 -58.499 -45s-20.834 -80.333 -21.501 -151h148c1.33301 74.667 -3.66699 126 -15 154s-29 42 -53 42z
M244.999 63.9941c33.333 0 59.666 15.333 78.999 46c-20 36.667 -30 80 -30 130v7c-12 4 -24.667 6 -38 6c-25.333 0 -45.166 -9.5 -59.499 -28.5s-21.5 -43.167 -21.5 -72.5c0 -27.333 6.5 -48.833 19.5 -64.5s29.833 -23.5 50.5 -23.5z" />
    <glyph glyph-name="Oslashacute" unicode="&#x1fe;" horiz-adv-x="732" 
d="M366 713c52.667 0 101 -8.33301 145 -25l41 92l17 -7l-41 -92c118 -52 177 -162 177 -330c0 -117.333 -29.667 -206.833 -89 -268.5s-142.666 -92.5 -249.999 -92.5c-49.333 0 -94 6.66699 -134 20l-40 -91l-18 7l40 90c-60 24 -106.167 64.333 -138.5 121
s-48.5 128 -48.5 214c0 118 29.667 207.833 89 269.5s142.666 92.5 249.999 92.5zM233 352c0 -104 8.33301 -182.999 25 -236.999l213 482c-20.667 64.667 -55.667 97 -105 97c-44 0 -77.167 -26.833 -99.5 -80.5s-33.5 -140.834 -33.5 -261.501zM366 9.00098
c44 0 77.167 26.999 99.5 80.999s33.5 141.333 33.5 262c0 90.667 -6.66699 163.334 -20 218.001l-212 -481c20.667 -53.333 53.667 -80 99 -80zM387 911h160v-2l-237 -165l-2 2z" />
    <glyph glyph-name="oslashacute" unicode="&#x1ff;" horiz-adv-x="571" 
d="M438 567l-37 -82.999c98.667 -35.333 148 -114.333 148 -237c0 -83.333 -23.667 -146.666 -71 -189.999s-111.666 -65 -192.999 -65c-35.333 0 -67.333 4 -96 12l-37 -85l-19 8l36 83c-98.667 35.333 -148 114.666 -148 237.999c0 83.333 23.667 146.666 71 189.999
s111.666 65 192.999 65c35.333 0 67.333 -4 96 -12l38 84zM285 484.001c-18 0 -32.5 -6 -43.5 -18s-19.833 -35.667 -26.5 -71s-10 -84.333 -10 -147c0 -62 2.66699 -108.667 8 -140l137 312c-11.333 42.667 -33 64 -65 64zM366 247.001c0 56 -2.66699 102 -8 138l-138 -312
c12 -41.333 33.667 -62 65 -62c18.667 0 33.5 6 44.5 18s19.833 35.667 26.5 71s10 84.333 10 147zM298 703.001h160v-2l-237 -165l-2 2z" />
    <glyph glyph-name="Scommaaccent" unicode="&#x218;" horiz-adv-x="566" 
d="M349 -115c0 -32.667 -11.833 -62.5 -35.5 -89.5s-53.167 -44.5 -88.5 -52.5l-1 2c36.667 23.333 55 52.333 55 87c0 5.33301 -3 8.66602 -9 9.99902c-35.333 4.66699 -53 24.334 -53 59.001c0 18 6 33 18 45s27.333 18 46 18c20.667 0 37.167 -7 49.5 -21
s18.5 -33.333 18.5 -58zM544 218c0 -68 -25.6631 -123.003 -76.9961 -165.003s-119 -63 -203 -63c-72.667 0 -141 9.33301 -205 28v239h2l132 -228c6 -10.667 13.333 -16.667 22 -18c10 -1.33301 24 -2 42 -2c41.333 0 74.333 10 99 30s37 48.333 37 85
c0 31.333 -10.333 56.5 -31 75.5s-56.334 40.5 -107.001 64.5l-31 15c-26.667 12.667 -49.334 24.834 -68.001 36.501s-37.834 26.334 -57.501 44.001s-34.667 38.667 -45 63s-15.5 51.5 -15.5 81.5c0 63.333 23.667 114 71 152s110.333 57 189 57
c64.667 0 128.667 -7.66699 192 -23v-228h-2l-135 216c-5.33301 8 -12 12.667 -20 14c-7.33301 1.33301 -17 2 -29 2c-36 0 -64.833 -9.66699 -86.5 -29s-32.5 -46.333 -32.5 -81c0 -29.333 9.83301 -53 29.5 -71s52.167 -38 97.5 -60l37 -18
c26 -12.667 46.667 -23.167 62 -31.5s32.5 -19.333 51.5 -33s33.667 -27.167 44 -40.5s19.166 -29.666 26.499 -48.999s11 -40.333 11 -63z" />
    <glyph glyph-name="scommaaccent" unicode="&#x219;" horiz-adv-x="456" 
d="M299 -118c0 -32.667 -11.833 -62.501 -35.5 -89.501s-53.167 -44.5 -88.5 -52.5l-1 2c36.667 23.333 55 52.333 55 87c0 6 -3 9.33301 -9 10c-35.333 4.66699 -53 24.334 -53 59.001c0 18 6 33 18 45s27.333 18 46 18c20.667 0 37.167 -7 49.5 -21s18.5 -33.333 18.5 -58
zM298 82.999c0 19.333 -6.83398 34.6689 -20.501 46.002s-38.834 25.333 -75.501 42l-68 32c-64.667 30.667 -97 78 -97 142c0 48 18.333 86.333 55 115s86.667 43 150 43c58.667 0 117.334 -9 176.001 -27l-56 -145h-2l-78 139c-6 10 -13.667 15 -23 15h-14
c-23.333 0 -42.666 -6 -57.999 -18s-23 -29.333 -23 -52c0 -20.667 7.16699 -37.334 21.5 -50.001s37.833 -26.334 70.5 -41.001l64 -28c36 -15.333 63.5 -33.333 82.5 -54s28.5 -48.667 28.5 -84c0 -52.667 -20.333 -93.5 -61 -122.5s-95 -43.5 -163 -43.5
c-64 0 -125.333 10.333 -184 31l55 155h2l80 -155c4 -8.66699 11 -13 21 -13h23c28.667 0 51.5 6.66699 68.5 20s25.5 31 25.5 53z" />
    <glyph glyph-name="uni021A" unicode="&#x21a;" horiz-adv-x="634" 
d="M380 -118c0 -32.667 -11.833 -62.501 -35.5 -89.501s-53.167 -44.5 -88.5 -52.5l-1 2c36.667 23.333 55 52.333 55 87c0 6 -3 9.33301 -9 10c-35.333 4.66699 -53 24.334 -53 59.001c0 18 6 33 18 45s27.333 18 46 18c20.667 0 37.167 -7 49.5 -21s18.5 -33.333 18.5 -58
zM407 95.999c0 -10.667 3.66699 -19.333 11 -26l74 -68v-2h-350v2l74 68c7.33301 7.33301 11 16 11 26v587h-57c-8 0 -13.5 -0.833008 -16.5 -2.5s-6.16699 -6.16699 -9.5 -13.5l-123 -234h-2v270h596v-270h-2l-123 234c-3.33301 7.33301 -6.5 11.833 -9.5 13.5
s-8.5 2.5 -16.5 2.5h-57v-587z" />
    <glyph glyph-name="uni021B" unicode="&#x21b;" horiz-adv-x="338" 
d="M249 -115c0 -32.667 -11.833 -62.5 -35.5 -89.5s-53.167 -44.5 -88.5 -52.5l-1 2c36.667 23.333 55 52.333 55 87c0 5.33301 -3 8.66602 -9 9.99902c-35.333 4.66699 -53 24.334 -53 59.001c0 18 6 33 18 45s27.333 18 46 18c20.667 0 37.167 -7 49.5 -21
s18.5 -33.333 18.5 -58zM346 495l0.000976562 -20h-123v-334c0 -22.667 4.66699 -40.167 14 -52.5s22.333 -18.5 39 -18.5c25.333 0 44.666 12.333 57.999 37l2 -1c-6 -32 -20.833 -59 -44.5 -81s-57.5 -33 -101.5 -33c-86.667 0 -130 45.667 -130 137v346h-55v20h45
c14 0 24.333 3.66699 31 11l140 157h2v-168h123z" />
    <glyph glyph-name="dotlessj" unicode="&#x237;" horiz-adv-x="289" 
d="M237 37c0 -83.333 -21.332 -147.999 -63.999 -193.999s-103.334 -69.333 -182.001 -70c-2.66699 0 -6 0.166992 -10 0.5s-7 0.5 -9 0.5v2c67.333 13.333 101 81.666 101 204.999v437c0 10 -3 18.333 -9 25l-49 50v2h222v-458z" />
    <glyph glyph-name="circumflex" unicode="&#x2c6;" horiz-adv-x="428" 
d="M378 536l-1 -1l-163 67l-163 -67l-1 1l163 175h2z" />
    <glyph glyph-name="caron" unicode="&#x2c7;" horiz-adv-x="428" 
d="M214 644l163 67l1 -2l-163 -174h-2l-163 174l1 2z" />
    <glyph glyph-name="uni02C9" unicode="&#x2c9;" horiz-adv-x="404" 
d="M336 592h-280v20h280v-20z" />
    <glyph glyph-name="breve" unicode="&#x2d8;" horiz-adv-x="363" 
d="M181 617c37.333 0 67.1689 8.16699 89.502 24.5s34.5 39.833 36.5 70.5h2c2.66699 -20 4 -34 4 -42c0 -42.667 -12.833 -75 -38.5 -97s-56.834 -33 -93.501 -33c-36 0 -66.667 11 -92 33s-38 54.333 -38 97c0 14.667 1.33301 28.667 4 42h2
c1.33301 -30.667 13.166 -54.167 35.499 -70.5s51.833 -24.5 88.5 -24.5z" />
    <glyph glyph-name="dotaccent" unicode="&#x2d9;" horiz-adv-x="253" 
d="M50 624c0 22 7.5 39.667 22.5 53s33.167 20 54.5 20s39.333 -6.66699 54 -20s22 -31 22 -53c0 -21.333 -7.33301 -38.333 -22 -51s-32.667 -19 -54 -19s-39.5 6.5 -54.5 19.5s-22.5 29.833 -22.5 50.5z" />
    </font>
</defs>
</svg>
